<svg width="861" height="380" viewBox="0 0 861 380" fill="none" xmlns="http://www.w3.org/2000/svg">
<path d="M447.138 379.066C219.048 379.066 34.1454 373.548 34.1454 366.741C34.1454 359.935 219.048 354.417 447.138 354.417C675.227 354.417 860.13 359.935 860.13 366.741C860.13 373.548 675.227 379.066 447.138 379.066Z" fill="#8DC7D0"/>
<path d="M446.122 372.221C218.033 372.221 33.1302 366.703 33.1302 359.896C33.1302 353.089 218.033 347.571 446.122 347.571C674.212 347.571 859.115 353.089 859.115 359.896C859.115 366.703 674.212 372.221 446.122 372.221Z" fill="#D8F4F6" fill-opacity="0.12"/>
<path fill-rule="evenodd" clip-rule="evenodd" d="M211.368 348.852H203.14V357.248H211.368V348.852Z" fill="#FDBAB3"/>
<path d="M184.962 362.892C184.962 362.892 183.882 368.647 195.75 367.515C196.906 367.402 198.063 367.175 199.182 366.873C200.793 366.421 203.447 365.854 205.305 365.685L205.381 367.609L212.472 367.213C213.23 367.137 213.799 366.496 213.761 365.741L213.401 361.42C213.401 361.42 201.495 361.779 201.305 361.854C201.115 361.93 191.01 364.119 191.01 364.119L184.962 362.892Z" fill="#2A2A2C"/>
<path d="M190.764 366.704L191.162 366.723C192.375 366.779 193.816 366.742 195.541 366.572C196.698 366.459 197.854 366.251 198.973 365.93C200.585 365.477 203.239 364.798 205.116 364.628C205.116 364.628 206.519 364.591 208.187 364.515C208.301 364.515 208.433 364.496 208.547 364.496C208.832 364.477 209.116 364.459 209.4 364.44C209.514 364.44 209.647 364.421 209.761 364.421C209.988 364.402 210.197 364.383 210.424 364.364C210.538 364.345 210.671 364.345 210.784 364.327C212.301 364.194 213.533 363.987 213.514 363.704C213.628 362.572 213.666 361.44 213.609 360.308C213.552 358.968 213.363 357.628 213.059 356.289C212.851 355.402 212.017 354.798 211.107 354.911L204.661 355.647C204.168 355.704 203.675 355.534 203.334 355.194C203.296 355.157 203.201 355.062 203.201 355.062L203.106 354.949V354.93L203.087 354.911L202.632 354.383L202.613 354.364C202.31 354.006 201.779 354.006 201.476 354.364C200.224 355.798 198.878 357.1 197.456 358.27C195.617 359.76 193.437 360.779 191.124 361.194C190.991 361.213 190.859 361.232 190.726 361.251C190.214 361.326 189.702 361.364 189.19 361.383C184.925 361.515 185 362.93 185 362.93C185 362.93 184.052 366.289 190.764 366.704Z" fill="#414143"/>
<path d="M203.144 356.175C202.935 356.175 202.765 356.006 202.765 355.798C202.765 355.589 202.935 355.42 203.144 355.42C203.354 355.42 203.523 355.589 203.523 355.798C203.523 356.006 203.354 356.175 203.144 356.175Z" fill="#C6C7CD"/>
<path d="M203.163 355.987C203.106 355.987 203.049 355.968 203.011 355.93L201.457 354.402C201.381 354.326 201.381 354.213 201.457 354.138C201.533 354.062 201.646 354.062 201.722 354.138L203.277 355.666C203.353 355.741 203.353 355.855 203.277 355.93C203.239 355.949 203.201 355.968 203.163 355.987Z" fill="#2A2A2C"/>
<path d="M202.215 356.892C202.006 356.892 201.836 356.723 201.836 356.515C201.836 356.307 202.006 356.138 202.215 356.138C202.425 356.138 202.594 356.307 202.594 356.515C202.594 356.723 202.425 356.892 202.215 356.892Z" fill="#C6C7CD"/>
<path d="M202.234 356.703C202.177 356.703 202.12 356.685 202.083 356.647L200.642 355.213C200.566 355.137 200.566 355.024 200.642 354.949C200.718 354.873 200.831 354.873 200.907 354.949L202.348 356.383C202.424 356.458 202.424 356.571 202.348 356.647C202.329 356.685 202.272 356.703 202.234 356.703Z" fill="#2A2A2C"/>
<path d="M201.286 357.685C201.077 357.685 200.907 357.516 200.907 357.308C200.907 357.099 201.077 356.93 201.286 356.93C201.495 356.93 201.665 357.099 201.665 357.308C201.665 357.516 201.495 357.685 201.286 357.685Z" fill="#C6C7CD"/>
<path d="M201.305 357.496C201.248 357.496 201.191 357.477 201.153 357.44L199.769 356.043C199.694 355.968 199.694 355.855 199.769 355.779C199.845 355.704 199.959 355.704 200.035 355.779L201.419 357.176C201.495 357.251 201.495 357.364 201.419 357.44C201.4 357.477 201.362 357.496 201.305 357.496Z" fill="#2A2A2C"/>
<path d="M200.433 358.458C200.223 358.458 200.054 358.289 200.054 358.081C200.054 357.873 200.223 357.704 200.433 357.704C200.642 357.704 200.812 357.873 200.812 358.081C200.812 358.289 200.642 358.458 200.433 358.458Z" fill="#C6C7CD"/>
<path d="M200.433 358.27C200.376 358.27 200.338 358.251 200.281 358.213L198.992 356.836C198.916 356.76 198.916 356.647 198.992 356.572C199.068 356.496 199.182 356.496 199.257 356.572L200.547 357.949C200.622 358.025 200.622 358.138 200.547 358.213C200.528 358.251 200.49 358.27 200.433 358.27Z" fill="#2A2A2C"/>
<path d="M199.466 359.157C199.257 359.157 199.087 358.988 199.087 358.779C199.087 358.571 199.257 358.402 199.466 358.402C199.675 358.402 199.845 358.571 199.845 358.779C199.845 358.988 199.675 359.157 199.466 359.157Z" fill="#C6C7CD"/>
<path d="M199.485 358.968C199.428 358.968 199.39 358.949 199.333 358.911L198.082 357.59C198.006 357.515 198.006 357.402 198.082 357.326C198.158 357.251 198.272 357.251 198.348 357.326L199.599 358.647C199.675 358.722 199.675 358.836 199.599 358.911C199.561 358.949 199.523 358.949 199.485 358.968Z" fill="#2A2A2C"/>
<path d="M198.518 359.893C198.309 359.893 198.139 359.724 198.139 359.516C198.139 359.307 198.309 359.138 198.518 359.138C198.728 359.138 198.897 359.307 198.897 359.516C198.897 359.724 198.728 359.893 198.518 359.893Z" fill="#C6C7CD"/>
<path d="M198.518 359.704C198.461 359.704 198.423 359.685 198.367 359.647L197.172 358.402C197.096 358.326 197.096 358.213 197.172 358.138C197.248 358.062 197.362 358.062 197.438 358.138L198.632 359.383C198.708 359.458 198.708 359.572 198.632 359.647C198.613 359.685 198.575 359.704 198.518 359.704Z" fill="#2A2A2C"/>
<path d="M196.907 360.439C196.907 361.1 197.172 361.722 197.684 362.138C198.196 362.59 198.878 362.76 199.561 362.628L205.817 361.383C206.329 361.288 206.86 361.402 207.277 361.704C207.694 362.005 207.96 362.477 208.016 362.987L208.187 364.534C208.301 364.534 208.434 364.515 208.547 364.515L208.377 362.968C208.301 362.364 207.979 361.798 207.486 361.421C206.993 361.062 206.348 360.911 205.741 361.043L199.485 362.288C198.916 362.402 198.347 362.251 197.911 361.873C197.494 361.515 197.267 361.005 197.267 360.458C197.267 359.911 197.532 359.402 197.949 359.062L203.068 354.949L202.841 354.685L197.722 358.798C197.229 359.156 196.926 359.779 196.907 360.439Z" fill="#2A2A2C"/>
<path fill-rule="evenodd" clip-rule="evenodd" d="M241.988 348.869H233.76V357.266H241.988V348.869Z" fill="#FDBAB3"/>
<path d="M215.581 362.893C215.581 362.893 214.5 368.647 226.369 367.515C227.525 367.402 228.682 367.176 229.8 366.874C231.412 366.421 234.066 365.855 235.924 365.685L236 367.61L243.09 367.213C243.849 367.138 244.417 366.496 244.379 365.742L244.019 361.421C244.019 361.421 232.113 361.779 231.924 361.855C231.734 361.93 221.629 364.119 221.629 364.119L215.581 362.893Z" fill="#2A2A2C"/>
<path d="M221.382 366.704L221.781 366.723C222.994 366.78 224.435 366.742 226.16 366.572C227.317 366.459 228.473 366.252 229.592 365.931C231.203 365.478 233.857 364.799 235.734 364.629C235.734 364.629 237.137 364.591 238.806 364.516C238.919 364.516 239.052 364.497 239.166 364.497C239.45 364.478 239.735 364.459 240.019 364.44C240.133 364.44 240.265 364.421 240.379 364.421C240.607 364.402 240.815 364.384 241.043 364.365C241.156 364.346 241.289 364.346 241.403 364.327C242.92 364.195 244.152 363.987 244.133 363.704C244.247 362.572 244.285 361.44 244.228 360.308C244.171 358.968 243.981 357.629 243.678 356.289C243.469 355.402 242.635 354.799 241.725 354.912L235.279 355.648C234.786 355.704 234.293 355.534 233.952 355.195C233.914 355.157 233.819 355.063 233.819 355.063L233.725 354.949V354.931L233.706 354.912L233.251 354.383L233.232 354.365C232.928 354.006 232.397 354.006 232.094 354.365C230.843 355.799 229.497 357.1 228.075 358.27C226.236 359.761 224.056 360.78 221.743 361.195C221.61 361.214 221.477 361.233 221.345 361.251C220.833 361.327 220.321 361.365 219.809 361.384C215.543 361.516 215.619 362.931 215.619 362.931C215.619 362.931 214.671 366.289 221.382 366.704Z" fill="#414143"/>
<path d="M233.762 356.176C233.553 356.176 233.383 356.007 233.383 355.798C233.383 355.59 233.553 355.421 233.762 355.421C233.972 355.421 234.142 355.59 234.142 355.798C234.142 356.007 233.972 356.176 233.762 356.176Z" fill="#C6C7CD"/>
<path d="M233.782 355.987C233.725 355.987 233.668 355.968 233.63 355.93L232.075 354.402C231.999 354.326 231.999 354.213 232.075 354.138C232.151 354.062 232.265 354.062 232.341 354.138L233.895 355.666C233.971 355.741 233.971 355.855 233.895 355.93C233.857 355.949 233.819 355.968 233.782 355.987Z" fill="#2A2A2C"/>
<path d="M232.834 356.893C232.624 356.893 232.455 356.724 232.455 356.516C232.455 356.307 232.624 356.138 232.834 356.138C233.043 356.138 233.213 356.307 233.213 356.516C233.213 356.724 233.043 356.893 232.834 356.893Z" fill="#C6C7CD"/>
<path d="M232.852 356.704C232.796 356.704 232.739 356.685 232.701 356.647L231.26 355.213C231.184 355.138 231.184 355.025 231.26 354.949C231.336 354.874 231.449 354.874 231.525 354.949L232.966 356.383C233.042 356.459 233.042 356.572 232.966 356.647C232.947 356.685 232.89 356.704 232.852 356.704Z" fill="#2A2A2C"/>
<path d="M231.905 357.685C231.695 357.685 231.525 357.516 231.525 357.308C231.525 357.1 231.695 356.931 231.905 356.931C232.114 356.931 232.284 357.1 232.284 357.308C232.284 357.516 232.114 357.685 231.905 357.685Z" fill="#C6C7CD"/>
<path d="M231.924 357.496C231.867 357.496 231.81 357.477 231.772 357.44L230.388 356.043C230.312 355.968 230.312 355.855 230.388 355.779C230.464 355.704 230.578 355.704 230.653 355.779L232.037 357.176C232.113 357.251 232.113 357.364 232.037 357.44C232.018 357.477 231.981 357.496 231.924 357.496Z" fill="#2A2A2C"/>
<path d="M231.051 358.458C230.842 358.458 230.672 358.289 230.672 358.081C230.672 357.873 230.842 357.704 231.051 357.704C231.261 357.704 231.431 357.873 231.431 358.081C231.431 358.289 231.261 358.458 231.051 358.458Z" fill="#C6C7CD"/>
<path d="M231.051 358.27C230.995 358.27 230.957 358.251 230.9 358.213L229.611 356.836C229.535 356.76 229.535 356.647 229.611 356.572C229.686 356.496 229.8 356.496 229.876 356.572L231.165 357.949C231.241 358.025 231.241 358.138 231.165 358.213C231.146 358.251 231.108 358.27 231.051 358.27Z" fill="#2A2A2C"/>
<path d="M230.085 359.157C229.875 359.157 229.705 358.988 229.705 358.779C229.705 358.571 229.875 358.402 230.085 358.402C230.294 358.402 230.464 358.571 230.464 358.779C230.464 358.988 230.294 359.157 230.085 359.157Z" fill="#C6C7CD"/>
<path d="M230.104 358.968C230.047 358.968 230.009 358.949 229.952 358.911L228.701 357.59C228.625 357.515 228.625 357.402 228.701 357.326C228.776 357.251 228.89 357.251 228.966 357.326L230.217 358.647C230.293 358.722 230.293 358.836 230.217 358.911C230.179 358.949 230.142 358.949 230.104 358.968Z" fill="#2A2A2C"/>
<path d="M229.137 359.893C228.927 359.893 228.758 359.724 228.758 359.516C228.758 359.307 228.927 359.138 229.137 359.138C229.346 359.138 229.516 359.307 229.516 359.516C229.516 359.724 229.346 359.893 229.137 359.893Z" fill="#C6C7CD"/>
<path d="M229.137 359.704C229.08 359.704 229.042 359.685 228.985 359.647L227.791 358.402C227.715 358.326 227.715 358.213 227.791 358.138C227.867 358.062 227.98 358.062 228.056 358.138L229.251 359.383C229.326 359.458 229.326 359.572 229.251 359.647C229.232 359.685 229.194 359.704 229.137 359.704Z" fill="#2A2A2C"/>
<path d="M227.525 360.44C227.525 361.1 227.791 361.723 228.302 362.138C228.814 362.591 229.497 362.761 230.179 362.629L236.436 361.383C236.948 361.289 237.479 361.402 237.896 361.704C238.313 362.006 238.578 362.478 238.635 362.987L238.806 364.534C238.919 364.534 239.052 364.515 239.166 364.515L238.995 362.968C238.919 362.364 238.597 361.798 238.104 361.421C237.611 361.063 236.967 360.912 236.36 361.044L230.104 362.289C229.535 362.402 228.966 362.251 228.53 361.874C228.113 361.515 227.885 361.006 227.885 360.459C227.885 359.912 228.151 359.402 228.568 359.063L233.687 354.949L233.459 354.685L228.34 358.798C227.847 359.157 227.544 359.779 227.525 360.44Z" fill="#2A2A2C"/>
<path d="M242.73 242.645C245.46 258.929 242.654 274.91 241.232 297.193L243.981 351.892H231.639L224.871 300.023L222.274 278.684L217.193 297.193L213.079 351.892H200.85L200.566 295.08C202.632 276.533 205.4 258.834 209.306 242.476L242.73 242.645Z" fill="#414143"/>
<path d="M169.36 201.532L162.326 200.211C161.568 200.06 160.79 199.984 160.013 199.966C157.643 199.89 151.69 199.022 151.292 192.022C151.235 190.947 152.392 190.23 153.302 190.796C154.932 191.815 157.833 193.362 159.198 192.777L157.852 190.003C157.605 189.475 157.833 188.852 158.383 188.645C158.8 188.475 159.274 188.607 159.558 188.947L161.833 191.833C162.383 192.532 163.16 193.06 164.013 193.305L170.383 195.117" fill="#FDBAB3"/>
<path d="M220.795 211.513L197.722 210.947C196.66 210.928 195.598 210.777 194.556 210.532L161.871 201.041L163.672 192.38L196.262 198.984C197.76 199.211 199.276 199.173 200.755 198.852L223.525 192.833L225.212 195.097L225.989 207.041L220.795 211.513Z" fill="#585A5E"/>
<path d="M222.558 183.21H231.734V199.531H222.558V183.21Z" fill="#FDBAB3"/>
<path d="M215.903 180.701C214.861 187.569 219.752 191.814 224.53 191.814C229.307 191.814 233.232 186.946 233.232 180.701C233.232 174.456 229.345 169.399 224.567 169.399C219.79 169.399 216.832 174.531 215.903 180.701Z" fill="#FDBAB3"/>
<path d="M220.378 168.814C224.245 165.72 227.544 168.512 227.544 168.512C233.232 166.946 234.142 173.173 234.142 173.173C240.645 173.003 231.734 188.739 231.734 188.739L231.127 186.645C230.824 185.569 230.862 184.399 231.317 183.38C232.189 181.399 232.398 178.965 230.331 178.644C228.53 178.361 227.582 181.041 227.222 182.343C227.127 182.72 226.748 182.928 226.369 182.852C226.009 182.758 225.781 182.418 225.838 182.06L226.634 176.833C224.075 177.607 219.013 176.663 217.913 176.267C217.913 176.267 213.23 174.833 214.027 169.908C214.027 169.908 214.633 171.154 217.193 171.248C217.193 171.248 215.088 170.776 215.354 167.776C215.335 167.757 218.122 170.625 220.378 168.814Z" fill="#414143"/>
<path d="M214.842 223.475V256.4C224.966 261.211 234.218 257.645 234.199 257.721L233.706 202.248L231.696 192.757L224.511 197.531L219.998 193.776L217.098 196.305L216.491 209.248C216.529 209.267 214.842 223.173 214.842 223.475Z" fill="#E5E5E5"/>
<path d="M246.124 260.004C246.408 261.23 246.143 262.495 244.91 262.815C244.91 262.815 221.401 265.608 224.131 237.098L225.44 208.211C225.44 202.89 227.127 197.324 231.051 193.701L231.696 192.739L236.568 194.777C241.915 197.361 245.195 202.89 244.872 208.814L244.816 219.871C244.379 229.003 245.498 257.306 246.124 260.004ZM222.539 193.097L220.017 193.777C216.112 194.909 213.003 198.003 213.003 201.965V208.758C213.003 212.871 212.737 216.984 212.187 221.079L205.4 253.23C205.211 254.664 205.874 255.23 207.542 256.211L217.515 260.362C218.577 260.608 219.43 259.513 218.918 258.551C217.041 255.061 216.245 247.513 216.624 243.57L218.861 220.588C219.069 218.55 219.183 216.513 219.221 214.456L222.539 193.097Z" fill="#585A5E"/>
<path d="M222.539 193.097L221.61 199.192L227.07 199.682L231.715 192.758L224.53 197.531L222.539 193.097Z" fill="#C6C7CD"/>
<path d="M224.53 197.531L225.667 198.909L225.25 200.626L225.667 204.116C226.843 213.852 232.473 222.494 240.91 227.569L242.446 228.494C247.091 231.286 250.92 235.23 253.575 239.947L256.854 245.796L254.428 250.249L249.461 248.23L245.498 241.117C243.716 237.909 241.308 235.079 238.427 232.796L235.431 230.419C227.829 224.4 223.411 215.267 223.392 205.588L223.373 200.758L223.203 198.777L224.53 197.531Z" fill="#E25651"/>
<path d="M194.385 191.154L188.565 231.154C188.356 232.588 187.314 233.739 185.911 234.098C180.906 235.381 175.881 236.004 170.838 235.985C165.833 235.985 160.828 235.343 155.785 234.079C154.382 233.739 153.302 232.57 153.093 231.136L147.273 191.154H194.385H194.385Z" fill="#FABC3F"/>
<path d="M170.819 191.154V235.985C165.814 235.985 160.809 235.343 155.766 234.079C154.363 233.739 153.282 232.57 153.074 231.136L147.254 191.154H170.819Z" fill="#F4B037"/>
<path d="M170.819 198.022C156.925 198.022 145.661 194.947 145.661 191.154C145.661 187.361 156.925 184.286 170.819 184.286C184.714 184.286 195.978 187.361 195.978 191.154C195.978 194.947 184.714 198.022 170.819 198.022Z" fill="#EAA22F"/>
<path d="M147.272 191.154C147.272 191.946 148.922 193.022 151.936 194.022C155.975 195.324 162.477 196.456 170.838 196.456C179.256 196.456 185.778 195.324 189.797 193.984C192.755 193.022 194.385 191.946 194.385 191.154C194.385 190.776 194.006 190.324 193.286 189.852C190.48 188.04 182.441 185.871 170.838 185.871C159.217 185.871 151.178 188.022 148.372 189.852C147.652 190.324 147.272 190.776 147.272 191.154Z" fill="#E0E0E0"/>
<path d="M151.936 100.841H164.658V192.654H151.936V100.841Z" fill="#4CA7B6"/>
<path d="M86.2486 15.1909H97.6808V37.4177H86.2486V15.1909Z" fill="#2A84B5"/>
<path d="M168.241 103.19H147.595C146.912 103.19 146.362 102.643 146.362 101.964V94.3787C146.362 89.7748 142.609 86.0389 137.983 86.0389H50.0516V63.0385H137.983C155.368 63.0385 169.473 77.0765 169.473 94.3787V101.964C169.473 102.643 168.923 103.19 168.241 103.19ZM105.601 61.8121H78.357L81.9971 29.9437C82.0539 29.3588 82.5658 28.9248 83.1346 28.9248H100.804C101.392 28.9248 101.885 29.3588 101.942 29.9437L105.601 61.8121Z" fill="#528B9D"/>
<path d="M107.535 92.7749H76.4236C74.5846 92.7749 73.0868 91.2843 73.0868 89.4541V60.9065C73.0868 59.0763 74.5846 57.5857 76.4236 57.5857H107.535C109.374 57.5857 110.872 59.0763 110.872 60.9065V89.4541C110.853 91.2843 109.374 92.7749 107.535 92.7749ZM105.089 48.246H78.8503C77.7887 48.246 76.9355 47.3969 76.9355 46.3402C76.9355 45.2836 77.7887 44.4346 78.8503 44.4346H105.089C106.151 44.4346 107.004 45.2836 107.004 46.3402C107.004 47.3969 106.151 48.246 105.089 48.246Z" fill="#03A3BC"/>
<path d="M56.2188 7.30664H124.869V16.8917H56.2188V7.30664Z" fill="#9AD6DC"/>
<path d="M91.9704 24.2268C85.2483 24.2268 79.7989 18.8034 79.7989 12.1134C79.7989 5.42335 85.2483 0 91.9704 0C98.6926 0 104.142 5.42335 104.142 12.1134C104.142 18.8034 98.6926 24.2268 91.9704 24.2268Z" fill="#03A3BC"/>
<path d="M128.427 21.8682C123.014 21.8682 118.626 17.5008 118.626 12.1133C118.626 6.72581 123.014 2.3584 128.427 2.3584C133.841 2.3584 138.229 6.72581 138.229 12.1133C138.229 17.5008 133.841 21.8682 128.427 21.8682Z" fill="#03A3BC"/>
<path d="M55.5104 21.8682C50.097 21.8682 45.7086 17.5008 45.7086 12.1133C45.7086 6.72581 50.097 2.3584 55.5104 2.3584C60.9237 2.3584 65.3121 6.72581 65.3121 12.1133C65.3121 17.5008 60.9237 21.8682 55.5104 21.8682Z" fill="#03A3BC"/>
<path d="M60.4973 98.0766H-6.48499e-05V54.208H60.4973C61.3125 54.208 61.9761 54.8684 61.9761 55.6797V96.586C61.9761 97.4162 61.3125 98.0766 60.4973 98.0766Z" fill="#303F48"/>
<path d="M182.365 222.362L175.237 221.871C174.459 221.815 173.682 221.833 172.905 221.909C170.554 222.117 164.544 221.947 163.293 215.041C163.103 213.984 164.165 213.135 165.151 213.588C166.895 214.399 169.947 215.607 171.255 214.871L169.587 212.267C169.284 211.777 169.435 211.135 169.947 210.852C170.345 210.626 170.838 210.701 171.161 211.022L173.758 213.626C174.384 214.267 175.218 214.682 176.109 214.833L182.65 215.89" fill="#FDBAB3"/>
<path d="M175.578 222.796C175.578 222.796 212.472 226.758 213.742 226.551C228.037 224.098 241.043 218.267 241.043 218.267L238.237 207.286L232.132 203.965L211.391 214.494C210.614 215.003 175.18 213.23 175.18 213.23L175.578 222.796Z" fill="#585A5E"/>
<path d="M181.948 365.647C181.758 365.647 181.55 365.609 181.341 365.515C180.45 365.119 180.014 363.93 180.336 362.855C198.783 303.212 196.774 251.079 174.232 203.475C173.758 202.494 174.042 201.23 174.857 200.663C175.673 200.097 176.715 200.437 177.189 201.437C188.28 224.834 194.575 249.891 195.883 275.872C197.286 303.495 193.134 333.25 183.522 364.308C183.294 365.138 182.63 365.647 181.948 365.647V365.647ZM152.903 372.345C152.069 372.345 151.348 371.609 151.216 370.572C141.319 288.155 143.86 239.758 158.989 222.569C159.671 221.796 160.752 221.834 161.397 222.664C162.041 223.494 162.003 224.796 161.321 225.588C147.253 241.551 144.997 290.137 154.59 369.987C154.723 371.119 154.079 372.157 153.15 372.326C153.074 372.345 152.979 372.345 152.903 372.345V372.345Z" fill="#4CA7B6"/>
<path d="M137.414 363.628C136.58 363.628 135.859 362.893 135.726 361.855C124.484 268.344 130.873 221.155 155.804 213.362C156.714 213.079 157.643 213.739 157.889 214.852C158.117 215.966 157.567 217.079 156.657 217.362C134.058 224.419 128.333 271.495 139.12 361.251C139.253 362.383 138.608 363.421 137.679 363.591C137.584 363.628 137.509 363.628 137.414 363.628V363.628ZM167.217 365.647C167.122 365.647 167.027 365.629 166.914 365.61C165.985 365.421 165.359 364.345 165.53 363.213C171.824 319.892 171.824 273.929 165.53 226.607C165.378 225.475 166.004 224.419 166.952 224.249C167.881 224.079 168.753 224.834 168.904 225.966C175.256 273.74 175.256 320.156 168.904 363.93C168.753 364.93 168.032 365.647 167.217 365.647Z" fill="#4CA7B6"/>
</svg>
