<svg width="414" height="229" viewBox="0 0 414 229" fill="none" xmlns="http://www.w3.org/2000/svg">
<path d="M63.26 159.198C63.26 159.198 55.3254 141.016 49.3939 134.339L43.8096 135.073L47.5608 131.747C47.5608 131.747 41.7174 121.737 40.163 119.374C38.3777 120.09 36.6462 120.933 34.9817 121.897L38.391 117.909C38.391 117.909 30.3082 107.175 18.752 101.536C15.4722 111.228 15.1987 123.895 15.6339 127.981L20.1592 128.453L15.9241 130.694C15.9241 130.694 17.3002 139.748 17.3655 141.789L21.9944 141.381L17.6898 144.214C17.6898 144.214 24.0545 165.343 26.4793 170.688L32.4263 168.478L27.8295 172.185C27.8295 172.185 35.0004 189.063 40.3205 195.753C59.5865 200.727 71.8288 198.822 71.8288 198.822L63.26 159.198Z" fill="#87DDFD"/>
<path d="M57.486 188.733C57.486 188.733 49.1452 170.398 40.5506 150.614C32.2875 131.593 23.8131 111.169 21.2546 107.697C23.6379 114.744 30.9062 129.702 37.5641 145.237C46.8271 166.845 55.7057 189.152 55.7057 189.152L57.486 188.733ZM27.8752 131.491C27.8752 131.491 20.5178 134.199 18.61 135.172C20.1582 135.231 27.8752 131.491 27.8752 131.491ZM33.8854 145.325C33.5331 145.283 24.7944 148.549 23.0431 150.251C25.4524 150.057 33.5331 145.283 33.5331 145.283L33.8854 145.325ZM38.8791 124.149C38.4895 123.966 34.7341 126.756 33.3372 128.155C34.4326 128.148 38.8791 124.149 38.8791 124.149Z" fill="#E4F1F2"/>
<path d="M64.3791 176.236C64.3791 176.236 50.0302 162.537 41.9785 158.673L37.1081 161.51L39.2842 156.991C39.2842 156.991 30.0253 150.02 27.6782 148.442C26.3078 149.793 25.0365 151.24 23.8742 152.774L25.4752 147.777C25.4752 147.777 12.921 141.083 0.0870361 140.35C3.37506 150.379 6.40298 162.266 8.38326 165.866L12.7459 164.557L9.70655 168.26C9.70655 168.26 14.4733 176.078 15.3261 177.936L19.4369 175.768L16.5624 180.047C16.5624 180.047 30.6025 197.069 34.904 201.063L39.535 196.724L36.7289 201.92C36.7289 201.92 49.8654 214.711 57.3575 218.819C77.0463 215.956 82.184 214.059 82.184 214.059L64.3791 176.236Z" fill="#19BDA3"/>
<path opacity="0.65" d="M31.8596 168.35C41.7682 177.388 54.0685 183.759 66.459 180.654L64.3792 176.236C64.3792 176.236 50.0303 162.537 41.9786 158.673L37.1082 161.51L39.2843 156.991C39.2843 156.991 30.0254 150.02 27.6783 148.442C26.3079 149.793 25.0366 151.24 23.8743 152.773L25.4753 147.777C25.4753 147.777 13.2371 141.256 0.575195 140.385C13.09 146.358 21.2753 158.769 31.8596 168.35Z" fill="#29879C"/>
<path d="M70.4743 205.707C70.4743 205.707 55.6932 192.022 40.1173 177.101C25.1425 162.756 9.42982 147.198 5.72729 144.986C10.6484 150.557 23.1363 161.545 35.2843 173.297C52.1813 189.643 68.9955 206.782 68.9955 206.782L70.4743 205.707ZM21.0358 164.367C21.0358 164.367 15.295 169.709 13.9157 171.343C15.3655 170.804 21.0358 164.367 21.0358 164.367ZM31.9247 174.802C31.5817 174.906 24.787 181.291 23.8306 183.538C25.9777 182.428 31.5817 174.9 31.5817 174.9L31.9247 174.802ZM28.3424 153.341C27.9134 153.324 25.53 157.347 24.7798 159.18C25.7881 158.747 28.3424 153.341 28.3424 153.341Z" fill="#E4F1F2"/>
<path d="M46.2613 157.154C46.2613 157.154 42.9246 140.389 43.8334 132.744L48.1442 130.516L43.8541 130.009C43.8541 130.009 43.0603 120.055 42.9971 117.619C44.6125 117.245 46.2526 116.989 47.9048 116.852L43.5308 115.712C43.5308 115.712 44.4634 103.484 49.8519 93.8158C55.6259 100.84 62.8735 108.531 64.5781 111.639L61.6144 114.195L65.7117 113.695C65.7117 113.695 69.1946 120.775 70.1542 122.252L66.6786 124.246L71.1179 124.132C71.1179 124.132 77.0141 142.207 77.9312 147.181L72.636 148.544L77.7136 148.904C77.7136 148.904 80.9488 164.371 80.4794 171.719C69.3013 184.718 65.5501 187.574 65.5501 187.574L46.2613 157.154Z" fill="#29879C"/>
<path d="M64.8817 175.199C64.8817 175.199 61.7605 158.132 58.0973 139.906C54.5803 122.394 50.5223 103.773 50.6229 100.059C52.4021 106.211 54.6259 120.37 57.5657 134.635C61.6506 154.474 66.349 174.62 66.349 174.62L64.8817 175.199ZM57.6476 120.147C57.6476 120.147 64.1853 118.443 66.0091 118.189C64.9501 118.995 57.6476 120.147 57.6476 120.147ZM60.2061 132.886C60.4362 132.678 68.2215 130.691 70.2982 131.033C68.4992 132.082 60.4362 132.681 60.4362 132.681L60.2061 132.886ZM46.254 120.368C46.4395 120.046 50.4674 120.173 52.1461 120.471C51.3659 121.006 46.254 120.368 46.254 120.368Z" fill="#E4F1F2"/>
<path d="M364.656 118.259C364.656 118.259 370.801 104.176 375.396 99.0054L379.721 99.5733L376.82 96.9972C376.82 96.9972 381.346 89.2439 382.549 87.4139C383.933 87.9685 385.275 88.622 386.565 89.3693L383.925 86.2792C383.925 86.2792 390.188 77.9664 399.135 73.5986C401.676 81.1052 401.887 90.9165 401.55 94.0812L398.045 94.4459L401.325 96.1816C401.325 96.1816 400.26 103.194 400.209 104.775L396.624 104.464L399.958 106.658C399.958 106.658 395.028 123.024 393.15 127.163L388.544 125.451L392.105 128.322C392.105 128.322 386.55 141.395 382.43 146.577C367.508 150.429 358.027 148.954 358.027 148.954L364.656 118.259Z" fill="#87DDFD"/>
<path d="M369.128 141.137C369.128 141.137 375.588 126.941 382.245 111.614C388.644 96.8822 395.208 81.0618 397.19 78.3737C395.343 83.8285 389.714 95.4169 384.557 107.449C377.383 124.184 370.506 141.462 370.506 141.462L369.128 141.137ZM392.059 96.7993C392.059 96.7993 397.759 98.8967 399.234 99.65C398.038 99.6987 392.059 96.7993 392.059 96.7993ZM387.409 107.514C387.681 107.482 394.449 110.01 395.802 111.33C393.937 111.179 387.678 107.482 387.678 107.482L387.409 107.514ZM383.539 91.1124C383.841 90.9714 386.752 93.132 387.831 94.2211C386.983 94.2097 383.539 91.1124 383.539 91.1124Z" fill="#E4F1F2"/>
<path d="M363.788 131.456C363.788 131.456 374.902 120.844 381.138 117.852L384.906 120.05L383.223 116.549C383.223 116.549 390.395 111.15 392.213 109.927C393.275 110.974 394.259 112.095 395.16 113.283L393.916 109.412C393.916 109.412 403.64 104.231 413.58 103.66C411.033 111.432 408.688 120.634 407.155 123.423L403.781 122.405L406.136 125.273C406.136 125.273 402.441 131.328 401.783 132.768L398.599 131.089L400.826 134.405C400.826 134.405 389.945 147.589 386.619 150.681L383.033 147.321L385.209 151.345C385.209 151.345 375.031 161.254 369.228 164.438C353.978 162.221 350 160.751 350 160.751L363.788 131.456Z" fill="#19BDA3"/>
<path opacity="0.65" d="M388.975 125.347C381.302 132.347 371.774 137.281 362.178 134.88L363.788 131.461C363.788 131.461 374.902 120.85 381.138 117.857L384.906 120.055L383.223 116.554C383.223 116.554 390.395 111.156 392.213 109.933C393.275 110.979 394.259 112.1 395.16 113.288L393.916 109.418C393.916 109.418 403.395 104.367 413.202 103.692C403.516 108.314 397.173 117.925 388.975 125.347Z" fill="#29879C"/>
<path d="M359.068 154.281C359.068 154.281 370.517 143.681 382.584 132.122C394.182 121.011 406.352 108.962 409.216 107.252C405.404 111.567 395.732 120.078 386.323 129.18C373.237 141.84 360.209 155.113 360.209 155.113L359.068 154.281ZM397.358 122.262C397.358 122.262 401.804 126.4 402.873 127.665C401.755 127.252 397.358 122.262 397.358 122.262ZM388.925 130.345C389.191 130.42 394.453 135.37 395.195 137.11C393.532 136.25 389.191 130.42 389.191 130.42L388.925 130.345ZM391.703 113.722C392.036 113.709 393.879 116.831 394.462 118.244C393.678 117.91 391.703 113.722 391.703 113.722Z" fill="#E4F1F2"/>
<path d="M368.355 132.64C368.355 132.64 369.702 119.47 368.441 113.646L364.954 112.242L368.225 111.538C368.225 111.538 368.108 103.804 367.98 101.921C366.707 101.752 365.424 101.674 364.14 101.689L367.428 100.487C367.428 100.487 365.816 91.1309 360.949 84.0678C357.011 89.906 351.985 96.3671 350.897 98.8862L353.373 100.648L350.177 100.562C350.177 100.562 348.009 106.276 347.379 107.485L350.204 108.764L346.773 109C346.773 109 343.549 123.369 343.206 127.27L347.389 127.934L343.502 128.583C343.502 128.583 342.139 140.746 343.039 146.378C352.608 155.582 355.711 157.513 355.711 157.513L368.355 132.64Z" fill="#29879C"/>
<path d="M355.319 147.915C355.319 147.915 356.48 134.523 357.967 120.206C359.398 106.442 361.163 91.7911 360.814 88.9352C359.893 93.8056 359.214 104.893 357.994 116.103C356.296 131.698 354.147 147.576 354.147 147.576L355.319 147.915ZM356.868 104.938C356.868 104.938 351.702 104.099 350.276 104.041C351.153 104.584 356.868 104.938 356.868 104.938ZM355.825 114.947C355.633 114.807 349.484 113.842 347.908 114.257C349.372 114.935 355.633 114.807 355.633 114.807L355.825 114.947ZM365.669 104.274C365.502 104.041 362.406 104.432 361.133 104.792C361.774 105.141 365.669 104.274 365.669 104.274Z" fill="#E4F1F2"/>
<path d="M348.969 56.9253H144.642C139.401 56.9253 135.152 61.1741 135.152 66.4153V202.79C135.152 208.031 139.401 212.28 144.642 212.28H348.969C354.21 212.28 358.459 208.031 358.459 202.79V66.4153C358.459 61.1741 354.21 56.9253 348.969 56.9253Z" fill="#3E536F"/>
<path d="M152.753 196.11C151.476 196.114 150.211 195.861 149.034 195.366C147.857 194.871 146.791 194.144 145.901 193.229C144.335 191.619 143.459 189.463 143.456 187.218V73.4774C143.456 68.577 147.627 64.5905 152.753 64.5905H340.861C342.483 64.588 344.08 64.9962 345.501 65.777C348.37 67.3552 350.155 70.3065 350.155 73.4774V187.224C350.155 192.124 345.985 196.11 340.861 196.11H152.753Z" fill="#363636"/>
<path d="M347.329 73.4774V187.224C347.329 189.53 345.954 191.536 343.928 192.559C343.739 192.656 343.544 192.743 343.345 192.82C342.552 193.129 341.709 193.286 340.858 193.285H152.753C151.856 193.291 150.968 193.116 150.141 192.77C149.314 192.424 148.566 191.915 147.94 191.273C146.882 190.19 146.287 188.738 146.282 187.224V73.4774C146.282 70.1303 149.184 67.4164 152.753 67.4164H340.861C342.005 67.4111 343.131 67.6963 344.135 68.2454C346.047 69.3024 347.329 71.2495 347.329 73.4774Z" fill="#87DDFD"/>
<path d="M378.157 206.939V207.369C378.156 207.992 378.04 208.609 377.815 209.19C377.272 210.626 376.097 211.951 374.437 213.089C370.867 215.545 365.055 217.142 358.495 217.142H127.705C121.144 217.142 115.332 215.545 111.762 213.089C109.422 211.482 108.041 209.506 108.041 207.369V206.939H378.157Z" fill="#232323"/>
<path d="M378.199 206.93V207.36C378.198 207.983 378.082 208.6 377.857 209.182C374.284 211.02 369.271 212.163 363.722 212.163H132.932C126.371 212.163 120.56 210.565 116.991 208.11C116.469 207.756 115.976 207.361 115.517 206.93H378.199Z" fill="#363636"/>
<path d="M144.104 212.207C144.104 212.769 143.937 213.318 143.625 213.786C143.313 214.253 142.869 214.618 142.349 214.833C141.83 215.048 141.258 215.104 140.707 214.994C140.155 214.885 139.649 214.614 139.251 214.216C138.854 213.818 138.583 213.312 138.474 212.76C138.364 212.209 138.42 211.637 138.636 211.118C138.851 210.599 139.216 210.155 139.683 209.843C140.151 209.53 140.7 209.364 141.263 209.364C141.636 209.364 142.005 209.438 142.35 209.58C142.695 209.723 143.008 209.933 143.272 210.197C143.536 210.461 143.745 210.774 143.888 211.119C144.031 211.464 144.104 211.833 144.104 212.207ZM154.144 212.207C154.144 212.769 153.978 213.318 153.665 213.786C153.353 214.253 152.909 214.617 152.39 214.833C151.87 215.048 151.299 215.104 150.747 214.994C150.196 214.885 149.689 214.614 149.292 214.216C148.894 213.819 148.624 213.312 148.514 212.761C148.404 212.21 148.461 211.638 148.676 211.119C148.891 210.599 149.255 210.155 149.723 209.843C150.19 209.531 150.74 209.364 151.302 209.364C152.056 209.364 152.779 209.664 153.312 210.197C153.845 210.73 154.144 211.453 154.144 212.207Z" fill="#0053BD"/>
<path d="M227.099 206.877V207.075C227.099 208.629 228.142 209.894 229.428 209.894H262.891C264.177 209.894 265.219 208.633 265.219 207.075V206.877H227.099Z" fill="#00469F"/>
<path d="M347.329 73.8847V81.0483H146.282V73.8847C146.284 72.1692 146.966 70.5244 148.179 69.3113C149.392 68.0982 151.037 67.416 152.753 67.4144H340.861C342.576 67.4166 344.221 68.099 345.433 69.312C346.646 70.525 347.328 72.1695 347.329 73.8847Z" fill="#597962"/>
<path d="M328.954 74.583C328.954 74.9216 328.853 75.2526 328.665 75.5341C328.477 75.8156 328.21 76.035 327.897 76.1646C327.584 76.2942 327.24 76.3281 326.908 76.262C326.576 76.196 326.271 76.0329 326.031 75.7935C325.792 75.5541 325.629 75.2491 325.563 74.917C325.497 74.5849 325.531 74.2407 325.66 73.9279C325.79 73.6151 326.009 73.3477 326.291 73.1596C326.572 72.9715 326.903 72.8711 327.242 72.8711C327.696 72.8711 328.131 73.0515 328.452 73.3725C328.773 73.6936 328.954 74.129 328.954 74.583Z" fill="#E94711"/>
<path d="M334.502 74.583C334.502 74.9216 334.401 75.2526 334.213 75.5341C334.025 75.8156 333.758 76.035 333.445 76.1646C333.132 76.2942 332.788 76.3281 332.456 76.262C332.124 76.196 331.819 76.0329 331.579 75.7935C331.34 75.5541 331.177 75.2491 331.111 74.917C331.045 74.5849 331.079 74.2407 331.208 73.9279C331.338 73.6151 331.557 73.3477 331.839 73.1596C332.12 72.9715 332.451 72.8711 332.79 72.8711C333.244 72.8711 333.679 73.0515 334 73.3725C334.321 73.6936 334.502 74.129 334.502 74.583Z" fill="#FF2F00"/>
<path d="M339.787 74.583C339.787 74.9216 339.686 75.2526 339.498 75.5341C339.31 75.8156 339.043 76.035 338.73 76.1646C338.417 76.2942 338.073 76.3281 337.741 76.262C337.409 76.196 337.104 76.0329 336.864 75.7935C336.625 75.5541 336.462 75.2491 336.396 74.917C336.33 74.5849 336.364 74.2407 336.493 73.9279C336.623 73.6151 336.842 73.3477 337.124 73.1596C337.405 72.9715 337.736 72.8711 338.075 72.8711C338.529 72.8711 338.964 73.0515 339.285 73.3725C339.606 73.6936 339.787 74.129 339.787 74.583Z" fill="#2CD6BB"/>
<path d="M316.249 92.8179H179.606C175.391 92.8179 171.974 96.2349 171.974 100.45V180.894C171.974 185.109 175.391 188.526 179.606 188.526H316.249C320.464 188.526 323.881 185.109 323.881 180.894V100.45C323.881 96.2349 320.464 92.8179 316.249 92.8179Z" fill="#1F2F44"/>
<path d="M273.109 113.035H222.124C220.794 113.035 219.715 114.114 219.715 115.445V166.429C219.715 167.76 220.794 168.838 222.124 168.838H273.109C274.44 168.838 275.518 167.76 275.518 166.429V115.445C275.518 114.114 274.44 113.035 273.109 113.035Z" fill="#33B5D2"/>
<path d="M270.159 118.395H225.075V163.479H270.159V118.395Z" fill="#A93C17"/>
<path d="M267.128 121.426H228.106V160.448H267.128V121.426Z" fill="#F17A5F"/>
<path d="M252.803 150.372C252.803 150.538 252.688 150.653 252.459 150.717C252.182 150.791 251.327 150.828 249.894 150.827C248.581 150.827 247.736 150.791 247.357 150.717C247.046 150.653 246.848 150.446 246.764 150.096C246.452 148.773 246.209 148.065 246.034 147.973C245.887 147.909 244.655 147.877 242.34 147.876C240.777 147.876 239.945 147.918 239.844 148C239.688 148.148 239.513 148.639 239.32 149.476C239.146 150.236 238.935 150.65 238.686 150.72C238.374 150.793 237.326 150.83 235.543 150.829C234.136 150.829 233.433 150.696 233.434 150.43C233.434 150.191 234.472 147.255 236.549 141.622C238.801 135.528 240.024 132.177 240.216 131.571C240.327 131.221 240.456 131.047 240.603 131.047C240.85 131.047 241.234 131.07 241.753 131.116C242.273 131.161 242.661 131.184 242.919 131.185C243.167 131.185 243.532 131.169 244.014 131.136C244.496 131.104 244.858 131.089 245.097 131.089C245.271 131.089 245.432 131.24 245.579 131.544C246.029 132.511 247.342 135.819 249.517 141.469C251.708 147.157 252.803 150.124 252.803 150.372ZM243.029 137.814C242.836 138.218 242.51 139.096 242.051 140.447C241.555 141.881 241.306 142.721 241.305 142.969C241.305 143.135 241.582 143.227 242.134 143.245C242.42 143.264 242.888 143.273 243.541 143.273C244.148 143.273 244.483 143.199 244.547 143.052C244.568 142.99 244.578 142.925 244.575 142.86C244.575 142.556 244.363 141.72 243.941 140.351C243.525 139.028 243.221 138.182 243.029 137.814ZM259.806 140.53C259.806 141.614 259.833 143.245 259.889 145.423C259.944 147.601 259.971 149.233 259.971 150.317C259.971 150.502 259.93 150.616 259.847 150.663C259.729 150.688 259.61 150.707 259.49 150.717C258.693 150.801 257.892 150.837 257.091 150.827C255.749 150.827 254.894 150.791 254.526 150.717C254.26 150.663 254.126 150.52 254.126 150.291C254.126 150.438 254.167 149.629 254.25 147.864C254.416 144.141 254.499 141.697 254.499 140.53C254.499 139.547 254.467 138.072 254.402 136.104C254.337 134.137 254.305 132.662 254.305 131.679C254.305 131.472 254.409 131.376 254.622 131.376C254.908 131.376 255.337 131.39 255.911 131.417C256.485 131.445 256.915 131.459 257.2 131.459C257.486 131.459 257.906 131.445 258.462 131.417C259.017 131.39 259.438 131.376 259.724 131.376C259.99 131.376 260.123 131.477 260.123 131.679C260.123 132.663 260.07 134.138 259.964 136.104C259.858 138.07 259.806 139.546 259.806 140.53Z" fill="#FDB4A2"/>
<path d="M228.552 102.213C228.14 102.213 227.745 102.376 227.453 102.668C227.162 102.959 226.998 103.355 226.998 103.767V113.034H230.107V103.767C230.107 103.355 229.943 102.959 229.651 102.668C229.36 102.376 228.964 102.213 228.552 102.213ZM238.085 102.213C237.672 102.213 237.277 102.376 236.986 102.668C236.694 102.959 236.53 103.355 236.53 103.767V113.034H239.639V103.767C239.639 103.355 239.475 102.959 239.184 102.668C238.892 102.376 238.497 102.213 238.085 102.213ZM247.617 102.213C247.205 102.213 246.81 102.376 246.518 102.668C246.227 102.959 246.063 103.355 246.063 103.767V113.034H249.172V103.767C249.172 103.355 249.008 102.959 248.716 102.668C248.425 102.376 248.029 102.213 247.617 102.213ZM257.149 102.213C256.736 102.213 256.341 102.376 256.049 102.668C255.758 102.959 255.594 103.355 255.594 103.767V113.034H258.703V103.767C258.703 103.355 258.539 102.959 258.248 102.668C257.956 102.376 257.561 102.213 257.149 102.213ZM266.681 102.213C266.269 102.213 265.873 102.376 265.582 102.668C265.29 102.959 265.127 103.355 265.127 103.767V113.034H268.235V103.767C268.235 103.355 268.072 102.959 267.78 102.668C267.489 102.376 267.093 102.213 266.681 102.213ZM266.681 179.661C267.093 179.661 267.489 179.497 267.78 179.206C268.072 178.914 268.235 178.519 268.235 178.107V168.838H265.127V178.107C265.127 178.519 265.29 178.914 265.582 179.206C265.873 179.497 266.269 179.661 266.681 179.661ZM257.149 179.661C257.561 179.661 257.956 179.497 258.248 179.206C258.539 178.914 258.703 178.519 258.703 178.107V168.838H255.594V178.107C255.594 178.519 255.758 178.914 256.049 179.206C256.341 179.497 256.736 179.661 257.149 179.661ZM247.617 179.661C248.029 179.661 248.425 179.497 248.716 179.206C249.008 178.914 249.172 178.519 249.172 178.107V168.838H246.063V178.107C246.063 178.519 246.227 178.914 246.518 179.206C246.81 179.497 247.205 179.661 247.617 179.661ZM238.085 179.661C238.497 179.661 238.892 179.497 239.184 179.206C239.475 178.914 239.639 178.519 239.639 178.107V168.838H236.53V178.107C236.53 178.519 236.694 178.914 236.986 179.206C237.277 179.497 237.672 179.661 238.085 179.661ZM228.552 179.661C228.964 179.661 229.36 179.497 229.651 179.206C229.943 178.914 230.107 178.519 230.107 178.107V168.838H226.998V178.107C226.998 178.519 227.162 178.914 227.453 179.206C227.745 179.497 228.14 179.661 228.552 179.661ZM286.341 121.872C286.341 121.46 286.177 121.065 285.886 120.773C285.594 120.482 285.199 120.318 284.786 120.318H275.518V123.427H284.785C284.99 123.427 285.192 123.387 285.381 123.309C285.569 123.231 285.741 123.116 285.885 122.972C286.03 122.828 286.144 122.656 286.222 122.467C286.301 122.279 286.341 122.077 286.341 121.872ZM286.341 131.404C286.341 130.992 286.177 130.596 285.886 130.305C285.594 130.013 285.199 129.849 284.786 129.849H275.518V132.958H284.785C284.99 132.958 285.192 132.918 285.381 132.84C285.569 132.762 285.741 132.648 285.885 132.503C286.03 132.359 286.144 132.188 286.222 131.999C286.301 131.81 286.341 131.608 286.341 131.404ZM286.341 140.936C286.341 140.524 286.177 140.129 285.886 139.837C285.594 139.546 285.199 139.382 284.786 139.382H275.518V142.491H284.785C284.99 142.491 285.192 142.451 285.381 142.373C285.569 142.295 285.741 142.18 285.885 142.036C286.03 141.891 286.144 141.72 286.222 141.531C286.301 141.343 286.341 141.141 286.341 140.936ZM286.341 150.469C286.341 150.057 286.177 149.661 285.886 149.37C285.594 149.078 285.199 148.914 284.786 148.914H275.518V152.023H284.785C284.99 152.023 285.192 151.983 285.381 151.905C285.569 151.827 285.741 151.713 285.885 151.568C286.03 151.424 286.144 151.252 286.222 151.064C286.301 150.875 286.341 150.673 286.341 150.469ZM286.341 159.997C286.341 159.585 286.177 159.189 285.886 158.898C285.594 158.606 285.199 158.443 284.786 158.443H275.518V161.551H284.785C284.99 161.552 285.192 161.511 285.381 161.433C285.569 161.355 285.741 161.241 285.885 161.097C286.03 160.952 286.144 160.781 286.222 160.592C286.301 160.404 286.341 160.201 286.341 159.997ZM208.892 159.997C208.892 160.409 209.056 160.805 209.348 161.096C209.639 161.388 210.035 161.551 210.447 161.551H219.714V158.443H210.447C210.035 158.443 209.639 158.606 209.348 158.898C209.056 159.189 208.892 159.585 208.892 159.997ZM208.892 150.469C208.892 150.673 208.933 150.875 209.011 151.064C209.089 151.252 209.203 151.424 209.348 151.568C209.492 151.712 209.663 151.827 209.852 151.905C210.041 151.983 210.243 152.023 210.447 152.023H219.714V148.914H210.447C210.035 148.914 209.639 149.078 209.348 149.37C209.056 149.661 208.892 150.057 208.892 150.469ZM208.892 140.936C208.892 141.349 209.056 141.744 209.348 142.035C209.639 142.327 210.035 142.491 210.447 142.491H219.714V139.382H210.447C210.035 139.382 209.639 139.546 209.348 139.837C209.056 140.129 208.892 140.524 208.892 140.936ZM208.892 131.404C208.892 131.816 209.056 132.211 209.348 132.503C209.639 132.794 210.035 132.958 210.447 132.958H219.714V129.849H210.447C210.035 129.849 209.639 130.013 209.348 130.305C209.056 130.596 208.892 130.992 208.892 131.404ZM208.892 121.872C208.892 122.285 209.056 122.68 209.348 122.972C209.639 123.263 210.035 123.427 210.447 123.427H219.714V120.318H210.447C210.035 120.318 209.639 120.482 209.348 120.773C209.056 121.065 208.892 121.46 208.892 121.872Z" fill="#1964C3"/>
<path d="M258.704 110.793H255.593V113.034H258.704V110.793Z" fill="#0F56AF"/>
<path d="M249.172 110.793H246.061V113.034H249.172V110.793Z" fill="#0F56AF"/>
<path d="M230.108 110.793H226.997V113.034H230.108V110.793Z" fill="#0F56AF"/>
<path d="M239.64 110.793H236.529V113.034H239.64V110.793Z" fill="#0F56AF"/>
<path d="M277.76 120.317H275.518V123.428H277.76V120.317Z" fill="#0F56AF"/>
<path d="M277.76 158.445H275.518V161.556H277.76V158.445Z" fill="#0F56AF"/>
<path d="M277.76 129.848H275.518V132.959H277.76V129.848Z" fill="#0F56AF"/>
<path d="M277.76 139.381H275.518V142.492H277.76V139.381Z" fill="#0F56AF"/>
<path d="M277.76 148.913H275.518V152.024H277.76V148.913Z" fill="#0F56AF"/>
<path d="M230.108 168.837H226.997V171.079H230.108V168.837Z" fill="#0F56AF"/>
<path d="M219.715 139.381H217.474V142.492H219.715V139.381Z" fill="#0F56AF"/>
<path d="M219.715 129.848H217.474V132.959H219.715V129.848Z" fill="#0F56AF"/>
<path d="M219.715 120.317H217.474V123.428H219.715V120.317Z" fill="#0F56AF"/>
<path d="M219.715 148.913H217.474V152.024H219.715V148.913Z" fill="#0F56AF"/>
<path d="M219.715 158.445H217.474V161.556H219.715V158.445Z" fill="#0F56AF"/>
<path d="M268.237 110.793H265.126V113.034H268.237V110.793Z" fill="#0F56AF"/>
<path d="M249.172 168.837H246.061V171.079H249.172V168.837Z" fill="#0F56AF"/>
<path d="M258.704 168.837H255.593V171.079H258.704V168.837Z" fill="#0F56AF"/>
<path d="M239.64 168.837H236.529V171.079H239.64V168.837Z" fill="#0F56AF"/>
<path d="M268.237 168.837H265.126V171.079H268.237V168.837Z" fill="#0F56AF"/>
<path d="M317.255 115.236H304.279C304.23 115.236 304.182 115.248 304.138 115.27C304.094 115.293 304.056 115.325 304.026 115.365L297.104 124.768H288.128C288.045 124.768 287.965 124.801 287.906 124.86C287.847 124.919 287.814 124.999 287.814 125.082C287.814 125.166 287.847 125.246 287.906 125.305C287.965 125.363 288.045 125.397 288.128 125.397H306.994C307.078 125.397 307.158 125.363 307.217 125.305C307.276 125.246 307.309 125.166 307.309 125.082C307.309 124.999 307.276 124.919 307.217 124.86C307.158 124.801 307.078 124.768 306.994 124.768H297.885L304.438 115.865H317.255C317.339 115.865 317.419 115.832 317.478 115.773C317.537 115.714 317.57 115.634 317.57 115.551C317.57 115.467 317.537 115.387 317.478 115.328C317.419 115.269 317.339 115.236 317.255 115.236ZM312.025 135.327C312.109 135.327 312.189 135.294 312.248 135.235C312.307 135.176 312.34 135.096 312.34 135.013C312.34 134.929 312.307 134.849 312.248 134.79C312.189 134.731 312.109 134.698 312.025 134.698H288.128C288.045 134.698 287.965 134.731 287.906 134.79C287.847 134.849 287.814 134.929 287.814 135.013C287.814 135.096 287.847 135.176 287.906 135.235C287.965 135.294 288.045 135.327 288.128 135.327H312.025ZM314.275 150.849H302.738L299.124 144.715C299.097 144.668 299.057 144.628 299.01 144.601C298.963 144.573 298.909 144.558 298.855 144.557H286.938C286.854 144.557 286.774 144.59 286.715 144.649C286.656 144.708 286.623 144.788 286.623 144.871C286.623 144.955 286.656 145.035 286.715 145.094C286.774 145.153 286.854 145.186 286.938 145.186H298.674L302.289 151.319C302.317 151.367 302.356 151.405 302.404 151.433C302.452 151.46 302.505 151.474 302.56 151.474H314.276C314.359 151.474 314.439 151.441 314.498 151.382C314.557 151.323 314.59 151.243 314.59 151.159C314.59 151.076 314.557 150.996 314.498 150.937C314.439 150.878 314.359 150.845 314.276 150.845L314.275 150.849ZM308.388 158.926H290.777C290.694 158.926 290.614 158.959 290.555 159.018C290.496 159.076 290.463 159.156 290.463 159.24C290.463 159.323 290.496 159.403 290.555 159.462C290.614 159.52 290.694 159.554 290.777 159.554H308.388C308.471 159.554 308.551 159.52 308.61 159.462C308.669 159.403 308.702 159.323 308.702 159.24C308.702 159.156 308.669 159.076 308.61 159.018C308.551 158.959 308.471 158.926 308.388 158.926ZM206.11 126.1C206.133 126.104 206.156 126.103 206.178 126.097C206.2 126.09 206.22 126.08 206.238 126.065C206.255 126.05 206.269 126.032 206.279 126.011C206.288 125.99 206.293 125.968 206.293 125.945C206.293 125.922 206.288 125.899 206.279 125.879C206.269 125.858 206.255 125.84 206.238 125.825C206.22 125.81 206.2 125.799 206.178 125.793C206.156 125.787 206.133 125.786 206.11 125.789H193.891L190.758 120.242C190.744 120.218 190.725 120.198 190.701 120.184C190.677 120.17 190.65 120.163 190.622 120.163H185.062C185.039 120.159 185.016 120.16 184.994 120.166C184.972 120.172 184.952 120.183 184.934 120.198C184.917 120.213 184.903 120.231 184.893 120.252C184.884 120.273 184.879 120.295 184.879 120.318C184.879 120.341 184.884 120.363 184.893 120.384C184.903 120.405 184.917 120.423 184.934 120.438C184.952 120.453 184.972 120.464 184.994 120.47C185.016 120.476 185.039 120.477 185.062 120.473H190.53L193.535 125.786H179.554L176.32 123.299C176.287 123.274 176.245 123.263 176.204 123.269C176.162 123.274 176.125 123.295 176.099 123.328C176.087 123.345 176.078 123.363 176.072 123.383C176.067 123.403 176.066 123.424 176.069 123.444C176.071 123.465 176.078 123.484 176.089 123.502C176.099 123.52 176.113 123.536 176.129 123.548L179.406 126.067C179.433 126.088 179.467 126.099 179.501 126.099L206.11 126.1ZM206.11 137.006H186.386C186.364 137.002 186.34 137.003 186.318 137.009C186.296 137.016 186.276 137.026 186.259 137.041C186.241 137.056 186.227 137.074 186.218 137.095C186.208 137.116 186.203 137.138 186.203 137.161C186.203 137.184 186.208 137.207 186.218 137.227C186.227 137.248 186.241 137.266 186.259 137.281C186.276 137.296 186.296 137.307 186.318 137.313C186.34 137.319 186.364 137.32 186.386 137.317H206.11C206.133 137.32 206.156 137.319 206.178 137.313C206.2 137.307 206.22 137.296 206.238 137.281C206.255 137.266 206.269 137.248 206.279 137.227C206.288 137.207 206.293 137.184 206.293 137.161C206.293 137.138 206.288 137.116 206.279 137.095C206.269 137.074 206.255 137.056 206.238 137.041C206.22 137.026 206.2 137.016 206.178 137.009C206.156 137.003 206.133 137.002 206.11 137.006ZM206.11 149.053H191.333C191.313 149.053 191.292 149.057 191.273 149.065C191.254 149.073 191.237 149.085 191.222 149.099C191.208 149.114 191.196 149.131 191.188 149.151C191.18 149.17 191.177 149.19 191.177 149.211V155.11H182.661C182.638 155.106 182.615 155.108 182.593 155.114C182.571 155.12 182.551 155.131 182.533 155.145C182.516 155.16 182.502 155.179 182.492 155.199C182.483 155.22 182.478 155.243 182.478 155.266C182.478 155.288 182.483 155.311 182.492 155.332C182.502 155.352 182.516 155.371 182.533 155.386C182.551 155.4 182.571 155.411 182.593 155.417C182.615 155.423 182.638 155.425 182.661 155.421H191.333C191.354 155.421 191.374 155.417 191.393 155.409C191.412 155.402 191.43 155.39 191.444 155.375C191.459 155.361 191.471 155.344 191.479 155.325C191.487 155.306 191.491 155.285 191.491 155.264V149.365H206.11C206.147 149.359 206.18 149.34 206.205 149.312C206.229 149.283 206.242 149.247 206.242 149.21C206.242 149.172 206.229 149.136 206.205 149.108C206.18 149.079 206.147 149.06 206.11 149.054V149.053ZM204.723 163.321H189.841C189.818 163.318 189.795 163.319 189.773 163.325C189.751 163.331 189.731 163.342 189.714 163.357C189.696 163.371 189.682 163.39 189.673 163.411C189.663 163.431 189.658 163.454 189.658 163.477C189.658 163.5 189.663 163.522 189.673 163.543C189.682 163.564 189.696 163.582 189.714 163.597C189.731 163.612 189.751 163.622 189.773 163.629C189.795 163.635 189.818 163.636 189.841 163.632H204.718C204.755 163.626 204.789 163.607 204.813 163.579C204.837 163.55 204.85 163.514 204.85 163.477C204.85 163.439 204.837 163.403 204.813 163.375C204.789 163.346 204.755 163.327 204.718 163.321H204.723Z" fill="#5F8FCB"/>
<path d="M320.366 115.55C320.367 115.852 320.277 116.146 320.11 116.397C319.943 116.647 319.705 116.843 319.427 116.958C319.148 117.074 318.842 117.104 318.547 117.045C318.251 116.987 317.979 116.842 317.766 116.629C317.553 116.416 317.408 116.144 317.349 115.849C317.29 115.553 317.32 115.247 317.436 114.969C317.551 114.69 317.746 114.452 317.997 114.285C318.247 114.117 318.542 114.028 318.843 114.028C319.043 114.028 319.241 114.067 319.426 114.144C319.611 114.22 319.779 114.332 319.92 114.474C320.062 114.615 320.174 114.783 320.25 114.967C320.327 115.152 320.366 115.35 320.366 115.55ZM310.039 125.083C310.039 125.384 309.95 125.678 309.783 125.928C309.615 126.179 309.378 126.374 309.099 126.489C308.821 126.604 308.515 126.634 308.22 126.576C307.925 126.517 307.653 126.372 307.44 126.159C307.228 125.946 307.083 125.675 307.024 125.38C306.965 125.084 306.995 124.778 307.111 124.5C307.226 124.222 307.421 123.984 307.671 123.817C307.921 123.65 308.216 123.56 308.517 123.56C308.717 123.56 308.915 123.6 309.099 123.676C309.284 123.753 309.452 123.865 309.593 124.006C309.735 124.148 309.847 124.316 309.923 124.5C310 124.685 310.039 124.883 310.039 125.083ZM315.07 134.979C315.07 135.28 314.981 135.574 314.814 135.825C314.646 136.075 314.409 136.27 314.13 136.385C313.852 136.501 313.546 136.531 313.251 136.472C312.956 136.413 312.684 136.268 312.471 136.055C312.259 135.842 312.114 135.571 312.055 135.276C311.996 134.981 312.026 134.675 312.142 134.396C312.257 134.118 312.452 133.88 312.702 133.713C312.952 133.546 313.247 133.457 313.548 133.457C313.748 133.457 313.946 133.496 314.13 133.573C314.315 133.649 314.483 133.761 314.624 133.903C314.766 134.044 314.878 134.212 314.954 134.396C315.031 134.581 315.07 134.779 315.07 134.979Z" fill="#FF5A35"/>
<path d="M310.099 160.738C310.934 160.635 311.527 159.875 311.424 159.041C311.321 158.207 310.562 157.614 309.727 157.716C308.893 157.819 308.3 158.579 308.402 159.413C308.505 160.248 309.265 160.841 310.099 160.738Z" fill="#FF5A35"/>
<path d="M317.321 151.164C317.321 151.465 317.231 151.759 317.064 152.01C316.896 152.26 316.659 152.455 316.38 152.57C316.102 152.685 315.796 152.715 315.501 152.656C315.206 152.597 314.935 152.452 314.722 152.239C314.509 152.026 314.364 151.755 314.305 151.46C314.247 151.164 314.277 150.858 314.392 150.58C314.508 150.302 314.703 150.065 314.953 149.897C315.203 149.73 315.498 149.641 315.799 149.641C315.999 149.641 316.197 149.68 316.381 149.757C316.566 149.833 316.734 149.946 316.875 150.087C317.017 150.229 317.129 150.397 317.205 150.581C317.282 150.766 317.321 150.964 317.321 151.164Z" fill="#FF5A35"/>
<path d="M176.638 122.381C176.638 122.682 176.549 122.977 176.382 123.228C176.215 123.478 175.977 123.674 175.698 123.789C175.42 123.905 175.114 123.935 174.818 123.876C174.523 123.818 174.251 123.673 174.038 123.46C173.825 123.247 173.68 122.975 173.621 122.68C173.562 122.384 173.592 122.078 173.707 121.799C173.823 121.521 174.018 121.283 174.268 121.116C174.519 120.948 174.814 120.859 175.115 120.859C175.519 120.859 175.906 121.019 176.192 121.305C176.477 121.59 176.638 121.977 176.638 122.381ZM185.062 120.317C185.062 120.618 184.972 120.912 184.805 121.162C184.637 121.413 184.4 121.608 184.121 121.723C183.843 121.838 183.537 121.868 183.242 121.809C182.947 121.75 182.676 121.605 182.463 121.392C182.25 121.179 182.105 120.908 182.046 120.613C181.988 120.317 182.018 120.011 182.133 119.733C182.249 119.455 182.444 119.217 182.694 119.05C182.944 118.883 183.239 118.794 183.54 118.794C183.74 118.794 183.938 118.833 184.122 118.91C184.307 118.986 184.475 119.098 184.616 119.24C184.758 119.381 184.87 119.549 184.946 119.734C185.023 119.919 185.062 120.117 185.062 120.317ZM182.662 155.268C182.662 155.569 182.573 155.864 182.406 156.114C182.238 156.365 182 156.56 181.722 156.676C181.444 156.791 181.137 156.821 180.842 156.763C180.546 156.704 180.275 156.559 180.061 156.346C179.848 156.133 179.703 155.861 179.645 155.566C179.586 155.27 179.616 154.964 179.731 154.685C179.847 154.407 180.042 154.169 180.293 154.002C180.544 153.834 180.838 153.745 181.14 153.745C181.543 153.745 181.931 153.906 182.216 154.191C182.501 154.477 182.662 154.864 182.662 155.268ZM189.841 163.478C189.841 163.779 189.752 164.073 189.584 164.324C189.417 164.574 189.179 164.769 188.901 164.884C188.623 164.999 188.317 165.03 188.022 164.971C187.726 164.912 187.455 164.767 187.242 164.554C187.029 164.341 186.884 164.07 186.826 163.775C186.767 163.48 186.797 163.173 186.912 162.895C187.028 162.617 187.223 162.379 187.473 162.212C187.723 162.045 188.018 161.956 188.319 161.956C188.722 161.956 189.11 162.116 189.395 162.401C189.681 162.687 189.841 163.074 189.841 163.478Z" fill="#FF6A49"/>
<path d="M185.029 138.686C185.87 138.686 186.551 138.004 186.551 137.163C186.551 136.323 185.87 135.641 185.029 135.641C184.188 135.641 183.507 136.323 183.507 137.163C183.507 138.004 184.188 138.686 185.029 138.686Z" fill="#FF6A49"/>
<path d="M231.75 152.634V155.198H263.716V152.774L231.75 152.634Z" fill="#FDB4A2"/>
<path d="M231.75 127.284V129.848H263.716V127.424L231.75 127.284Z" fill="#FDB4A2"/>
<path d="M316.264 138.001L316.269 138.032C316.834 141.816 318.236 145.427 320.371 148.601L326.239 147.69C324.061 144.533 322.634 140.921 322.067 137.129L322.061 137.098L316.264 138.001Z" fill="#FF6948"/>
<path d="M316.007 132.676L321.824 131.772C321.924 130.069 322.198 128.38 322.642 126.732L316.786 127.643C316.36 129.291 316.099 130.977 316.007 132.676Z" fill="#F55823"/>
<path d="M285.548 26.5332L284.534 26.1021L284.749 25.5944L285.428 25.8824L285.959 25.3705L286.341 25.7674L285.548 26.5332Z" fill="#BC4E29"/>
<path d="M287.777 24.3809L287.395 23.984L288.831 22.5975L289.215 22.9954L287.777 24.3809ZM290.65 21.6089L290.268 21.211L291.705 19.8245L292.088 20.2224L290.65 21.6089ZM293.523 18.8359L293.14 18.438L294.576 17.0525L294.96 17.4494L293.523 18.8359ZM296.396 16.0619L296.012 15.665L297.449 14.2785L297.832 14.6754L296.396 16.0619ZM299.269 13.2899L298.886 12.893L300.321 11.5024L300.705 11.8993L299.269 13.2899Z" fill="#BC4E29"/>
<path d="M302.14 10.517L301.757 10.1201L302.119 9.76983L301.656 9.57294L301.872 9.06517L303.102 9.58848L302.14 10.517Z" fill="#BC4E29"/>
<path d="M299.819 8.79151L297.982 8.01018L298.199 7.50138L300.035 8.28375L299.819 8.79151ZM296.145 7.22781L294.308 6.44648L294.524 5.93871L296.361 6.72004L296.145 7.22781ZM292.471 5.66411L290.635 4.88278L290.851 4.37501L292.688 5.15635L292.471 5.66411ZM288.803 4.10144L286.96 3.31597L287.177 2.8082L289.014 3.59057L288.803 4.10144ZM285.129 2.53774L283.287 1.76159L283.504 1.25383L285.34 2.03516L285.129 2.53774Z" fill="#BC4E29"/>
<path d="M280.241 1.19789L279.858 0.801008L280.652 0.0352173L281.666 0.466298L281.451 0.97406L280.772 0.685983L280.241 1.19789Z" fill="#BC4E29"/>
<path d="M265.879 15.0619L265.496 14.6651L266.932 13.2786L267.315 13.6754L265.879 15.0619ZM268.752 12.29L268.368 11.892L269.805 10.5055L270.188 10.9035L268.752 12.29ZM271.624 9.51696L271.241 9.11904L272.677 7.73254L273.06 8.13046L271.624 9.51696ZM274.497 6.74396L274.113 6.34603L275.549 4.96057L275.933 5.35745L274.497 6.74396ZM277.369 3.97095L276.986 3.57406L278.422 2.18756L278.805 2.58445L277.369 3.97095Z" fill="#BC4E29"/>
<path d="M264.328 17.5033L263.098 16.98L264.059 16.0515L264.443 16.4484L264.081 16.7987L264.544 16.9956L264.328 17.5033Z" fill="#BC4E29"/>
<path d="M282.696 25.3197L280.86 24.5384L281.076 24.0306L282.913 24.812L282.696 25.3197ZM279.023 23.7571L277.186 22.9747L277.402 22.4669L279.24 23.2493L279.023 23.7571ZM275.349 22.1934L273.512 21.412L273.729 20.9043L275.565 21.6856L275.349 22.1934ZM271.676 20.6297L269.84 19.8483L270.056 19.3406L271.893 20.1219L271.676 20.6297ZM268.001 19.067L266.165 18.2846L266.381 17.7769L268.218 18.5592L268.001 19.067Z" fill="#BC4E29"/>
<path d="M305.954 31.1601L305.571 30.7632L306.126 30.2264L305.986 29.4679L306.529 29.3674L306.723 30.4181L305.954 31.1601Z" fill="#BC4E29"/>
<path d="M291.592 45.0241L291.208 44.6272L292.645 43.2407L293.028 43.6386L291.592 45.0241ZM294.464 42.2521L294.081 41.8542L295.517 40.4677L295.9 40.8656L294.464 42.2521ZM297.337 39.4812L296.953 39.0832L298.389 37.6967L298.773 38.0947L297.337 39.4812ZM300.209 36.7082L299.826 36.3102L301.262 34.9217L301.645 35.3185L300.209 36.7082ZM303.082 33.9351L302.698 33.5383L304.14 32.1497L304.523 32.5466L303.082 33.9351Z" fill="#BC4E29"/>
<path d="M289.124 47.4064L288.864 45.9971L289.406 45.8966L289.48 46.2956L289.772 46.0137L290.155 46.4116L289.124 47.4064Z" fill="#BC4E29"/>
<path d="M288.547 44.2852L288.231 42.5723L288.774 42.4687L289.09 44.1806L288.547 44.2852ZM287.915 40.8604L287.598 39.1485L288.141 39.0449L288.452 40.7568L287.915 40.8604ZM287.282 37.4408L286.966 35.7289L287.508 35.6253L287.825 37.3382L287.282 37.4408ZM286.649 34.0212L286.333 32.3093L286.876 32.2057L287.187 33.9176L286.649 34.0212ZM286.017 30.5964L285.701 28.8845L286.243 28.7809L286.56 30.4938L286.017 30.5964Z" fill="#BC4E29"/>
<path d="M285.383 27.1632L285.19 26.1125L285.959 25.3705L286.341 25.7674L285.787 26.3042L285.926 27.0627L285.383 27.1632Z" fill="#BC4E29"/>
<path d="M287.777 24.3809L287.395 23.984L288.831 22.5975L289.215 22.9954L287.777 24.3809ZM290.65 21.6089L290.268 21.211L291.705 19.8245L292.088 20.2224L290.65 21.6089ZM293.523 18.8359L293.14 18.438L294.576 17.0525L294.96 17.4494L293.523 18.8359ZM296.396 16.0619L296.012 15.665L297.449 14.2785L297.832 14.6754L296.396 16.0619ZM299.269 13.2899L298.886 12.893L300.321 11.5024L300.705 11.8993L299.269 13.2899Z" fill="#BC4E29"/>
<path d="M302.507 10.634L302.433 10.235L302.14 10.5169L301.757 10.12L302.788 9.12416L303.048 10.5335L302.507 10.634Z" fill="#BC4E29"/>
<path d="M305.67 27.7559L305.353 26.044L305.896 25.9404L306.212 27.6523L305.67 27.7559ZM305.037 24.3311L304.726 22.6192L305.268 22.5156L305.585 24.2285L305.037 24.3311ZM304.404 20.9115L304.088 19.1986L304.631 19.0949L304.947 20.8068L304.404 20.9115ZM303.772 17.4918L303.461 15.78L304.003 15.6763L304.32 17.3882L303.772 17.4918ZM303.139 14.0722L302.823 12.3593L303.366 12.2557L303.677 13.9676L303.139 14.0722Z" fill="#BC4E29"/>
<path d="M268.142 38.1465L267.16 37.7279L266.965 36.6782L267.508 36.5777L267.648 37.3362L268.358 37.6388L268.142 38.1465Z" fill="#BC4E29"/>
<path d="M286.511 45.9629L284.674 45.1805L284.89 44.6727L286.728 45.4541L286.511 45.9629ZM282.838 44.4002L281 43.6178L281.217 43.1101L283.053 43.8925L282.838 44.4002ZM279.166 42.8365L277.33 42.0552L277.545 41.5474L279.383 42.3287L279.166 42.8365ZM275.493 41.2728L273.656 40.4915L273.872 39.9837L275.709 40.765L275.493 41.2728ZM271.819 39.7101L269.982 38.9278L270.198 38.42L272.036 39.2024L271.819 39.7101Z" fill="#BC4E29"/>
<path d="M289.667 47.3069L288.348 46.7453L288.564 46.2375L288.938 46.3961L288.864 45.9971L289.406 45.8966L289.667 47.3069Z" fill="#BC4E29"/>
<path d="M288.547 44.2852L288.231 42.5723L288.774 42.4687L289.09 44.1806L288.547 44.2852ZM287.915 40.8604L287.598 39.1485L288.141 39.0449L288.452 40.7568L287.915 40.8604ZM287.282 37.4408L286.966 35.7289L287.508 35.6253L287.825 37.3382L287.282 37.4408ZM286.649 34.0212L286.333 32.3093L286.876 32.2057L287.187 33.9176L286.649 34.0212ZM286.017 30.5964L285.701 28.8845L286.243 28.7809L286.56 30.4938L286.017 30.5964Z" fill="#BC4E29"/>
<path d="M285.383 27.1632L285.244 26.4037L284.534 26.1021L284.749 25.5944L285.733 26.012L285.926 27.0627L285.383 27.1632Z" fill="#BC4E29"/>
<path d="M282.696 25.3197L280.86 24.5384L281.076 24.0306L282.913 24.812L282.696 25.3197ZM279.023 23.7571L277.186 22.9747L277.402 22.4669L279.24 23.2493L279.023 23.7571ZM275.349 22.1934L273.512 21.412L273.729 20.9043L275.565 21.6856L275.349 22.1934ZM271.676 20.6297L269.84 19.8483L270.056 19.3406L271.893 20.1219L271.676 20.6297ZM268.001 19.067L266.165 18.2846L266.381 17.7769L268.218 18.5592L268.001 19.067Z" fill="#BC4E29"/>
<path d="M263.485 17.8442L263.225 16.4339L264.544 16.9955L264.328 17.5033L263.955 17.3447L264.028 17.7437L263.485 17.8442Z" fill="#BC4E29"/>
<path d="M266.649 34.9652L266.333 33.2533L266.875 33.1497L267.192 34.8626L266.649 34.9652ZM266.016 31.5456L265.705 29.8337L266.248 29.7301L266.564 31.4419L266.016 31.5456ZM265.384 28.1259L265.073 26.4047L265.615 26.3011L265.932 28.014L265.384 28.1259ZM264.751 24.7063L264.44 22.9934L264.983 22.8898L265.299 24.6017L264.751 24.7063ZM264.119 21.2867L263.802 19.5748L264.345 19.4712L264.661 21.1831L264.119 21.2867Z" fill="#BC4E29"/>
<path d="M194.757 34.8574L193.743 34.4264L193.958 33.9176L194.637 34.2067L195.166 33.6948L195.55 34.0916L194.757 34.8574Z" fill="#BC4E29"/>
<path d="M196.937 32.7528L196.554 32.3559L197.941 31.016L198.325 31.4129L196.937 32.7528ZM199.712 30.0741L199.329 29.6772L200.722 28.3373L201.105 28.7352L199.712 30.0741ZM202.483 27.3954L202.1 26.9985L203.487 25.6596L203.871 26.0565L202.483 27.3954Z" fill="#BC4E29"/>
<path d="M205.261 24.7166L204.878 24.3197L205.241 23.9705L204.778 23.7736L204.993 23.2658L206.223 23.7891L205.261 24.7166Z" fill="#BC4E29"/>
<path d="M203.001 23.0183L201.227 22.2628L201.444 21.7551L203.218 22.5105L203.001 23.0183ZM199.453 21.5085L197.679 20.753L197.895 20.2453L199.67 21.0007L199.453 21.5085ZM195.905 19.9997L194.131 19.2453L194.348 18.7375L196.122 19.4919L195.905 19.9997Z" fill="#BC4E29"/>
<path d="M191.149 18.7116L190.765 18.3147L191.558 17.5479L192.574 17.98L192.357 18.4877L191.679 18.1997L191.149 18.7116Z" fill="#BC4E29"/>
<path d="M182.825 26.7467L182.441 26.3498L183.831 25.0099L184.214 25.4079L182.825 26.7467ZM185.6 24.068L185.216 23.6711L186.604 22.3323L186.986 22.7291L185.6 24.068ZM188.374 21.3893L187.99 20.9924L189.378 19.6535L189.761 20.0504L188.374 21.3893Z" fill="#BC4E29"/>
<path d="M181.322 29.1404L180.092 28.6171L181.054 27.6886L181.437 28.0855L181.075 28.4358L181.539 28.6327L181.322 29.1404Z" fill="#BC4E29"/>
<path d="M191.967 33.6709L190.193 32.9155L190.41 32.4077L192.184 33.1631L191.967 33.6709ZM188.419 32.1611L186.645 31.4056L186.861 30.8979L188.636 31.6523L188.419 32.1611ZM184.867 30.6502L183.092 29.8958L183.309 29.387L185.083 30.1424L184.867 30.6502Z" fill="#BC4E29"/>
<path d="M207.719 38.0211L207.336 37.6242L207.891 37.0874L207.752 36.3289L208.294 36.2294L208.488 37.2791L207.719 38.0211Z" fill="#BC4E29"/>
<path d="M199.395 46.0562L199.012 45.6593L200.399 44.3204L200.783 44.7173L199.395 46.0562ZM202.172 43.3775L201.789 42.9806L203.177 41.6417L203.56 42.0386L202.172 43.3775ZM204.946 40.6998L204.564 40.3029L205.948 38.963L206.332 39.3599L204.946 40.6998Z" fill="#BC4E29"/>
<path d="M196.977 48.3919L196.717 46.9816L197.26 46.881L197.333 47.281L197.625 46.9981L198.009 47.3961L196.977 48.3919Z" fill="#BC4E29"/>
<path d="M196.413 45.339L196.109 43.6976L196.652 43.594L196.956 45.2365L196.413 45.339ZM195.806 42.0552L195.503 40.4137L196.045 40.3101L196.349 41.9515L195.806 42.0552ZM195.2 38.7713L194.896 37.1288L195.439 37.0252L195.743 38.6677L195.2 38.7713Z" fill="#BC4E29"/>
<path d="M194.592 35.4864L194.398 34.4367L195.166 33.6948L195.55 34.0916L194.995 34.6274L195.135 35.387L194.592 35.4864Z" fill="#BC4E29"/>
<path d="M196.937 32.7528L196.554 32.3559L197.941 31.016L198.325 31.4129L196.937 32.7528ZM199.712 30.0741L199.329 29.6772L200.722 28.3373L201.105 28.7352L199.712 30.0741ZM202.483 27.3954L202.1 26.9985L203.487 25.6596L203.871 26.0565L202.483 27.3954Z" fill="#BC4E29"/>
<path d="M205.627 24.8348L205.554 24.4348L205.261 24.7166L204.878 24.3197L205.909 23.3239L206.17 24.7342L205.627 24.8348Z" fill="#BC4E29"/>
<path d="M207.448 34.6874L207.146 33.045L207.689 32.9414L207.993 34.5838L207.448 34.6874ZM206.841 31.4025L206.537 29.7611L207.08 29.6575L207.384 31.2999L206.841 31.4025ZM206.235 28.1186L205.931 26.4762L206.474 26.3726L206.776 28.014L206.235 28.1186Z" fill="#BC4E29"/>
<path d="M183.78 42.4438L182.798 42.0262L182.604 40.9755L183.146 40.8749L183.287 41.6345L183.997 41.9361L183.78 42.4438Z" fill="#BC4E29"/>
<path d="M194.426 46.9744L192.651 46.2169L192.868 45.7091L194.642 46.4635L194.426 46.9744ZM190.877 45.4645L189.103 44.7091L189.32 44.2013L191.094 44.9568L190.877 45.4645ZM187.329 43.9547L185.554 43.1993L185.77 42.6915L187.545 43.447L187.329 43.9547Z" fill="#BC4E29"/>
<path d="M197.52 48.2914L196.201 47.7297L196.416 47.222L196.79 47.3805L196.717 46.9816L197.26 46.881L197.52 48.2914Z" fill="#BC4E29"/>
<path d="M196.413 45.339L196.109 43.6976L196.652 43.594L196.956 45.2365L196.413 45.339ZM195.806 42.0552L195.503 40.4137L196.045 40.3101L196.349 41.9515L195.806 42.0552ZM195.2 38.7713L194.896 37.1288L195.439 37.0252L195.743 38.6677L195.2 38.7713Z" fill="#BC4E29"/>
<path d="M194.592 35.4864L194.452 34.7278L193.743 34.4263L193.958 33.9175L194.942 34.3361L195.135 35.3869L194.592 35.4864Z" fill="#BC4E29"/>
<path d="M191.967 33.6709L190.193 32.9155L190.41 32.4077L192.184 33.1631L191.967 33.6709ZM188.419 32.1611L186.645 31.4056L186.861 30.8979L188.636 31.6523L188.419 32.1611ZM184.867 30.6502L183.092 29.8958L183.309 29.387L185.083 30.1424L184.867 30.6502Z" fill="#BC4E29"/>
<path d="M180.48 29.4813L180.219 28.071L181.539 28.6326L181.322 29.1404L180.949 28.9808L181.023 29.3808L180.48 29.4813Z" fill="#BC4E29"/>
<path d="M182.3 39.334L181.997 37.6915L182.54 37.5879L182.843 39.2304L182.3 39.334ZM181.693 36.0491L181.389 34.4035L181.932 34.2999L182.236 35.9413L181.693 36.0491ZM181.087 32.7652L180.783 31.1228L181.326 31.0191L181.629 32.6616L181.087 32.7652Z" fill="#BC4E29"/>
<path d="M393.844 228.354H40.4666C40.4666 222.145 46.1971 217.111 53.2664 217.111H381.044C384.578 217.111 387.779 218.37 390.094 220.405C392.409 222.44 393.844 225.25 393.844 228.354Z" fill="#009BB1"/>
<path d="M379.775 203.209V218.034C379.775 220.156 366.143 221.874 349.327 221.874C332.512 221.874 318.881 220.156 318.881 218.034V203.209C318.881 205.33 332.513 207.048 349.327 207.048C366.142 207.048 379.775 205.329 379.775 203.209Z" fill="#3E4544"/>
<path d="M349.327 207.048C366.143 207.048 379.774 205.329 379.774 203.208C379.774 201.087 366.143 199.367 349.327 199.367C332.512 199.367 318.88 201.087 318.88 203.208C318.88 205.329 332.512 207.048 349.327 207.048Z" fill="#939897"/>
<path d="M373.861 195.798V202.937C373.861 203.958 362.876 204.786 349.327 204.786C335.778 204.786 324.795 203.957 324.795 202.937V195.798C324.795 194.777 335.779 193.949 349.327 193.949C362.875 193.949 373.861 194.777 373.861 195.798Z" fill="#2F2F2F"/>
<path d="M379.775 182.691V197.52C379.775 199.641 366.143 201.36 349.327 201.36C332.512 201.36 318.881 199.641 318.881 197.52V182.691C318.881 184.812 332.513 186.525 349.327 186.525C366.142 186.525 379.775 184.815 379.775 182.691Z" fill="#3E4544"/>
<path d="M349.327 186.534C366.143 186.534 379.774 184.815 379.774 182.694C379.774 180.573 366.143 178.854 349.327 178.854C332.512 178.854 318.88 180.573 318.88 182.694C318.88 184.815 332.512 186.534 349.327 186.534Z" fill="#939897"/>
<path d="M373.861 175.285V182.424C373.861 183.445 362.876 184.272 349.327 184.272C335.778 184.272 324.795 183.443 324.795 182.424V175.285C324.795 174.263 335.779 173.436 349.327 173.436C362.875 173.436 373.861 174.263 373.861 175.285Z" fill="#2F2F2F"/>
<path d="M379.775 159.639V174.464C379.775 176.585 366.143 178.298 349.327 178.298C332.512 178.298 318.881 176.58 318.881 174.464V159.639C318.881 161.76 332.513 163.473 349.327 163.473C366.142 163.473 379.775 161.759 379.775 159.639Z" fill="#3E4544"/>
<path d="M349.327 163.479C366.143 163.479 379.774 161.76 379.774 159.639C379.774 157.518 366.143 155.798 349.327 155.798C332.512 155.798 318.88 157.518 318.88 159.639C318.88 161.76 332.512 163.479 349.327 163.479Z" fill="#939897"/>
<path d="M324.902 172.342C322.752 172.342 321.002 170.708 321.002 168.699C321.002 166.689 322.752 165.054 324.902 165.054C327.052 165.054 328.802 166.689 328.802 168.702C328.802 170.714 327.052 172.342 324.902 172.342ZM324.902 165.378C322.942 165.378 321.349 166.868 321.349 168.694C321.349 170.521 322.942 172.01 324.902 172.01C326.861 172.01 328.455 170.521 328.455 168.694C328.455 166.868 326.861 165.378 324.902 165.378Z" fill="#A192BB"/>
<path d="M324.795 195.508C326.853 195.508 328.522 193.95 328.522 192.027C328.522 190.104 326.853 188.545 324.795 188.545C322.737 188.545 321.069 190.104 321.069 192.027C321.069 193.95 322.737 195.508 324.795 195.508Z" fill="#A192BB"/>
<path d="M324.795 216.185C322.645 216.185 320.895 214.549 320.895 212.54C320.895 210.531 322.645 208.896 324.795 208.896C326.945 208.896 328.695 210.531 328.695 212.54C328.695 214.549 326.945 216.185 324.795 216.185ZM324.795 209.22C322.836 209.22 321.242 210.709 321.242 212.536C321.242 214.363 322.836 215.852 324.795 215.852C326.755 215.852 328.349 214.363 328.349 212.536C328.349 210.709 326.755 209.219 324.795 209.219V209.22ZM368.656 168.971H335.76C335.608 168.971 335.462 168.91 335.354 168.802C335.247 168.695 335.186 168.549 335.186 168.397C335.186 168.245 335.247 168.099 335.354 167.992C335.462 167.884 335.608 167.823 335.76 167.823H368.656C368.807 167.824 368.953 167.884 369.06 167.992C369.168 168.099 369.228 168.245 369.229 168.397C369.228 168.549 369.168 168.695 369.061 168.802C368.953 168.91 368.808 168.97 368.656 168.971ZM368.656 172.18H335.76C335.608 172.18 335.462 172.119 335.354 172.012C335.247 171.904 335.186 171.758 335.186 171.606C335.186 171.454 335.247 171.308 335.354 171.201C335.462 171.093 335.608 171.033 335.76 171.032H368.656C368.807 171.033 368.953 171.094 369.06 171.201C369.168 171.309 369.228 171.454 369.229 171.606C369.228 171.758 369.168 171.904 369.061 172.011C368.953 172.119 368.808 172.18 368.656 172.18ZM368.221 192.299H335.331C335.179 192.299 335.033 192.238 334.926 192.131C334.818 192.024 334.757 191.878 334.757 191.726C334.757 191.574 334.818 191.428 334.925 191.32C335.033 191.213 335.179 191.152 335.331 191.152H368.221C368.374 191.152 368.519 191.213 368.627 191.32C368.735 191.428 368.795 191.574 368.795 191.726C368.795 191.878 368.734 192.024 368.627 192.131C368.519 192.238 368.373 192.299 368.221 192.299ZM368.221 195.509H335.331C335.179 195.509 335.033 195.448 334.925 195.341C334.818 195.233 334.757 195.087 334.757 194.935C334.757 194.783 334.818 194.637 334.925 194.53C335.033 194.422 335.179 194.361 335.331 194.361H368.221C368.374 194.361 368.519 194.422 368.627 194.53C368.735 194.637 368.795 194.783 368.795 194.935C368.795 195.087 368.734 195.233 368.627 195.341C368.519 195.448 368.373 195.509 368.221 195.509ZM368.221 212.599H335.331C335.179 212.599 335.033 212.538 334.925 212.43C334.818 212.323 334.757 212.177 334.757 212.025C334.757 211.873 334.818 211.727 334.925 211.619C335.033 211.512 335.179 211.451 335.331 211.451H368.221C368.374 211.451 368.519 211.512 368.627 211.619C368.735 211.727 368.795 211.873 368.795 212.025C368.795 212.177 368.734 212.323 368.627 212.43C368.519 212.538 368.373 212.599 368.221 212.599ZM368.221 215.808H335.331C335.179 215.808 335.033 215.748 334.925 215.64C334.818 215.532 334.757 215.387 334.757 215.234C334.757 215.082 334.818 214.936 334.925 214.829C335.033 214.721 335.179 214.661 335.331 214.66H368.221C368.374 214.661 368.519 214.721 368.627 214.829C368.735 214.936 368.795 215.082 368.795 215.234C368.795 215.387 368.735 215.532 368.627 215.64C368.519 215.748 368.374 215.808 368.221 215.808Z" fill="#A192BB"/>
<path d="M349.401 158.339L364.116 161.493C364.116 161.493 371.768 161.551 374.571 160.091L349.401 158.339Z" fill="#D1D4D4"/>
<path d="M322.849 159.833C322.849 159.833 328.28 161.94 338.37 162.016L349.401 158.339L322.849 159.833Z" fill="#2F2F2F"/>
<path d="M147.451 140.856C147.881 141.01 144.259 146.754 137.944 150.4C137.944 150.4 108.929 177.502 103.632 175.522C98.336 173.542 74.4546 121.397 87.5321 119.072C87.5321 119.072 90.9392 116.61 93.3351 119.694C95.7309 122.778 102.899 126.695 114.06 152.474C114.06 152.474 130.297 144.08 132.132 143.126C132.132 143.126 135.872 134.193 136.495 135.648C137.118 137.103 135.666 141.049 135.666 141.049C135.666 141.049 145.014 133.986 146.26 134.609C147.507 135.232 147.451 140.856 147.451 140.856Z" fill="#EE734A"/>
<path d="M108.978 145.233C101.06 130.01 95.2304 124.224 93.3309 121.77C90.9403 118.683 87.5279 121.148 87.5279 121.148C78.7612 122.702 86.5953 146.652 94.3195 162.868C98.8792 156.725 103.773 150.838 108.978 145.233Z" fill="#EE734A"/>
<path d="M102.583 124.756C102.583 124.756 97.5598 110.492 87.5766 116.481C77.5933 122.469 84.6896 151.743 90.1537 157.754L112.19 145.665L102.583 124.756Z" fill="#41195F"/>
<path d="M90.4284 157.472C86.872 156.782 81.0473 134.079 83.1674 130.071C83.1674 130.071 94.1123 123.607 94.8076 124.327C101.899 131.673 90.4284 157.472 90.4284 157.472Z" fill="#2F64A7"/>
<path d="M107.831 220.133H73.6856C70.8038 210.194 67.7116 201.418 64.492 195.067L96.5184 192.977L105.621 192.383C105.621 192.383 106.734 205.753 107.831 220.133Z" fill="#454A78"/>
<path d="M96.6572 192.383C96.6572 192.383 96.6106 192.59 96.5184 192.977C95.9039 195.596 93.2987 206.593 89.733 220.133H53.0891C52.4156 210.752 51.5876 201.176 51.0819 193.554L96.6572 192.383Z" fill="#4F5694"/>
<path d="M106.15 196.769L72.6618 195.215L50.1917 197.549C50.1917 197.549 45.6322 148.73 46.7721 131.288C46.7721 131.246 46.7783 131.206 46.7814 131.165C46.798 130.926 46.8146 130.69 46.8312 130.46C46.8415 130.328 46.8519 130.199 46.8654 130.069C46.8654 130.069 46.8654 130.063 46.8654 130.06C47.654 121.777 53.115 117.147 58.3408 114.593C63.4889 112.076 68.4121 111.573 68.4121 111.573L71.5209 109.307L94.2863 115.16C95.6987 115.336 98.1847 119.097 100.307 122.413C102.611 126.019 103.931 130.166 104.134 134.44L106.15 196.769Z" fill="#391257"/>
<path opacity="0.44" d="M92.2605 164.379C88.2762 171.31 73.9013 190.398 72.6619 195.211L50.1142 197.411C50.1142 197.411 45.6324 148.726 46.7774 131.284C46.7774 131.242 46.7836 131.202 46.7868 131.161C46.8044 130.919 46.823 130.684 46.8396 130.458C46.8489 130.327 46.8603 130.196 46.8707 130.065C46.8707 130.065 46.8707 130.059 46.8707 130.056C47.4624 123.087 52.6126 116.114 61.373 113.307C62.9429 112.806 61.6145 118.62 63.6403 118.312L92.2605 164.379Z" fill="#2A0C40"/>
<path d="M72.0567 94.2376L68.5997 113.462L73.0162 115.67C79.7871 118.172 85.9072 116.592 86.8616 113.784L85.9486 104.34L76.4524 95.7391C76.4524 95.7391 74.9924 96.7753 74.8089 97.1557C74.6255 97.536 72.0567 94.2376 72.0567 94.2376Z" fill="#F69883"/>
<path d="M76.4545 95.7495L85.9507 104.35L86.4688 109.206C86.4688 109.206 77.3208 112.577 74.3768 99.9183L76.4545 95.7495Z" fill="#EE734A"/>
<path d="M75.2018 68.4691C83.5032 67.1013 88.7114 69.6349 91.2855 78.1726C91.416 78.6047 91.5165 79.043 91.6243 79.4824C92.1321 81.5476 92.5404 84.0792 91.9963 85.2471C91.9963 85.2471 96.4739 96.0127 87.8938 105.284C86.9166 106.341 82.1882 105.774 80.8649 105.509C69.7066 103.278 70.8226 91.0014 70.8226 91.0014C70.5729 90.2594 66.4341 89.9755 66.1968 89.2076C63.9201 81.8357 65.0621 70.1406 75.2018 68.4691Z" fill="#F69883"/>
<path d="M83.1953 97.6147C81.9394 97.6147 80.356 97.2002 79.1094 95.5028L79.4068 95.2831C80.4658 96.7246 81.9 97.3774 83.6668 97.2251C84.496 97.1475 85.3039 96.9182 86.0502 96.5484L86.2263 96.8727C85.4406 97.2674 84.5879 97.5113 83.7124 97.5919C83.5476 97.6023 83.3746 97.6147 83.1953 97.6147Z" fill="#262626"/>
<path d="M89.2336 91.8398C89.2336 94.5578 90.3278 96.9806 92.0314 98.565C94.5827 91.4926 91.9921 85.2471 91.9921 85.2471C92.0138 85.2015 92.0304 85.1497 92.0491 85.1C90.3361 86.6844 89.2336 89.1175 89.2336 91.8398ZM71.38 87.6554C69.8598 87.6554 68.5003 88.5227 67.5801 89.8864C68.8858 90.2367 70.6619 90.5248 70.8225 91.0035C70.8225 91.0035 70.3749 95.9775 72.9292 100.173C74.9437 99.3443 76.4017 96.9246 76.4017 94.0719C76.4017 90.5279 74.154 87.6554 71.38 87.6554Z" fill="#EE734A" fill-opacity="0.5"/>
<path d="M79.9871 81.4648C79.2824 80.7591 75.8297 82.329 75.6887 82.4161C74.6183 83.072 75.0152 83.7984 75.1778 84.0378C75.2732 84.1777 75.6711 83.9518 76.6638 83.6813C78.7819 83.1041 79.7011 83.386 80.0835 82.7197C80.3094 82.3259 80.269 81.7446 79.9871 81.4648ZM87.0274 81.1974C87.4222 80.4721 90.0926 81.2648 90.2138 81.3218C91.1309 81.757 91.1558 82.5808 91.0791 82.8171C91.0346 82.9539 90.6967 82.8088 89.9082 82.7062C88.2274 82.4886 87.5952 82.8668 87.187 82.328C86.9465 82.0099 86.8709 81.4865 87.0274 81.1974Z" fill="#614E0E"/>
<path d="M77.9383 87.4667C78.0813 88.0159 78.4824 88.3869 78.8316 88.2957C79.1808 88.2045 79.3497 87.6843 79.2057 87.1351C79.0616 86.5859 78.6627 86.2149 78.3124 86.3061C77.9622 86.3973 77.7943 86.9175 77.9383 87.4667ZM88.1216 86.162C88.2646 86.7102 88.6397 87.0864 88.9578 87.0024C89.2759 86.9185 89.42 86.4076 89.277 85.8626C89.134 85.3175 88.7589 84.9382 88.4397 85.0222C88.1205 85.1061 87.9775 85.6149 88.1216 86.162Z" fill="#262626"/>
<path d="M91.2853 78.1726C91.2853 78.1726 97.0801 68.9562 92.4646 67.5645C87.8491 66.1728 80.0617 63.3501 72.6266 67.7189C65.1915 72.0878 63.1491 77.4452 62.0393 79.1177C60.6206 81.2627 64.9242 89.6947 67.7645 94.7744C68.6702 96.3941 70.321 96.0863 71.0101 94.3599L70.6795 93.5578L71.3241 90.0988L71.7551 77.1612C71.7551 77.1612 85.8823 77.8763 89.4667 74.5312C89.4667 74.5385 90.7962 76.0784 91.2853 78.1726Z" fill="#887120"/>
<path d="M66.8484 74.5405C66.8484 74.5405 67.7044 69.952 66.1293 70.2598C64.5542 70.5675 65.0329 74.1975 65.0329 74.1975C65.0329 74.1975 62.3273 73.6493 61.9169 74.6763C61.5066 75.7032 63.6972 76.6628 64.9987 76.0462C66.3003 75.4296 66.8484 74.5405 66.8484 74.5405ZM68.3251 71.8017C77.0078 61.1439 91.8853 65.6329 92.0335 65.6806L92.1775 65.2184C92.0262 65.1707 76.841 60.5874 67.9489 71.496L68.3251 71.8017Z" fill="#887120"/>
<path d="M64.4299 92.3713C65.2175 94.8386 67.662 96.2614 69.891 95.5505C72.1199 94.8396 73.2878 92.2625 72.5002 89.7952C71.7127 87.3279 69.2682 85.9051 67.0392 86.617C64.8102 87.3289 63.6434 89.904 64.4299 92.3713Z" fill="#F69883"/>
<path d="M68.151 92.5132C68.3862 91.8603 69.5779 91.5401 70.0162 91.4769L70.3271 91.4293L70.2069 91.1443C69.7592 90.0842 69.1489 89.4241 68.3945 89.1754C67.4349 88.8646 66.6163 89.3557 66.5821 89.3765L66.8329 89.791C66.8401 89.791 67.5075 89.3951 68.2515 89.6376C68.8017 89.8169 69.267 90.2946 69.638 91.0573C69.0919 91.1889 67.9883 91.5484 67.7002 92.3484L68.151 92.5132Z" fill="#EE734A"/>
<path d="M72.3966 74.1955C72.3966 74.1955 75.9032 88.2387 71.379 89.0522L71.2328 76.6825L72.3966 74.1955Z" fill="#907823"/>
<path d="M86.0243 91.4687C86.0813 91.4345 87.4471 90.6148 88.015 89.6148C88.0659 89.5301 88.0948 89.4339 88.0992 89.3351C88.1035 89.2363 88.0831 89.138 88.0398 89.049C87.6471 88.2014 85.0927 87.6853 84.585 87.59L84.4958 88.0656C85.6575 88.2833 87.3891 88.791 87.6046 89.2532C87.6148 89.2723 87.6195 89.2938 87.6182 89.3154C87.617 89.3369 87.6097 89.3577 87.5973 89.3755C87.0937 90.2635 85.7922 91.0459 85.7798 91.0532L86.0243 91.4687Z" fill="#262626"/>
<path d="M124.069 149.706L123.408 148.822L123.851 148.492L124.292 149.082L125.008 148.906L125.14 149.442L124.069 149.706Z" fill="#BC4E29"/>
<path d="M122.269 147.298L121.129 145.772L121.571 145.442L122.711 146.967L122.269 147.298ZM119.99 144.247L118.85 142.723L119.292 142.392L120.432 143.917L119.99 144.247ZM117.71 141.197L116.57 139.672L117.012 139.341L118.152 140.867L117.71 141.197ZM115.43 138.148L114.29 136.622L114.733 136.292L115.872 137.817L115.43 138.148ZM113.15 135.097L112.01 133.573L112.452 133.242L113.592 134.766L113.15 135.097ZM110.871 132.047L109.731 130.522L110.172 130.191L111.312 131.717L110.871 132.047ZM108.591 128.997L107.451 127.472L107.893 127.142L109.033 128.667L108.591 128.997ZM106.311 125.947L105.171 124.422L105.614 124.092L106.753 125.616L106.311 125.947Z" fill="#BC4E29"/>
<path d="M104.032 122.897L103.232 121.827L104.531 121.508L104.662 122.043L104.173 122.164L104.475 122.567L104.032 122.897Z" fill="#BC4E29"/>
<path d="M106.511 121.589L106.379 121.053L108.228 120.598L108.36 121.134L106.511 121.589ZM110.208 120.68L110.077 120.144L111.925 119.689L112.057 120.225L110.208 120.68ZM113.907 119.77L113.774 119.234L115.623 118.779L115.755 119.315L113.907 119.77ZM117.604 118.861L117.472 118.325L119.321 117.87L119.453 118.406L117.604 118.861ZM121.301 117.951L121.17 117.416L123.018 116.961L123.15 117.496L121.301 117.951ZM124.999 117.042L124.867 116.507L126.716 116.052L126.847 116.588L124.999 117.042ZM128.696 116.133L128.564 115.597L130.413 115.142L130.546 115.679L128.696 116.133ZM132.394 115.224L132.263 114.688L134.112 114.233L134.243 114.769L132.394 115.224Z" fill="#BC4E29"/>
<path d="M137.248 114.728L136.808 114.138L136.092 114.314L135.96 113.778L137.031 113.515L137.691 114.398L137.248 114.728Z" fill="#BC4E29"/>
<path d="M155.485 139.129L154.345 137.604L154.788 137.274L155.928 138.798L155.485 139.129ZM153.206 136.079L152.066 134.554L152.508 134.223L153.648 135.749L153.206 136.079ZM150.926 133.029L149.786 131.504L150.228 131.174L151.368 132.698L150.926 133.029ZM148.646 129.979L147.506 128.454L147.948 128.123L149.088 129.648L148.646 129.979ZM146.366 126.929L145.226 125.404L145.668 125.073L146.808 126.599L146.366 126.929ZM144.087 123.879L142.947 122.354L143.389 122.024L144.529 123.548L144.087 123.879ZM141.807 120.829L140.667 119.303L141.109 118.973L142.249 120.498L141.807 120.829ZM139.527 117.779L138.387 116.254L138.83 115.923L139.97 117.449L139.527 117.779Z" fill="#BC4E29"/>
<path d="M156.569 141.714L156.438 141.178L156.927 141.058L156.625 140.654L157.067 140.324L157.868 141.394L156.569 141.714Z" fill="#BC4E29"/>
<path d="M126.988 148.988L126.857 148.452L128.705 147.997L128.837 148.533L126.988 148.988ZM130.686 148.078L130.554 147.542L132.403 147.087L132.534 147.624L130.686 148.078ZM134.384 147.169L134.251 146.634L136.1 146.179L136.233 146.714L134.384 147.169ZM138.081 146.259L137.95 145.724L139.798 145.269L139.93 145.806L138.081 146.259ZM141.779 145.351L141.647 144.815L143.496 144.36L143.627 144.896L141.779 145.351ZM145.476 144.441L145.344 143.905L147.193 143.45L147.325 143.987L145.476 144.441ZM149.174 143.532L149.042 142.996L150.89 142.541L151.023 143.077L149.174 143.532ZM152.872 142.622L152.74 142.086L154.589 141.632L154.72 142.168L152.872 142.622Z" fill="#BC4E29"/>
<path d="M93.8594 151.303L93.22 150.447L93.5796 149.441L94.0998 149.627L93.8397 150.354L94.3008 150.972L93.8594 151.303Z" fill="#BC4E29"/>
<path d="M112.095 175.702L110.956 174.178L111.398 173.848L112.538 175.373L112.095 175.702ZM109.816 172.653L108.676 171.127L109.118 170.797L110.258 172.322L109.816 172.653ZM107.536 169.603L106.396 168.078L106.838 167.747L107.978 169.273L107.536 169.603ZM105.256 166.552L104.116 165.028L104.558 164.697L105.698 166.222L105.256 166.552ZM102.976 163.503L101.837 161.977L102.279 161.647L103.419 163.172L102.976 163.503ZM100.697 160.453L99.5568 158.928L99.9992 158.597L101.139 160.122L100.697 160.453ZM98.4169 157.402L97.277 155.878L97.7195 155.547L98.8594 157.072L98.4169 157.402ZM96.1371 154.353L94.9973 152.827L95.4387 152.497L96.5786 154.022L96.1371 154.353Z" fill="#BC4E29"/>
<path d="M114.093 178.376L113.235 177.228L113.678 176.897L113.92 177.223L114.057 176.84L114.576 177.027L114.093 178.376Z" fill="#BC4E29"/>
<path d="M115.213 175.249L114.695 175.062L115.332 173.284L115.85 173.47L115.213 175.249ZM116.487 171.692L115.969 171.506L116.606 169.727L117.124 169.914L116.487 171.692ZM117.762 168.136L117.243 167.949L117.881 166.171L118.399 166.358L117.762 168.136ZM119.035 164.579L118.517 164.393L119.154 162.615L119.672 162.801L119.035 164.579ZM120.309 161.023L119.791 160.836L120.427 159.058L120.945 159.245L120.309 161.023ZM121.582 157.465L121.064 157.28L121.7 155.502L122.219 155.687L121.582 157.465ZM122.856 153.909L122.338 153.724L122.975 151.945L123.493 152.131L122.856 153.909Z" fill="#BC4E29"/>
<path d="M124.13 150.353L123.61 150.167L123.87 149.441L123.408 148.822L123.851 148.492L124.49 149.348L124.13 150.353Z" fill="#BC4E29"/>
<path d="M122.269 147.298L121.129 145.772L121.571 145.442L122.711 146.967L122.269 147.298ZM119.99 144.247L118.85 142.723L119.292 142.392L120.432 143.917L119.99 144.247ZM117.71 141.197L116.57 139.672L117.012 139.341L118.152 140.867L117.71 141.197ZM115.43 138.148L114.29 136.622L114.733 136.292L115.872 137.817L115.43 138.148ZM113.15 135.097L112.01 133.573L112.452 133.242L113.592 134.766L113.15 135.097ZM110.871 132.047L109.731 130.522L110.172 130.191L111.312 131.717L110.871 132.047ZM108.591 128.997L107.451 127.472L107.893 127.142L109.033 128.667L108.591 128.997ZM106.311 125.947L105.171 124.422L105.614 124.092L106.753 125.616L106.311 125.947Z" fill="#BC4E29"/>
<path d="M103.653 122.954L103.133 122.768L103.617 121.419L104.475 122.567L104.032 122.897L103.79 122.572L103.653 122.954Z" fill="#BC4E29"/>
<path d="M94.7361 147.849L94.218 147.663L94.8543 145.884L95.3724 146.071L94.7361 147.849ZM96.0107 144.293L95.4926 144.106L96.1299 142.328L96.648 142.515L96.0107 144.293ZM97.2843 140.736L96.7662 140.55L97.4035 138.772L97.9216 138.958L97.2843 140.736ZM98.5578 137.18L98.0397 136.993L98.677 135.215L99.1951 135.402L98.5578 137.18ZM99.8314 133.623L99.3133 133.437L99.9495 131.659L100.468 131.845L99.8314 133.623ZM101.105 130.067L100.587 129.881L101.223 128.102L101.741 128.289L101.105 130.067ZM102.378 126.511L101.86 126.324L102.498 124.546L103.016 124.732L102.378 126.511Z" fill="#BC4E29"/>
<path d="M146.395 170.119L146.264 169.582L147.013 169.399L147.273 168.673L147.793 168.858L147.433 169.864L146.395 170.119Z" fill="#BC4E29"/>
<path d="M116.814 177.394L116.683 176.857L118.531 176.403L118.663 176.939L116.814 177.394ZM120.513 176.484L120.38 175.948L122.229 175.493L122.361 176.029L120.513 176.484ZM124.21 175.575L124.079 175.038L125.927 174.584L126.059 175.12L124.21 175.575ZM127.907 174.665L127.776 174.129L129.625 173.675L129.756 174.21L127.907 174.665ZM131.605 173.756L131.473 173.22L133.322 172.766L133.453 173.301L131.605 173.756ZM135.303 172.847L135.171 172.311L137.02 171.856L137.152 172.392L135.303 172.847ZM139.001 171.938L138.869 171.401L140.718 170.947L140.849 171.483L139.001 171.938ZM142.698 171.028L142.566 170.492L144.415 170.037L144.547 170.573L142.698 171.028Z" fill="#BC4E29"/>
<path d="M113.574 178.191L114.057 176.84L114.576 177.027L114.439 177.409L114.834 177.312L114.966 177.847L113.574 178.191Z" fill="#BC4E29"/>
<path d="M115.213 175.249L114.695 175.062L115.332 173.284L115.85 173.47L115.213 175.249ZM116.487 171.692L115.969 171.506L116.606 169.727L117.124 169.914L116.487 171.692ZM117.762 168.136L117.243 167.949L117.881 166.171L118.399 166.358L117.762 168.136ZM119.035 164.579L118.517 164.393L119.154 162.615L119.672 162.801L119.035 164.579ZM120.309 161.023L119.791 160.836L120.427 159.058L120.945 159.245L120.309 161.023ZM121.582 157.465L121.064 157.28L121.7 155.502L122.219 155.687L121.582 157.465ZM122.856 153.909L122.338 153.724L122.975 151.945L123.493 152.131L122.856 153.909Z" fill="#BC4E29"/>
<path d="M124.13 150.353L123.61 150.167L123.971 149.161L125.008 148.906L125.14 149.442L124.39 149.626L124.13 150.353Z" fill="#BC4E29"/>
<path d="M126.988 148.988L126.857 148.452L128.705 147.997L128.837 148.533L126.988 148.988ZM130.686 148.078L130.554 147.542L132.403 147.087L132.534 147.624L130.686 148.078ZM134.383 147.169L134.251 146.634L136.1 146.179L136.233 146.714L134.383 147.169ZM138.081 146.259L137.95 145.724L139.798 145.269L139.93 145.806L138.081 146.259ZM141.779 145.351L141.647 144.815L143.496 144.36L143.627 144.896L141.779 145.351ZM145.476 144.441L145.344 143.905L147.193 143.45L147.325 143.987L145.476 144.441ZM149.174 143.532L149.042 142.996L150.89 142.541L151.023 143.077L149.174 143.532ZM152.872 142.622L152.74 142.086L154.589 141.632L154.72 142.168L152.872 142.622Z" fill="#BC4E29"/>
<path d="M157.346 142.185L156.826 141.998L156.964 141.616L156.569 141.713L156.438 141.178L157.83 140.835L157.346 142.185Z" fill="#BC4E29"/>
<path d="M148.429 167.08L147.911 166.893L148.548 165.115L149.067 165.302L148.429 167.08ZM149.704 163.523L149.186 163.337L149.823 161.559L150.341 161.745L149.704 163.523ZM150.977 159.967L150.459 159.78L151.097 158.002L151.615 158.189L150.977 159.967ZM152.251 156.411L151.733 156.224L152.369 154.446L152.887 154.632L152.251 156.411ZM153.525 152.854L153.006 152.668L153.643 150.889L154.161 151.076L153.525 152.854ZM154.798 149.298L154.28 149.111L154.917 147.333L155.435 147.52L154.798 149.298ZM156.073 145.741L155.555 145.555L156.192 143.777L156.71 143.963L156.073 145.741Z" fill="#BC4E29"/>
<path d="M119.449 95.1009L110.1 82.5913L125.265 78.8618L134.614 91.3715L119.449 95.1009Z" fill="#FF2F01"/>
<path d="M105.454 95.5609L114.804 108.071L119.449 95.1008L110.1 82.5912L105.454 95.5609Z" fill="#FC4218"/>
<path d="M129.97 104.341L114.804 108.071L119.449 95.1009L134.614 91.3714L129.97 104.341Z" fill="#F55620"/>
<path d="M119.37 95.4448L118.71 94.5609L119.152 94.2314L119.593 94.821L120.309 94.6459L120.44 95.1816L119.37 95.4448Z" fill="#BC4E29"/>
<path d="M117.531 92.9848L116.352 91.4076L116.795 91.0771L117.973 92.6542L117.531 92.9848ZM115.174 89.8315L113.996 88.2543L114.438 87.9237L115.616 89.5009L115.174 89.8315ZM112.817 86.6782L111.639 85.101L112.081 84.7704L113.26 86.3476L112.817 86.6782ZM110.464 83.5218L109.285 81.9456L109.727 81.6151L110.906 83.1922L110.464 83.5218Z" fill="#BC4E29"/>
<path d="M108.104 80.3705L107.304 79.3001L108.602 78.9809L108.734 79.5167L108.245 79.6369L108.546 80.04L108.104 80.3705Z" fill="#BC4E29"/>
<path d="M110.645 79.0472L110.513 78.5115L112.425 78.041L112.557 78.5768L110.645 79.0472ZM114.468 78.1073L114.336 77.5705L116.248 77.1011L116.379 77.6369L114.468 78.1073ZM118.291 77.1664L118.16 76.6307L120.07 76.1602L120.202 76.697L118.291 77.1664ZM122.114 76.2265L121.982 75.6908L123.893 75.2203L124.026 75.7561L122.114 76.2265Z" fill="#BC4E29"/>
<path d="M127.094 75.7013L126.653 75.1106L125.936 75.2868L125.805 74.751L126.875 74.4878L127.535 75.3707L127.094 75.7013Z" fill="#BC4E29"/>
<path d="M136.521 88.3145L135.342 86.7342L135.785 86.4036L136.963 87.9798L136.521 88.3145ZM134.164 85.1612L132.986 83.585L133.427 83.2545L134.607 84.8306L134.164 85.1612ZM131.811 82.0078L130.632 80.4307L131.074 80.1011L132.252 81.6773L131.811 82.0078ZM129.45 78.8587L128.272 77.2815L128.715 76.9509L129.893 78.5281L129.45 78.8587Z" fill="#BC4E29"/>
<path d="M137.644 90.9507L137.512 90.4149L138.001 90.2947L137.7 89.8916L138.141 89.5611L138.941 90.6315L137.644 90.9507Z" fill="#BC4E29"/>
<path d="M122.352 94.7133L122.22 94.1776L124.131 93.7071L124.263 94.2428L122.352 94.7133ZM126.175 93.7734L126.043 93.2377L127.955 92.7672L128.087 93.303L126.175 93.7734ZM129.998 92.8335L129.866 92.2968L131.778 91.8274L131.909 92.3631L129.998 92.8335ZM133.821 91.8926L133.689 91.3569L135.601 90.8875L135.732 91.4232L133.821 91.8926Z" fill="#BC4E29"/>
<path d="M102.287 96.6107L101.648 95.7547L102.008 94.7496L102.528 94.9351L102.268 95.6615L102.73 96.2801L102.287 96.6107Z" fill="#BC4E29"/>
<path d="M111.715 109.221L110.537 107.645L110.978 107.314L112.157 108.891L111.715 109.221ZM109.358 106.067L108.185 104.494L108.627 104.164L109.805 105.74L109.358 106.067ZM107.001 102.914L105.823 101.345L106.265 101.016L107.444 102.592L107.001 102.914ZM104.645 99.7608L103.467 98.1837L103.908 97.8531L105.086 99.4303L104.645 99.7608Z" fill="#BC4E29"/>
<path d="M113.751 111.949L112.893 110.801L113.336 110.471L113.578 110.796L113.715 110.414L114.235 110.6L113.751 111.949Z" fill="#BC4E29"/>
<path d="M114.817 108.988L114.298 108.802L114.877 107.19L115.395 107.376L114.817 108.988ZM115.971 105.764L115.453 105.577L116.03 103.966L116.548 104.152L115.971 105.764ZM117.125 102.54L116.607 102.354L117.184 100.742L117.702 100.928L117.125 102.54ZM118.281 99.3164L117.763 99.1298L118.34 97.5185L118.858 97.704L118.281 99.3164Z" fill="#BC4E29"/>
<path d="M119.431 96.0925L118.912 95.906L119.172 95.1796L118.71 94.5609L119.152 94.2314L119.792 95.0863L119.431 96.0925Z" fill="#BC4E29"/>
<path d="M117.531 92.9848L116.352 91.4076L116.795 91.0771L117.973 92.6542L117.531 92.9848ZM115.174 89.8315L113.996 88.2543L114.438 87.9237L115.616 89.5009L115.174 89.8315ZM112.817 86.6782L111.639 85.101L112.081 84.7704L113.26 86.3476L112.817 86.6782ZM110.464 83.5218L109.285 81.9456L109.727 81.6151L110.906 83.1922L110.464 83.5218Z" fill="#BC4E29"/>
<path d="M107.724 80.4276L107.204 80.2421L107.688 78.8919L108.546 80.0401L108.104 80.3706L107.861 80.0452L107.724 80.4276Z" fill="#BC4E29"/>
<path d="M103.107 93.3238L102.589 93.1372L103.166 91.5259L103.684 91.7114L103.107 93.3238ZM104.262 90.1L103.744 89.9135L104.321 88.3011L104.839 88.4876L104.262 90.1ZM105.417 86.8762L104.899 86.6897L105.477 85.0773L105.995 85.2638L105.417 86.8762ZM106.571 83.6514L106.053 83.4659L106.63 81.8535L107.148 82.04L106.571 83.6514Z" fill="#BC4E29"/>
<path d="M131.828 107.191L131.696 106.654L132.445 106.47L132.705 105.743L133.225 105.93L132.865 106.935L131.828 107.191Z" fill="#BC4E29"/>
<path d="M116.536 110.951L116.404 110.415L118.315 109.945L118.448 110.481L116.536 110.951ZM120.358 110.01L120.227 109.475L122.139 109.005L122.27 109.541L120.358 110.01ZM124.181 109.071L124.05 108.535L125.961 108.064L126.093 108.6L124.181 109.071ZM128.005 108.131L127.873 107.595L129.784 107.124L129.916 107.66L128.005 108.131Z" fill="#BC4E29"/>
<path d="M113.232 111.764L113.715 110.414L114.235 110.6L114.099 110.982L114.492 110.885L114.624 111.421L113.232 111.764Z" fill="#BC4E29"/>
<path d="M114.817 108.988L114.298 108.802L114.877 107.19L115.395 107.376L114.817 108.988ZM115.971 105.764L115.453 105.577L116.03 103.966L116.548 104.152L115.971 105.764ZM117.125 102.54L116.607 102.354L117.184 100.742L117.702 100.928L117.125 102.54ZM118.281 99.3164L117.763 99.1298L118.34 97.5185L118.858 97.704L118.281 99.3164Z" fill="#BC4E29"/>
<path d="M119.431 96.0925L118.912 95.906L119.271 94.9008L120.309 94.6459L120.44 95.1816L119.691 95.3661L119.431 96.0925Z" fill="#BC4E29"/>
<path d="M122.352 94.7133L122.22 94.1776L124.131 93.7071L124.263 94.2428L122.352 94.7133ZM126.175 93.7734L126.043 93.2377L127.954 92.7672L128.087 93.303L126.175 93.7734ZM129.998 92.8335L129.866 92.2968L131.778 91.8274L131.909 92.3631L129.998 92.8335ZM133.821 91.8926L133.689 91.3569L135.601 90.8875L135.732 91.4232L133.821 91.8926Z" fill="#BC4E29"/>
<path d="M138.421 91.4222L137.901 91.2357L138.038 90.8543L137.644 90.9507L137.512 90.415L138.904 90.0719L138.421 91.4222Z" fill="#BC4E29"/>
<path d="M133.803 104.318L133.285 104.132L133.862 102.519L134.38 102.706L133.803 104.318ZM134.957 101.093L134.439 100.908L135.017 99.2956L135.535 99.4821L134.957 101.093ZM136.112 97.8697L135.593 97.6842L136.171 96.0718L136.689 96.2583L136.112 97.8697ZM137.266 94.6459L136.748 94.4604L137.325 92.848L137.843 93.0346L137.266 94.6459Z" fill="#BC4E29"/>
<path d="M167.107 107.77L184.347 102.129L172.428 88.4554L155.188 94.0957L167.107 107.77Z" fill="#FF2F01"/>
<path d="M180.097 117.555L162.857 123.196L167.107 107.77L184.347 102.129L180.097 117.555Z" fill="#F55620"/>
<path d="M150.938 109.521L162.857 123.196L167.107 107.77L155.188 94.0957L150.938 109.521Z" fill="#FC4218"/>
<path d="M166.967 108.098L166.242 107.266L166.658 106.904L167.143 107.459L167.843 107.23L168.014 107.755L166.967 108.098Z" fill="#BC4E29"/>
<path d="M169.819 107.165L169.646 106.641L171.451 106.05L171.622 106.574L169.819 107.165ZM173.426 105.985L173.254 105.46L175.058 104.87L175.229 105.394L173.426 105.985ZM177.033 104.804L176.861 104.28L178.664 103.689L178.836 104.214L177.033 104.804ZM180.64 103.624L180.468 103.1L182.271 102.509L182.443 103.033L180.64 103.624ZM184.246 102.444L184.075 101.919L185.878 101.329L186.05 101.853L184.246 102.444Z" fill="#BC4E29"/>
<path d="M187.853 101.264L187.682 100.739L188.16 100.583L187.83 100.203L188.246 99.8407L189.124 100.848L187.853 101.264Z" fill="#BC4E29"/>
<path d="M186.583 98.7724L185.34 97.3423L185.754 96.9796L186.998 98.4097L186.583 98.7724ZM184.089 95.9113L182.845 94.4812L183.26 94.1186L184.503 95.5486L184.089 95.9113ZM181.596 93.0554L180.352 91.6253L180.767 91.2626L182.01 92.6927L181.596 93.0554ZM179.101 90.1943L177.858 88.7642L178.272 88.4016L179.516 89.8316L179.101 90.1943ZM176.608 87.3332L175.365 85.9032L175.779 85.5405L177.023 86.9705L176.608 87.3332Z" fill="#BC4E29"/>
<path d="M174.114 84.4668L173.63 83.9114L172.93 84.1404L172.758 83.6161L173.806 83.2731L174.531 84.1041L174.114 84.4668Z" fill="#BC4E29"/>
<path d="M154.893 90.042L154.722 89.5176L156.525 88.928L156.698 89.4523L154.893 90.042ZM158.501 88.8617L158.33 88.3373L160.133 87.7477L160.305 88.272L158.501 88.8617ZM162.108 87.6814L161.937 87.157L163.74 86.5674L163.912 87.0917L162.108 87.6814ZM165.715 86.5011L165.543 85.9767L167.347 85.3871L167.519 85.9115L165.715 86.5011ZM169.322 85.3208L169.15 84.7965L170.954 84.2068L171.126 84.7312L169.322 85.3208Z" fill="#BC4E29"/>
<path d="M152.527 91.531L151.648 90.5238L152.918 90.1083L153.09 90.6326L152.612 90.7891L152.942 91.1683L152.527 91.531Z" fill="#BC4E29"/>
<path d="M164.995 105.836L163.751 104.405L164.166 104.043L165.409 105.474L164.995 105.836ZM162.502 102.975L161.258 101.544L161.673 101.182L162.916 102.613L162.502 102.975ZM160.007 100.114L158.764 98.6832L159.178 98.3205L160.422 99.7516L160.007 100.114ZM157.51 97.2532L156.266 95.8221L156.681 95.4594L157.924 96.8905L157.51 97.2532ZM155.023 94.3921L153.779 92.961L154.194 92.5983L155.437 94.0294L155.023 94.3921Z" fill="#BC4E29"/>
<path d="M182.532 120.579L182.36 120.055L183.094 119.814L183.299 119.07L183.831 119.217L183.548 120.248L182.532 120.579Z" fill="#BC4E29"/>
<path d="M164.496 126.481L164.325 125.956L166.128 125.366L166.3 125.891L164.496 126.481ZM168.104 125.3L167.933 124.776L169.736 124.185L169.908 124.711L168.104 125.3ZM171.711 124.12L171.54 123.596L173.343 123.005L173.515 123.53L171.711 124.12ZM175.318 122.94L175.147 122.415L176.95 121.825L177.122 122.35L175.318 122.94ZM178.925 121.759L178.753 121.235L180.557 120.644L180.729 121.17L178.925 121.759Z" fill="#BC4E29"/>
<path d="M161.331 127.517L161.712 126.135L162.244 126.281L162.136 126.672L162.521 126.546L162.693 127.071L161.331 127.517Z" fill="#BC4E29"/>
<path d="M162.78 124.332L162.249 124.185L162.786 122.236L163.313 122.381L162.78 124.332ZM163.855 120.434L163.322 120.287L163.859 118.338L164.392 118.485L163.855 120.434ZM164.929 116.536L164.397 116.389L164.934 114.439L165.465 114.586L164.929 116.536ZM166.007 112.64L165.476 112.493L166.012 110.544L166.545 110.691L166.007 112.64Z" fill="#BC4E29"/>
<path d="M167.077 108.739L166.544 108.592L166.828 107.563L167.843 107.23L168.014 107.755L167.282 107.995L167.077 108.739Z" fill="#BC4E29"/>
<path d="M169.819 107.165L169.646 106.641L171.451 106.05L171.622 106.574L169.819 107.165ZM173.426 105.985L173.254 105.46L175.058 104.87L175.229 105.394L173.426 105.985ZM177.033 104.804L176.861 104.28L178.664 103.689L178.836 104.214L177.033 104.804ZM180.64 103.624L180.468 103.1L182.271 102.509L182.443 103.033L180.64 103.624ZM184.246 102.444L184.075 101.919L185.878 101.329L186.05 101.853L184.246 102.444Z" fill="#BC4E29"/>
<path d="M188.664 101.675L188.132 101.529L188.24 101.137L187.853 101.263L187.682 100.739L189.045 100.293L188.664 101.675Z" fill="#BC4E29"/>
<path d="M184.369 117.268L183.836 117.121L184.373 115.172L184.905 115.319L184.369 117.268ZM185.442 113.37L184.911 113.224L185.447 111.275L185.979 111.421L185.442 113.37ZM186.516 109.472L185.984 109.326L186.521 107.376L187.054 107.522L186.516 109.472ZM187.59 105.573L187.058 105.427L187.596 103.478L188.127 103.624L187.59 105.573Z" fill="#BC4E29"/>
<path d="M147.206 110.847L146.503 110.042L146.787 109.012L147.319 109.159L147.114 109.903L147.621 110.484L147.206 110.847Z" fill="#BC4E29"/>
<path d="M159.674 125.152L158.43 123.721L158.845 123.358L160.088 124.789L159.674 125.152ZM157.18 122.291L155.937 120.86L156.351 120.497L157.595 121.928L157.18 122.291ZM154.686 119.43L153.443 117.999L153.857 117.636L155.101 119.067L154.686 119.43ZM152.193 116.569L150.949 115.138L151.364 114.776L152.607 116.206L152.193 116.569ZM149.699 113.708L148.455 112.277L148.87 111.915L150.113 113.345L149.699 113.708Z" fill="#BC4E29"/>
<path d="M161.863 127.663L160.92 126.582L161.337 126.219L161.603 126.526L161.712 126.135L162.244 126.281L161.863 127.663Z" fill="#BC4E29"/>
<path d="M162.78 124.332L162.249 124.185L162.786 122.236L163.313 122.381L162.78 124.332ZM163.855 120.434L163.322 120.287L163.859 118.338L164.392 118.485L163.855 120.434ZM164.929 116.536L164.397 116.389L164.934 114.439L165.465 114.586L164.929 116.536ZM166.007 112.64L165.476 112.493L166.012 110.544L166.545 110.691L166.007 112.64Z" fill="#BC4E29"/>
<path d="M167.077 108.739L166.544 108.592L166.749 107.848L166.242 107.266L166.658 106.904L167.361 107.709L167.077 108.739Z" fill="#BC4E29"/>
<path d="M164.995 105.836L163.751 104.405L164.166 104.043L165.409 105.474L164.995 105.836ZM162.502 102.975L161.258 101.544L161.673 101.182L162.916 102.613L162.502 102.975ZM160.007 100.114L158.764 98.6832L159.178 98.3205L160.422 99.7516L160.007 100.114ZM157.51 97.2532L156.266 95.8221L156.681 95.4594L157.924 96.8905L157.51 97.2532ZM155.023 94.3921L153.779 92.961L154.194 92.5983L155.437 94.0294L155.023 94.3921Z" fill="#BC4E29"/>
<path d="M152.152 91.616L151.62 91.4699L152 90.0875L152.942 91.1683L152.527 91.531L152.26 91.2253L152.152 91.616Z" fill="#BC4E29"/>
<path d="M147.856 107.209L147.324 107.062L147.861 105.113L148.393 105.26L147.856 107.209ZM148.93 103.314L148.398 103.167L148.935 101.219L149.467 101.365L148.93 103.314ZM150.004 99.4158L149.472 99.2697L150.009 97.3205L150.541 97.4666L150.004 99.4158ZM151.078 95.5174L150.546 95.3713L151.083 93.4221L151.615 93.5682L151.078 95.5174ZM136.802 114.169L136.197 113.159L136.671 112.876L137.036 113.485L137.658 113.245L137.859 113.763L136.802 114.169ZM139.568 113.09L139.368 112.572L141.082 111.904L141.282 112.422L139.568 113.09ZM142.997 111.754L142.796 111.236L144.51 110.569L144.711 111.087L142.997 111.754ZM135.252 111.58L134.307 110.001L134.782 109.718L135.726 111.296L135.252 111.58ZM146.422 110.418L146.221 109.9L146.705 109.711L146.906 110.229L146.422 110.418ZM133.365 108.423L132.42 106.845L132.894 106.561L133.839 108.14L133.365 108.423ZM157.66 141.307L157.133 141.145L157.151 141.084L157.679 141.246L157.66 141.307ZM158.219 139.488L157.691 139.325L158.231 137.563L158.759 137.725L158.219 139.488ZM159.299 135.97L158.771 135.808L159.31 134.046L159.838 134.208L159.299 135.97ZM160.377 132.446L159.85 132.285L160.39 130.523L160.917 130.685L160.377 132.446ZM161.457 128.929L160.93 128.768L161.47 127.006L161.997 127.169L161.457 128.929ZM105.056 120.955L104.654 120.577L105.912 119.235L106.315 119.613L105.056 120.955ZM107.574 118.271L107.171 117.893L108.429 116.546L108.832 116.924L107.574 118.271ZM110.091 115.588L109.688 115.209L110.946 113.862L111.349 114.24L110.091 115.588ZM112.608 112.904L112.205 112.525L113.463 111.178L113.866 111.556L112.608 112.904Z" fill="#BC4E29"/>
<path d="M124.123 149.338L107.77 127.458L134.297 120.935L150.65 142.815L124.123 149.338Z" fill="#FF2F01"/>
<path d="M99.6458 150.142L115.999 172.023L124.123 149.338L107.77 127.458L99.6458 150.142Z" fill="#FC4218"/>
<path d="M142.525 165.5L115.999 172.023L124.123 149.338L150.65 142.815L142.525 165.5Z" fill="#F55620"/>
<path d="M105.076 166.525C103.631 167.39 86.9507 181.798 73.5167 188.419C69.8132 190.245 64.9708 186 63.6423 182.147L51.1845 149.391L71.4639 139.155C71.551 139.374 75.1209 159.767 78.0306 166.803C79.0669 169.321 78.4348 168.963 80.7788 168.088L99.0924 158.762C99.0924 158.762 100.025 156.586 100.579 155.587C102.575 152.019 105.115 151.778 105.115 151.778L103.768 156.415C103.376 157.088 103.838 157.238 105.202 156.653L113.389 151.99C113.389 151.99 115.686 151.309 114.609 152.14C113.533 152.971 110.583 156.308 110.454 156.377C108.143 157.612 115.661 153.3 115.635 154.075C115.609 154.85 111.594 157.97 111.674 158.064C111.753 158.159 117.016 155.522 117.026 156.252C117.035 156.983 112.344 159.495 112.191 159.515C111.894 159.554 116.578 158.881 116.603 159.276C116.628 159.671 105.905 166.03 105.076 166.525Z" fill="#F69883"/>
<path d="M74.2856 153.189C72.7188 146.09 71.5137 139.28 71.4639 139.155L51.1845 149.391L59.0953 170.186C64.0454 164.418 69.0578 158.705 74.2856 153.189Z" fill="#EE734A"/>
<path d="M69.4993 124.395C69.4993 124.395 67.3356 109.652 56.5006 113.7C45.6655 117.747 48.1598 161.414 52.3815 168.391L81.1457 154.66L69.4993 124.395Z" fill="#430A6F"/>
</svg>
