<svg width="391" height="256" viewBox="0 0 391 256" fill="none" xmlns="http://www.w3.org/2000/svg">
<g clip-path="url(#clip0_2_5929)">
<path d="M371.022 219.768H19.5775C8.80215 219.768 0.0669861 227.502 0.0669861 237.043V238.725C0.0669861 248.266 8.80215 256 19.5775 256H371.022C381.798 256 390.533 248.266 390.533 238.725V237.043C390.533 227.502 381.798 219.768 371.022 219.768Z" fill="#E4F1F2"/>
<g opacity="0.6">
<path d="M133.938 95.1138H110.953V221.888H133.938V95.1138Z" fill="#D2F4F7"/>
<path d="M171.595 59.7766H148.609V221.888H171.595V59.7766Z" fill="#D2F4F7"/>
<path d="M212.684 125.772H189.698V221.888H212.684V125.772Z" fill="#D2F4F7"/>
<path d="M252.666 81.4196H229.681V221.888H252.666V81.4196Z" fill="#D2F4F7"/>
<path d="M292.857 144.584H269.871V221.888H292.857V144.584Z" fill="#D2F4F7"/>
</g>
<path d="M243.713 229.288C243.746 229.854 243.525 230.408 243.097 230.829C242.669 231.249 242.07 231.503 241.431 231.533C241.115 231.548 240.799 231.508 240.5 231.415C240.201 231.322 239.926 231.178 239.69 230.99C239.455 230.803 239.263 230.576 239.127 230.323C238.99 230.07 238.911 229.796 238.895 229.516L234.83 161.88C234.797 161.315 235.019 160.76 235.446 160.339C235.874 159.918 236.473 159.664 237.112 159.633C237.751 159.604 238.376 159.801 238.851 160.18C239.326 160.56 239.612 161.09 239.645 161.656L243.713 229.288ZM115.997 230.512C115.967 231.077 116.19 231.631 116.618 232.051C117.046 232.471 117.644 232.725 118.282 232.757C118.921 232.785 119.547 232.588 120.023 232.209C120.498 231.831 120.786 231.301 120.823 230.735L124.882 163.099C124.899 162.819 124.854 162.539 124.749 162.275C124.644 162.01 124.481 161.767 124.269 161.559C124.057 161.35 123.801 161.181 123.515 161.06C123.23 160.94 122.92 160.87 122.604 160.856C122.288 160.841 121.971 160.881 121.672 160.975C121.374 161.068 121.099 161.212 120.864 161.4C120.628 161.587 120.437 161.814 120.3 162.067C120.164 162.32 120.085 162.595 120.069 162.875L115.997 230.512Z" fill="#5D7D79"/>
<path d="M338.564 160.899L22.2593 160.304L34.1709 3.95782L330.529 3.97214L338.564 160.899Z" fill="#5D7D79"/>
<path d="M333.118 160.899L26.9337 160.304L38.3373 3.95782L325.47 3.97214L333.118 160.899Z" fill="white"/>
<path d="M335.745 3.42618C335.745 4.05583 334.164 4.57178 332.188 4.57178L32.8803 4.5559C30.9306 4.5559 29.3875 4.0438 29.4102 3.41044L29.4966 1.13203C29.527 0.509171 31.1075 0 33.0495 0H332.192C334.164 0 335.745 0.512255 335.745 1.13805V3.42618ZM345.839 164.048C345.839 164.761 344.168 165.349 342.034 165.345L6.11736 164.725C4.02856 164.719 2.37293 164.128 2.41032 163.417L2.51593 160.844C2.54596 160.131 4.23203 159.559 6.33587 159.563L342.042 160.166C344.168 160.17 345.839 160.747 345.839 161.461V164.048Z" fill="#5D7D79"/>
<path d="M239.785 21.8905C227.276 21.8797 217.033 30.868 216.887 41.9973C216.754 53.1634 226.83 62.2675 239.41 62.2935C252.004 62.3219 262.265 53.2482 262.332 42.0606C262.398 30.9141 252.295 21.8973 239.785 21.8905ZM239.514 50.6874C238.237 50.6842 236.972 50.4567 235.794 50.018C234.616 49.5794 233.548 48.9383 232.651 48.1319C231.755 47.3255 231.048 46.3698 230.571 45.3199C230.095 44.2701 229.858 43.147 229.875 42.0156C229.897 39.7253 230.94 37.5353 232.775 35.9211C234.61 34.307 237.091 33.3988 239.678 33.3939C240.953 33.3969 242.216 33.6235 243.392 34.0606C244.569 34.4977 245.636 35.1367 246.532 35.9406C247.428 36.7446 248.135 37.6976 248.613 38.7449C249.092 39.7921 249.331 40.9127 249.317 42.0422C249.286 46.8244 244.893 50.6975 239.514 50.6874Z" fill="#E4F1F2"/>
<path d="M239.846 25.5919C229.654 25.5862 221.311 32.914 221.197 41.984C221.09 51.0838 229.308 58.4919 239.543 58.5122C249.803 58.5331 258.162 51.1457 258.219 42.0384C258.282 32.9551 250.051 25.6009 239.846 25.5919ZM239.609 51.9985C238.134 51.9962 236.675 51.7349 235.316 51.2295C233.956 50.7242 232.724 49.9849 231.69 49.0546C230.655 48.1243 229.84 47.0214 229.291 45.81C228.742 44.5985 228.469 43.3026 228.49 41.9973C228.546 36.4953 233.608 32.0486 239.79 32.0537C241.262 32.0561 242.719 32.3166 244.077 32.8201C245.434 33.3236 246.666 34.0602 247.7 34.9873C248.735 35.9143 249.552 37.0136 250.104 38.2217C250.656 39.4297 250.932 40.7226 250.917 42.0258C250.88 47.5449 245.815 52.0105 239.609 51.9985Z" fill="#D6F6F8"/>
<path d="M258.073 42.4886V42.4867L250.956 42.4779C250.917 47.8557 245.981 52.2137 239.925 52.2005C239.561 52.2005 239.19 52.1834 238.829 52.153L238.773 58.4989C239.137 58.5198 239.506 58.5507 239.87 58.5507C249.87 58.5704 258.022 51.3667 258.073 42.4886Z" fill="#FF623F"/>
<path d="M220.988 42.0462C220.881 50.9749 228.796 58.2615 238.774 58.5439L238.834 52.0365C235.959 51.9041 233.254 50.7912 231.286 48.9313C229.318 47.0714 228.241 44.609 228.279 42.0607C228.292 40.6002 228.665 39.1598 229.372 37.8403C230.08 36.5209 231.104 35.3542 232.374 34.4221C230.881 32.6115 229.335 30.7934 227.984 29.2986C225.826 30.8332 224.079 32.7725 222.869 34.9768C221.66 37.1811 221.017 39.5956 220.988 42.0462Z" fill="#92EDF4"/>
<path d="M293.656 22.299L269.655 22.2809L269.664 19.8465L293.656 19.8646V22.299Z" fill="#D9D9D9"/>
<path d="M293.643 25.3805L269.642 25.3625V24.4312L293.65 24.4513L293.643 25.3805Z" fill="#E4F1F2"/>
<path d="M293.643 27.3161L269.63 27.2949L269.641 26.3578L293.643 26.3819V27.3161Z" fill="#D9D9D9"/>
<path d="M293.638 31.1904L269.614 31.1643L269.623 30.2341L293.638 30.2613V31.1904Z" fill="#D9D9D9"/>
<path d="M293.269 42.4773L267.257 42.4416L267.264 39.7896L293.272 39.8308L293.269 42.4773Z" fill="#E4F1F2"/>
<path d="M293.262 45.8318L267.242 45.7906L267.249 44.7793L293.269 44.8141L293.262 45.8318Z" fill="#D9D9D9"/>
<path d="M293.262 47.9354L267.237 47.891L267.242 46.8798L293.262 46.9199V47.9354Z" fill="#E4F1F2"/>
<path d="M293.254 50.0423L267.225 50.0012V48.9846L293.254 49.0237V50.0423Z" fill="#D9D9D9"/>
<path d="M209.32 22.6501L182.023 22.6271L182.072 19.8465L209.372 19.8684L209.32 22.6501Z" fill="#D9D9D9"/>
<path d="M209.278 26.1676L181.963 26.1413L181.984 25.0761L209.289 25.0968L209.278 26.1676Z" fill="#D9D9D9"/>
<path d="M209.214 30.5789L181.885 30.5583L181.901 29.498L209.229 29.5187L209.214 30.5789Z" fill="#E4F1F2"/>
<path d="M287.585 123.866L235.347 123.75L235.422 119.986L287.648 120.087L287.585 123.866Z" fill="#E4F1F2"/>
<path d="M287.519 128.639L235.259 128.512L235.284 127.07L287.548 127.197L287.519 128.639Z" fill="#E4F1F2"/>
<path d="M287.465 131.642L235.209 131.528L235.238 130.078L287.494 130.196L287.465 131.642Z" fill="#B6D1D3"/>
<path d="M287.423 134.641L235.151 134.521L235.163 133.088L287.448 133.209L287.423 134.641Z" fill="#B6D1D3"/>
<path d="M287.361 137.639L235.097 137.521L235.121 136.068L287.398 136.208L287.361 137.639Z" fill="#B6D1D3"/>
<path d="M218.995 123.713L160.287 123.586L160.386 119.82L219.07 119.938L218.995 123.713Z" fill="#E4F1F2"/>
<path d="M218.891 128.477L160.191 128.363L160.224 126.917L218.924 127.047L218.891 128.477Z" fill="#D9D9D9"/>
<path d="M218.862 131.487L160.107 131.356L160.145 129.914L218.883 130.037L218.862 131.487Z" fill="#E4F1F2"/>
<path d="M218.783 134.471L160.045 134.344L160.082 132.915L218.812 133.051L218.783 134.471Z" fill="#D9D9D9"/>
<path d="M218.729 137.486L159.974 137.348L160.024 135.909L218.749 136.04L218.729 137.486Z" fill="#E4F1F2"/>
<path d="M172.214 112.3L160.557 112.271L161.486 72.6683L173.102 72.6959L172.214 112.3Z" fill="#D6F6F8"/>
<path d="M187.399 112.332L175.763 112.312L176.375 85.3145L188.007 85.344L187.399 112.332Z" fill="#AEF0F5"/>
<path d="M204.322 112.376L192.694 112.332L193.436 78.0794L205.072 78.1126L204.322 112.376Z" fill="#FF623F"/>
<path d="M220.999 112.406L209.38 112.38L209.842 90.1209L221.449 90.1375L220.999 112.406Z" fill="#AEF0F5"/>
<path d="M237.688 112.433L226.039 112.409L226.606 84.0402L238.209 84.0548L237.688 112.433Z" fill="#D6F6F8"/>
<path d="M254.39 112.459L242.721 112.45L243.312 80.2795L254.94 80.3037L254.39 112.459Z" fill="#FF623F"/>
<path d="M271.067 112.511L259.419 112.479L260.102 73.1589L271.717 73.1698L271.067 112.511Z" fill="#AEF0F5"/>
<path d="M287.765 112.54L276.095 112.511L276.804 68.4594L288.448 68.4722L287.765 112.54Z" fill="#D6F6F8"/>
<path d="M84.1336 82.4279L84.0609 96.2581C81.3177 96.25 78.6258 95.5995 76.2584 94.3726C73.894 93.1447 71.9332 91.3911 70.57 89.2855C69.2097 87.1775 68.5003 84.7895 68.513 82.3617C68.5258 79.9339 69.2603 77.5518 70.6426 75.4551L84.1336 82.4279Z" fill="#D6F6F8"/>
<path d="M97.6213 89.4003L84.1338 82.4279L84.0608 96.2582C86.8028 96.2733 89.5003 95.645 91.8789 94.437L91.8783 94.4363C94.2567 93.2307 96.2367 91.4943 97.6213 89.4003Z" fill="#92EDF4"/>
<path d="M99.7544 82.4923C99.745 84.9211 99.0102 87.3045 97.6245 89.4007L84.1336 82.4279L99.7544 82.4923Z" fill="white"/>
<path d="M84.3556 82.0879L84.2882 82.349L84.1336 82.428L84.3556 82.0879Z" fill="#F6612F"/>
<path d="M84.1338 82.4281L99.753 82.4952C99.7689 80.0668 99.0605 77.6776 97.6996 75.5691C96.3342 73.4641 94.3716 71.7114 92.0061 70.4843C90.6517 69.7879 89.1887 69.2723 87.6643 68.9542C86.5314 68.7218 85.3726 68.6028 84.2097 68.5992C84.1636 68.5973 84.1174 68.5982 84.0714 68.6018V68.6009C81.3755 68.606 78.7276 69.2325 76.3882 70.4188C74.0103 71.6258 72.0297 73.3619 70.6426 75.4551L84.1338 82.4279L84.1949 82.3341V82.3299L84.3593 82.0883L84.286 82.3472L84.1338 82.4281ZM94.0138 114.009L85.1152 125.373L100.683 126.511C100.913 124.092 100.415 121.662 99.2394 119.469L99.2386 119.469C98.0657 117.276 96.2643 115.394 94.0138 114.009Z" fill="#92EDF4"/>
<path d="M86.4008 111.589C89.135 111.786 91.7618 112.62 94.0146 114.006L85.1152 125.373L86.4008 111.589Z" fill="#FF623F"/>
<path d="M84.7495 125.151L85.0382 125.23L85.1152 125.373L84.7495 125.151Z" fill="#F6612F"/>
<path d="M85.1156 125.373L86.4041 111.591C83.6708 111.388 80.9255 111.828 78.4455 112.866C75.9693 113.907 73.8432 115.504 72.2777 117.497C71.3884 118.638 70.6942 119.889 70.2176 121.21C69.8679 122.192 69.6439 123.206 69.5497 124.232C69.5439 124.273 69.5413 124.314 69.5418 124.354L69.5408 124.354C69.3371 126.734 69.8369 129.12 70.9911 131.278C72.1656 133.47 73.9667 135.353 76.2159 136.74L85.1153 125.373L85.0145 125.312L85.0097 125.312L84.7505 125.148L85.0362 125.232L85.1156 125.373Z" fill="#92EDF4"/>
<path d="M128.129 124.433L113.502 129.288C112.536 127.015 112.266 124.556 112.72 122.16C113.176 119.767 114.33 117.521 116.069 115.645C117.811 113.77 120.08 112.334 122.648 111.482C125.215 110.63 127.991 110.391 130.696 110.79L128.129 124.433Z" fill="#D6F6F8"/>
<path d="M125.561 138.073L128.129 124.433L113.502 129.288C114.461 131.562 116.083 133.572 118.203 135.111L118.204 135.11C120.322 136.65 122.858 137.672 125.561 138.073Z" fill="#92EDF4"/>
<path d="M133.612 137.384C131.045 138.239 128.267 138.478 125.562 138.076L128.129 124.433L133.612 137.384Z" fill="white"/>
<path d="M128.567 124.496L128.267 124.533L128.129 124.433L128.567 124.496Z" fill="#F6612F"/>
<path d="M128.129 124.433L133.609 137.383C136.178 136.534 138.449 135.098 140.191 133.223C141.928 131.345 143.081 129.098 143.536 126.704C143.79 125.335 143.814 123.941 143.608 122.567C143.451 121.547 143.165 120.545 142.755 119.582C142.741 119.543 142.723 119.505 142.703 119.468L142.704 119.468C141.741 117.238 140.138 115.27 138.055 113.755C135.935 112.216 133.399 111.194 130.696 110.79L128.129 124.433L128.25 124.45L128.254 124.449L128.568 124.499L128.268 124.53L128.129 124.433Z" fill="#92EDF4"/>
<path d="M128.128 82.2049L113.008 78.7323C113.693 76.3806 115.069 74.2312 116.996 72.5023C118.923 70.7763 121.326 69.5262 123.966 68.8756C126.609 68.2283 129.398 68.2084 132.052 68.818C134.707 69.4275 137.133 70.6451 139.087 72.3482L128.128 82.2049Z" fill="#D6F6F8"/>
<path d="M117.171 92.0589L128.128 82.2051L113.008 78.7323C112.315 81.0813 112.338 83.5509 113.074 85.8896L113.075 85.8893C113.808 88.2274 115.22 90.3545 117.171 92.0589Z" fill="#92EDF4"/>
<path d="M124.206 95.5925C121.55 94.9855 119.122 93.7673 117.17 92.0615L128.128 82.2049L124.206 95.5925Z" fill="white"/>
<path d="M128.446 82.4793L128.177 82.357L128.128 82.2049L128.446 82.4793Z" fill="#F6612F"/>
<path d="M128.128 82.2049L124.203 95.5905C126.857 96.2028 129.647 96.1841 132.291 95.5363C134.931 94.8837 137.334 93.6319 139.26 91.9048C140.356 90.9144 141.282 89.7861 142.006 88.5566C142.539 87.6418 142.955 86.6768 143.246 85.6798C143.259 85.6408 143.27 85.6009 143.277 85.5606L143.278 85.5608C143.937 83.2463 143.905 80.8198 143.183 78.52C142.448 76.182 141.036 74.0545 139.087 72.3481L128.128 82.205L128.216 82.2805L128.22 82.2815L128.444 82.4821L128.179 82.3555L128.128 82.2049Z" fill="#FF623F"/>
<path d="M90.9391 42.683H76.4365V58.7541H90.9391V42.683Z" fill="#D6F6F8"/>
<path d="M108.312 35.6846H93.8086V58.7542H108.312V35.6846Z" fill="#D6F6F8"/>
<path d="M125.685 28.0505H111.179V58.7542H125.685V28.0505Z" fill="#D6F6F8"/>
<path d="M77.037 35.993L75.8374 35.0312L91.7518 23.9097L101.766 29.8804L118.983 17.9273L120.175 18.8949L101.852 31.6144L91.8425 25.6468L77.037 35.993Z" fill="#D6F6F8"/>
<path d="M121.206 20.8614L123.279 15.8415L116.447 17.0041L121.206 20.8614Z" fill="#D6F6F8"/>
<path d="M65.1545 142.103C57.0984 165.462 43.4293 187.776 41.8705 212.446C41.8442 214.291 41.8355 216.136 41.8268 217.981C41.8285 218.006 41.8195 218.03 41.8015 218.049C41.7836 218.068 41.7581 218.08 41.7305 218.082V218.524C41.7479 219.144 40.6621 219.137 40.6446 218.524C40.5568 214.091 40.8524 209.659 41.529 205.266C41.6866 194.164 42.3083 183.077 43.3941 172.006C44.0247 165.548 44.6463 159.043 45.8548 152.647C46.9231 147.018 48.7182 141.42 52.2297 136.582C53.8058 134.404 55.7147 132.396 57.974 130.744C59.5414 129.597 61.8182 128.124 63.9547 129.015C65.8112 129.791 66.3454 131.9 66.5554 133.535C66.932 136.435 66.1001 139.342 65.1545 142.103Z" fill="#19BDA3"/>
<path d="M61.7004 142.984C60.361 145.068 59.2582 147.257 57.8461 149.309C56.4706 151.308 54.8141 153.033 53.124 154.796C55.1147 148.783 57.3382 142.833 59.7945 136.949C59.8652 136.779 59.5643 136.711 59.491 136.874C55.1646 146.554 51.5889 156.483 48.7887 166.593C48.9637 164.108 49.0555 161.614 49.2811 159.134C49.5907 155.729 50.0832 152.342 50.4214 148.941C50.421 148.928 50.4157 148.917 50.4064 148.908C50.3972 148.898 50.3845 148.893 50.3708 148.891C50.3571 148.889 50.3432 148.892 50.3315 148.899C50.3199 148.905 50.3112 148.915 50.3072 148.927C48.9426 155.353 48.0536 162.294 48.1808 168.854C47.9245 169.821 47.6639 170.787 47.4219 171.758C46.4099 175.814 45.4957 179.907 44.6792 184.038C44.6173 181.422 44.5949 178.822 44.8177 176.195C44.8227 176.136 44.7215 176.138 44.715 176.195C44.3673 179.287 44.1477 182.441 44.3875 185.549C43.0359 192.738 42.0682 199.995 41.7204 207.229C41.7044 207.561 42.2587 207.549 42.2951 207.229C43.2573 198.774 44.3721 190.384 45.9672 182.041C48.9495 177.744 51.0274 172.988 52.4797 168.125C52.4849 168.106 52.4814 168.086 52.4701 168.069C52.4589 168.052 52.4406 168.039 52.4192 168.034C52.3978 168.029 52.375 168.031 52.3555 168.041C52.3361 168.05 52.3215 168.066 52.3148 168.085C50.7377 172.62 48.5772 176.898 46.146 181.097C46.7916 177.799 47.5082 174.508 48.3334 171.224C49.6828 165.852 51.2311 160.526 52.9781 155.245C57.1393 152.361 59.9042 147.234 61.8254 143.03C61.8548 142.966 61.7378 142.925 61.7004 142.984Z" fill="#29879C"/>
<path d="M52.7379 141.981C51.8912 145.345 51.0526 149.08 51.0178 152.539C51.0163 152.699 51.3043 152.742 51.3403 152.578C52.0972 149.129 52.3845 145.484 52.8522 141.994C52.8599 141.937 52.7521 141.925 52.7379 141.981ZM42.7964 172.791C43.3977 182.989 43.8305 204.435 43.7233 202.608C38.8405 191.87 34.5859 180.97 31.1512 169.779C28.0331 159.61 24.3298 148.576 26.065 137.947C26.6476 134.383 28.7668 129.925 33.5833 129.895C38.2506 129.867 40.0674 134.598 40.513 137.951C41.2714 143.632 41.3382 149.449 41.7042 155.162C42.0916 161.037 42.4557 166.913 42.7964 172.791Z" fill="#29879C"/>
<path d="M39.6101 179.443C39.6383 179.418 39.6605 179.388 39.6754 179.355C39.6903 179.323 39.6977 179.287 39.697 179.252C39.721 171.358 39.7519 163.416 39.4148 155.527C39.4144 155.517 39.4096 155.507 39.4013 155.5C39.393 155.493 39.3819 155.489 39.3704 155.489C39.3588 155.489 39.3477 155.493 39.3394 155.5C39.3311 155.507 39.3263 155.517 39.3259 155.527C39.033 162.405 39.0218 169.323 39.0399 176.216C38.8191 174.928 38.6047 173.639 38.3966 172.348C36.4762 160.294 35.046 148.181 34.015 136.042C34.0066 135.942 33.8307 135.937 33.8373 136.038C34.5237 146.563 35.6314 157.061 37.0902 167.523C34.6016 161.473 32.4555 155.358 30.8641 149.061C30.8246 148.904 30.5581 148.971 30.5937 149.127C32.1671 156.014 34.2812 162.848 37.1774 169.397C37.1942 169.437 37.2205 169.473 37.2546 169.502C37.2886 169.532 37.3295 169.555 37.3744 169.569C37.4786 170.291 37.5679 171.015 37.6756 171.737C38.4849 177.164 39.3604 182.607 40.3554 188.033C38.8847 184.859 37.618 181.615 36.5613 178.315C36.5573 178.304 36.5486 178.294 36.5369 178.289C36.5252 178.283 36.5115 178.282 36.4987 178.285C36.4859 178.288 36.4749 178.295 36.4682 178.306C36.4614 178.316 36.4593 178.328 36.4624 178.339C37.3191 182.432 38.8182 186.464 40.6854 190.278C40.7078 190.325 40.7453 190.365 40.7932 190.393C41.9049 196.225 43.1709 202.031 44.6826 207.77C44.7722 208.11 45.343 207.976 45.273 207.637C43.3305 198.238 41.3089 188.872 39.6101 179.443ZM38.1559 191.567C40.6663 201.805 42.1519 212.219 42.5955 222.688C42.6043 222.827 42.3591 222.827 42.3503 222.688C42.1752 220.641 39.9802 207.603 27.5253 188.411C24.9972 184.516 22.2626 180.728 20.0472 176.681C18.0507 173.045 16.0542 169.083 15.5288 165.036C15.196 162.516 15.6076 157.446 19.2853 156.818C23.0419 156.174 26.6322 160.803 28.1471 163.23C30.6427 167.207 32.0876 171.735 33.5849 176.061C35.3538 181.17 36.8774 186.339 38.1559 191.567Z" fill="#19BDA3"/>
<path d="M36.9823 198.531C35.8275 190.644 34.1816 182.494 31.5454 174.894C31.5398 174.879 31.5279 174.867 31.5122 174.86C31.4965 174.852 31.4782 174.851 31.4612 174.855C31.4442 174.86 31.4298 174.87 31.421 174.883C31.4123 174.897 31.4098 174.913 31.4142 174.928C33.0024 182.061 34.7419 189.133 36.1988 196.284C35.7331 194.996 35.2531 193.712 34.7589 192.431C30.7227 181.983 26.1966 171.452 20.6029 161.572C20.5874 161.545 20.5346 161.565 20.547 161.594C24.2823 170.296 28.6314 178.759 32.3042 187.479C28.4646 182.611 25.0157 177.553 21.478 172.51C21.4683 172.497 21.4532 172.488 21.4359 172.484C21.4186 172.481 21.4004 172.484 21.3853 172.492C21.3701 172.5 21.3591 172.513 21.3546 172.528C21.3501 172.543 21.3525 172.559 21.3612 172.573C24.5424 178.066 28.4981 183.255 32.5706 188.254C32.5911 188.279 32.6217 188.296 32.6559 188.301C33.1926 189.593 33.7121 190.892 34.2143 192.197C35.4999 195.55 36.6832 198.931 37.7644 202.339C36.6079 200.266 35.3995 198.215 34.2711 196.128C34.2529 196.094 34.1878 196.119 34.2028 196.154C35.2634 198.631 36.5149 201.129 38.0963 203.381C40.2656 210.37 41.9591 217.468 42.9638 224.675C43.0018 224.947 43.4874 224.943 43.4495 224.668C42.2269 215.788 39.9414 207.072 36.9823 198.531Z" fill="#29879C"/>
<path d="M75.122 162.156C72.6242 167.195 68.7666 171.575 64.962 175.881C61.0634 180.289 57.259 184.751 53.8069 189.446C48.4211 196.792 40.3607 219.525 40.232 220.713C40.1843 221.068 39.5918 220.965 39.6141 220.62C39.8223 217.734 43.8771 196.613 46.5869 189.109C50.3404 178.714 54.8515 167.628 62.3523 158.839C64.0836 156.795 66.0419 154.91 68.198 153.213C69.8062 151.955 71.8689 150.361 74.1664 151.137C79.2539 152.842 76.6396 159.098 75.122 162.156Z" fill="#29879C"/>
<path d="M69.723 157.079C62.6861 165.238 56.675 173.947 51.9227 183.153C53.289 178.171 55.2389 173.438 57.4637 168.704C57.492 168.644 57.3783 168.602 57.3448 168.66C54.6154 173.35 52.8211 178.492 51.6612 183.655C46.9189 192.95 43.4624 202.749 41.5465 213.003C41.5296 213.094 41.6828 213.135 41.7048 213.042C43.2372 206.567 45.2511 200.188 47.7332 193.948C50.2578 189.793 53.3981 185.955 57.0707 182.536C57.0882 182.519 57.0977 182.497 57.0973 182.474C57.0968 182.452 57.0864 182.43 57.0683 182.414C57.0501 182.398 57.0256 182.388 56.9999 182.388C56.9742 182.388 56.9493 182.396 56.9305 182.412C53.6088 185.098 50.8077 188.249 48.6387 191.739C50.884 186.385 53.5009 181.16 56.4744 176.092C61.2308 173.056 65.5352 169 69.2074 164.992C69.3243 164.865 69.1303 164.682 68.9994 164.808C65.0992 168.551 60.9133 171.943 56.8244 175.497C60.6293 169.088 65.0029 162.959 70.0024 157.27C70.019 157.254 70.0318 157.235 70.0397 157.214C70.0477 157.194 70.0508 157.172 70.0487 157.15C70.0466 157.128 70.0395 157.107 70.0277 157.088C70.016 157.069 69.9999 157.052 69.9804 157.039C69.961 157.026 69.9386 157.016 69.9147 157.011C69.8909 157.006 69.8661 157.005 69.8419 157.009C69.8176 157.013 69.7946 157.021 69.7741 157.033C69.7537 157.045 69.7363 157.061 69.723 157.079Z" fill="#19BDA3"/>
<path d="M70.2067 162.217C69.0375 163.207 67.7718 164.24 66.7641 165.361C66.7599 165.365 66.7576 165.37 66.7577 165.376C66.7578 165.381 66.7603 165.386 66.7647 165.39C66.7691 165.394 66.775 165.396 66.7812 165.396C66.7874 165.397 66.7934 165.395 66.798 165.391C68.0489 164.483 69.198 163.348 70.2985 162.299C70.31 162.288 70.3163 162.273 70.316 162.258C70.3158 162.244 70.3089 162.229 70.297 162.219C70.2851 162.208 70.269 162.202 70.2521 162.202C70.2353 162.202 70.219 162.207 70.2067 162.217Z" fill="#E2B1A5"/>
<path d="M27.83 199.663C27.8923 200.583 27.9707 201.612 28.0618 202.725C29.1439 215.958 32.0387 241.335 32.0387 242.81C32.0387 244.104 35.9708 244.639 38.752 244.855C38.963 244.872 39.1676 244.886 39.3626 244.899C39.425 244.903 39.4857 244.908 39.5465 244.91C39.6679 244.919 39.7846 244.926 39.8981 244.932C39.9381 244.934 39.978 244.936 40.018 244.939C40.0292 244.939 40.0404 244.94 40.0532 244.94C40.1091 244.943 40.1651 244.946 40.2178 244.949C40.3217 244.954 40.4208 244.96 40.5151 244.963C40.5695 244.966 40.6222 244.968 40.6733 244.97C40.7325 244.973 40.79 244.975 40.846 244.977C40.8811 244.978 40.9131 244.98 40.9451 244.981C40.9627 244.983 40.9818 244.983 40.9994 244.983C41.0234 244.984 41.0458 244.985 41.0682 244.985C41.3127 244.994 41.4518 244.997 41.4518 244.997C43.1753 244.952 44.8944 244.818 46.6003 244.596C46.6722 244.585 46.7458 244.575 46.8193 244.564C46.928 244.548 47.0367 244.531 47.1454 244.514C47.4331 244.467 47.716 244.416 47.9893 244.361C48.0581 244.349 48.1268 244.334 48.1923 244.319C48.3266 244.289 48.4593 244.259 48.5871 244.228C48.6511 244.213 48.7134 244.196 48.7758 244.18C48.9004 244.148 49.0219 244.114 49.1386 244.078C49.2841 244.033 49.4247 243.988 49.5558 243.94C49.9232 243.818 50.2612 243.636 50.5516 243.403C50.6464 243.329 50.7231 243.238 50.777 243.136C50.8309 243.034 50.8608 242.924 50.8649 242.812C50.8649 242.776 50.8665 242.727 50.8697 242.663C50.8713 242.638 50.8729 242.611 50.8745 242.582C50.8985 242.203 50.964 241.469 51.0647 240.45C51.0711 240.382 51.0775 240.314 51.0855 240.243C51.1143 239.946 51.1462 239.627 51.1814 239.288C51.199 239.118 51.2166 238.942 51.2341 238.763C51.2565 238.54 51.2805 238.31 51.3061 238.071C51.3205 237.926 51.3348 237.779 51.3508 237.629C51.3844 237.302 51.4196 236.964 51.4563 236.614C51.4691 236.501 51.4803 236.388 51.4915 236.272C51.5394 235.82 51.589 235.351 51.6401 234.864C51.6593 234.688 51.6769 234.508 51.6961 234.327C51.8351 233.011 51.9854 231.587 52.1436 230.087C52.158 229.951 52.1724 229.814 52.1868 229.677C52.3323 228.301 52.4825 226.866 52.6375 225.396C52.6519 225.249 52.6679 225.1 52.6839 224.953C52.7398 224.415 52.7963 223.873 52.8533 223.328C52.8693 223.164 52.8869 223 52.9045 222.836C52.9732 222.178 53.0414 221.516 53.1091 220.851C53.1379 220.577 53.1666 220.301 53.1954 220.025C53.2002 219.968 53.2066 219.912 53.213 219.855C53.2466 219.523 53.2817 219.19 53.3153 218.856C53.3377 218.625 53.3616 218.395 53.3856 218.164C53.4016 218.011 53.416 217.86 53.432 217.708C53.4623 217.404 53.4932 217.1 53.5247 216.797C53.5854 216.19 53.6462 215.585 53.7069 214.983C53.7101 214.947 53.7133 214.912 53.7181 214.876C53.7437 214.612 53.7692 214.347 53.7964 214.082C53.8108 213.934 53.8252 213.784 53.8412 213.635C53.8699 213.337 53.8987 213.041 53.9291 212.745C53.9435 212.596 53.9579 212.449 53.9722 212.302C54.0298 211.723 54.0857 211.149 54.1385 210.583C54.1417 210.557 54.1433 210.532 54.1465 210.506C54.172 210.234 54.1976 209.967 54.2232 209.7C54.2264 209.661 54.2296 209.623 54.2344 209.586C54.3655 208.208 54.4885 206.876 54.6004 205.617C54.634 205.249 54.6659 204.886 54.6963 204.53C54.7075 204.385 54.7203 204.242 54.7331 204.101C54.7731 203.637 54.8109 203.185 54.8466 202.746C54.8833 202.301 54.9169 201.868 54.9505 201.452C54.9649 201.273 54.9776 201.098 54.9904 200.925C54.9984 200.809 55.0064 200.696 55.016 200.583C55.024 200.471 55.032 200.36 55.04 200.251C55.0432 200.192 55.048 200.134 55.0528 200.077C55.0672 199.878 55.08 199.684 55.0927 199.494C55.0927 199.48 55.0943 199.465 55.0959 199.449C55.1103 199.242 55.1231 199.041 55.1343 198.848C55.2893 196.353 55.3021 194.835 55.1039 194.835H27.8092C27.5902 194.835 27.6286 196.686 27.83 199.663Z" fill="#FD5922"/>
<path d="M44.1149 216.034C43.9758 226.152 43.4659 235.419 38.7522 244.855C38.9632 244.872 39.1677 244.886 39.3628 244.899C39.4251 244.903 39.4874 244.908 39.5466 244.911C39.6681 244.919 39.7847 244.926 39.8982 244.932C39.9382 244.935 39.9782 244.936 40.0181 244.939C40.0293 244.939 40.0405 244.94 40.0533 244.94C40.1092 244.943 40.1652 244.946 40.2179 244.949C40.3218 244.954 40.4209 244.96 40.5152 244.963C40.5696 244.966 40.6223 244.969 40.6735 244.97C40.7326 244.973 40.7901 244.976 40.8461 244.977C40.8797 244.978 40.9132 244.98 40.9452 244.981C40.9628 244.983 40.982 244.983 40.9995 244.983C41.0235 244.984 41.0459 244.986 41.0683 244.986C41.3128 244.994 41.4519 244.997 41.4519 244.997C43.1754 244.952 44.8945 244.818 46.6004 244.596C46.6724 244.585 46.7459 244.575 46.8194 244.564C46.9281 244.548 47.0368 244.531 47.1455 244.514C47.4332 244.468 47.7161 244.417 47.9895 244.361C48.0582 244.349 48.1269 244.335 48.1925 244.319C48.3267 244.289 48.4594 244.26 48.5873 244.228C48.6512 244.213 48.7135 244.196 48.7759 244.18C48.9006 244.148 49.022 244.114 49.1387 244.078C49.2842 244.035 49.4248 243.989 49.5559 243.94C49.924 243.82 50.2622 243.638 50.5517 243.403C50.6466 243.329 50.7232 243.238 50.7771 243.136C50.831 243.034 50.8609 242.924 50.865 242.812C50.865 242.776 50.8666 242.727 50.8698 242.663C50.8714 242.638 50.873 242.611 50.8746 242.582C50.8986 242.203 50.9641 241.469 51.0648 240.45C51.0712 240.382 51.0776 240.314 51.0856 240.243C51.1144 239.946 51.1463 239.627 51.1815 239.288C51.1975 239.118 51.2167 238.943 51.2343 238.763C51.2566 238.541 51.2806 238.31 51.3062 238.071C51.3206 237.926 51.335 237.779 51.3509 237.629C51.3845 237.302 51.4197 236.964 51.4564 236.614C51.4676 236.501 51.4804 236.388 51.4916 236.272C51.5396 235.821 51.5891 235.351 51.6403 234.864C51.6578 234.687 51.677 234.509 51.6962 234.327C51.8353 233.011 51.9855 231.588 52.1438 230.087C52.1581 229.952 52.1725 229.814 52.1869 229.677C52.3324 228.301 52.4826 226.866 52.6377 225.396C52.6521 225.249 52.668 225.1 52.684 224.953C52.74 224.415 52.7964 223.874 52.8535 223.328C52.871 223.164 52.887 223 52.9046 222.836C52.9733 222.178 53.0415 221.516 53.1092 220.852C53.138 220.577 53.1668 220.302 53.1955 220.025C53.2003 219.969 53.2067 219.912 53.2131 219.855C53.2467 219.523 53.2802 219.189 53.3154 218.856C53.3378 218.626 53.3618 218.395 53.3857 218.164C53.4017 218.011 53.4161 217.86 53.4321 217.708C53.4625 217.404 53.4934 217.1 53.5248 216.797C53.5855 216.19 53.6463 215.585 53.707 214.983C53.7102 214.947 53.7134 214.912 53.7182 214.877C53.7438 214.612 53.7694 214.347 53.7965 214.083C53.8109 213.934 53.8253 213.784 53.8413 213.635C53.8701 213.337 53.8988 213.041 53.9292 212.745C53.9436 212.597 53.958 212.449 53.9724 212.302C54.0283 211.723 54.0842 211.149 54.1386 210.583C54.1418 210.557 54.1434 210.532 54.1466 210.506C54.1722 210.235 54.1977 209.967 54.2233 209.7C54.2265 209.661 54.2297 209.623 54.2345 209.586C54.3656 208.208 54.4886 206.876 54.6005 205.617C54.6325 205.249 54.6645 204.886 54.6964 204.53C54.7076 204.385 54.7204 204.243 54.7332 204.101C54.7732 203.637 54.8099 203.185 54.8467 202.747C54.8835 202.301 54.917 201.868 54.9506 201.452C54.9634 201.273 54.9778 201.098 54.9906 200.925C54.9985 200.809 55.0065 200.696 55.0161 200.583C55.0241 200.471 55.0321 200.361 55.0401 200.252C55.0433 200.192 55.0481 200.134 55.0529 200.078C55.0657 199.878 55.0801 199.684 55.0929 199.494C55.0929 199.48 55.0945 199.465 55.0961 199.449C55.1088 199.243 55.1216 199.042 55.1344 198.848C55.144 198.701 55.152 198.558 55.16 198.417C52.4059 197.13 50.28 197.444 47.3996 197.541C44.8182 197.629 42.4605 196.995 39.8631 196.888C35.6271 196.711 31.4306 197.679 27.8301 199.663C27.8924 200.583 27.9708 201.612 28.0619 202.725C36.1723 203.526 44.2172 208.597 44.1149 216.034Z" fill="#BC4E29"/>
<path d="M24.9132 191.598H57.9995C58.102 191.598 58.2002 191.634 58.2727 191.698C58.3451 191.762 58.3859 191.849 58.3859 191.94V201.205C58.3859 201.296 58.3451 201.383 58.2727 201.447C58.2002 201.511 58.102 201.547 57.9995 201.547H24.9132C24.8107 201.547 24.7125 201.511 24.64 201.447C24.5676 201.383 24.5269 201.296 24.5269 201.205V191.94C24.5269 191.849 24.5676 191.762 24.64 191.698C24.7125 191.634 24.8107 191.598 24.9132 191.598Z" fill="#FD5922"/>
<path d="M284.898 135.55C284.901 134.596 284.355 133.879 284.202 132.992C284.047 132.102 283.572 131.281 282.846 130.65C282.812 130.615 282.766 130.589 282.715 130.577C282.668 130.574 282.621 130.583 282.579 130.602C280.935 131.211 279.985 132.773 279.441 134.193C279.035 135.253 278.837 136.361 278.571 137.452C278.442 138.014 278.277 138.569 278.077 139.115C277.962 139.418 277.379 140.145 277.562 140.469C277.743 140.79 278.576 140.64 278.893 140.594C279.561 140.497 280.224 140.382 280.883 140.249C281.947 140.034 283.151 139.733 283.792 138.899C284.531 137.937 284.893 136.704 284.898 135.55Z" fill="#363636"/>
<path d="M274.4 204.083C272.654 211.66 273.343 219.434 272.156 227.095C266.801 225.218 260.734 228.652 255.252 227.323C253.858 226.985 259.971 211.187 261.116 207.479C262.257 203.777 274.4 204.082 274.4 204.083Z" fill="#F69883"/>
<path d="M234.285 234.338C234.885 235.521 244.348 237.117 248.71 237.146C253.081 237.176 258.96 234.919 261.168 234.724C263.383 234.524 263.119 236.457 263.657 236.513C264.86 236.64 273.478 236.579 273.478 236.579C273.478 236.579 274.585 234.441 275.269 230.911C275.605 229.194 275.577 227.778 275.341 226.607C274.857 224.18 273.486 222.804 272.614 221.986C272.614 221.986 271.265 222.541 269.603 224.085C267.941 225.638 259.232 223.857 259.232 223.857C259.232 223.857 258.947 223.236 259.565 222.227C260.192 221.217 257.036 219.379 255.035 219.814C253.039 220.251 253.572 222.617 251.965 223.734C250.359 224.859 239.022 227.961 235.824 228.269C234.463 228.399 233.917 229.393 233.767 230.546C233.564 232.096 234.078 233.934 234.285 234.338Z" fill="#363636"/>
<path d="M234.285 234.339C234.885 235.521 244.348 237.118 248.71 237.146C253.081 237.176 258.96 234.919 261.168 234.724C263.383 234.525 263.119 236.457 263.657 236.514C264.86 236.64 273.478 236.579 273.478 236.579C273.478 236.579 274.585 234.441 275.269 230.911C275.605 229.194 275.577 227.778 275.341 226.607C263.541 233.345 246.753 235.402 233.767 230.546C233.564 232.097 234.078 233.934 234.285 234.339Z" fill="#A76E44"/>
<path d="M294.462 191.96C299.473 197.721 306.14 202.07 311.563 207.53C306.761 209.747 305.786 215.679 301.346 218.312C300.217 218.982 291.29 205.414 289.017 202.412C286.746 199.417 294.461 191.959 294.462 191.96Z" fill="#F69883"/>
<path d="M294.081 235.828C295.4 236.178 302.504 231.202 305.21 228.474C307.923 225.74 309.727 220.651 310.929 219.141C312.132 217.624 313.521 218.979 313.897 218.675C314.739 217.996 319.992 212.532 319.992 212.532C319.992 212.532 318.956 210.52 316.542 207.918C315.37 206.65 314.215 205.796 313.13 205.224C310.883 204.036 308.935 204.053 307.741 204.098C307.741 204.098 307.357 205.289 307.575 207.285C307.8 209.287 301.012 213.674 301.012 213.674C301.012 213.674 300.337 213.472 299.907 212.462C299.481 211.446 296.064 212.302 295.182 213.829C294.305 215.355 296.533 216.475 296.442 218.174C296.357 219.877 291.873 228.922 290.154 231.125C289.421 232.062 289.883 233.018 290.717 233.821C291.837 234.903 293.629 235.709 294.081 235.828Z" fill="#363636"/>
<path d="M294.081 235.828C295.4 236.178 302.504 231.202 305.21 228.474C307.923 225.74 309.727 220.651 310.929 219.141C312.131 217.624 313.521 218.979 313.897 218.675C314.739 217.995 319.992 212.532 319.992 212.532C319.992 212.532 318.956 210.52 316.542 207.917C315.37 206.65 314.215 205.796 313.13 205.224C311.281 216.799 302.606 228.633 290.717 233.821C291.837 234.903 293.629 235.709 294.081 235.828Z" fill="#A76E44"/>
<path d="M289.525 208.026C287.538 207.989 285.602 207.236 283.807 205.408C277.372 198.852 272.018 192.184 267.962 184.454C265.812 180.356 264.964 176.499 263.793 172.235C263.26 170.294 262.626 168.527 262.013 166.639C261.693 165.656 261.442 164.677 261.398 163.673C261.341 162.343 261.818 161.219 262.278 159.984C278.147 149.76 294.014 142.604 313.358 138.43C321.372 138.82 334.915 140.992 340.632 144.497C346.349 148.002 345.804 150.946 346.781 154.833C347.759 158.72 346.843 160.629 345.8 163.809C345.052 166.137 343.536 168.214 341.447 169.775C339.733 171.043 337.55 171.186 335.441 171.256C331.445 171.39 327.342 170.664 323.443 170.021C314.911 168.613 306.516 167.175 297.911 166.574C295.876 166.432 293.989 166.643 292.082 166.541C290.174 166.44 288.543 166.169 286.711 166.023C285.326 165.912 283.993 165.747 282.731 166.283C282.277 166.477 281.862 166.839 281.764 167.178C281.665 167.517 281.763 167.692 281.793 167.914C281.904 168.739 282.336 169.374 282.688 170.106C283.459 171.712 284.013 173.17 284.916 174.779C286.661 177.887 288.656 180.796 291.212 183.587C293.768 186.378 296.228 189.109 299.396 191.597C301.909 193.571 305.413 195.593 306.734 198.311C302.341 201.37 295.686 208.14 289.525 208.026Z" fill="#363636"/>
<path d="M344.132 74.1597C344.129 74.2488 344.125 74.3379 344.121 74.427C344.114 74.5868 344.104 74.7467 344.093 74.9066C344.092 74.9187 344.092 74.9309 344.09 74.9432C344.081 75.114 344.065 75.2848 344.05 75.4557C343.94 76.6748 343.634 77.7999 343.34 78.9653C343.324 79.0299 343.31 79.0934 343.296 79.1581C343.098 80.1319 343.225 81.124 343.225 82.1198C343.225 82.1649 343.223 82.2101 343.223 82.2553C343.221 82.564 343.218 82.8715 343.215 83.1802C343.208 83.8941 343.404 84.9936 343.17 85.7429C343.142 85.8335 343.106 85.9217 343.061 86.0065C343.004 86.1152 342.926 86.2143 342.83 86.2994C342.347 86.7191 340.836 87.2707 339.899 87.4879C339.877 87.4928 339.855 87.4977 339.831 87.5038C339.798 87.5111 339.769 87.5184 339.738 87.5233C339.707 87.5294 339.678 87.5355 339.649 87.5404C339.623 87.5453 339.596 87.5502 339.567 87.5551C338.786 87.671 337.985 87.5929 337.251 87.3293C335.389 86.7057 333.5 85.112 331.316 83.2693C330.137 82.2592 329.032 81.1835 328.007 80.0489C327.379 79.3619 326.695 78.5711 325.989 77.6815C324.965 76.3962 324.019 75.0634 323.156 73.6886C323.12 73.6313 323.084 73.5752 323.049 73.5203C322.96 73.3775 322.874 73.2384 322.793 73.1029C322.73 72.9992 322.669 72.8991 322.611 72.8015C322.586 72.76 322.562 72.7185 322.538 72.6783C322.025 72.3393 321.542 71.9665 321.092 71.5629C320.862 71.3542 320.643 71.1407 320.438 70.921C319.765 70.2129 319.207 69.4251 318.781 68.5805C318.572 68.1626 318.398 67.7314 318.261 67.2906C318.21 67.1259 318.166 66.9611 318.128 66.7963C317.791 65.3674 317.896 63.9311 318.482 62.6485C319.677 60.0347 322.839 58.5385 325.863 57.8808C325.912 57.9699 325.954 58.0638 326.005 58.1493C326.4 58.8131 327.357 59.0047 328.199 59.1011C330.702 59.3891 333.25 59.4745 335.756 59.7332C337.548 60.9913 338.951 62.5363 340.632 63.8676C342.063 65.0013 342.979 65.6041 343.431 67.4211C343.781 68.8307 344.004 70.2625 344.097 71.7033C344.151 72.5208 344.162 73.3397 344.132 74.1597Z" fill="#3B311D"/>
<path d="M354.978 164.389C354.005 166.546 352.681 168.958 350.6 170.449C348.85 171.702 346.494 172.12 344.333 172.431C340.238 173.02 336.044 173.118 331.903 173.091C322.839 173.028 313.858 172.44 304.792 172.907C302.648 173.018 300.5 173.176 298.352 173.026C296.33 172.882 294.338 172.519 292.322 172.331C290.892 172.197 289.376 172.076 287.936 172.246C287.842 172.256 287.747 172.269 287.653 172.282C287.105 172.363 286.524 172.477 286.266 172.956C286.216 173.054 286.181 173.157 286.163 173.263C286.13 173.425 286.123 173.594 286.105 173.748C285.998 174.703 285.933 175.663 285.837 176.619C285.627 178.716 285.387 180.81 285.14 182.904C284.664 186.949 284.024 190.971 283.385 194.997C282.762 198.918 282.103 202.837 281.742 206.785C281.429 210.209 281.569 213.959 280.47 217.287C280.399 217.507 280.314 217.724 280.215 217.936C279.998 218.393 279.695 218.795 279.228 219.003C278.996 219.105 278.74 219.156 278.481 219.153C277.078 219.157 275.596 218.561 274.24 218.281C272.603 217.941 270.965 217.607 269.332 217.255C268.648 217.109 267.964 216.958 267.281 216.803C265.356 216.364 263.43 215.898 261.574 215.263C261.011 215.081 260.46 214.872 259.923 214.638C259.901 214.629 259.879 214.618 259.857 214.608H259.855C259.424 214.415 259.025 214.169 258.671 213.879C257.24 212.663 258.087 210.196 258.305 208.718C259.495 200.657 260.671 192.601 262.188 184.582C262.99 180.332 263.887 176.085 264.512 171.808C264.797 169.862 264.901 167.922 265.052 165.967C265.09 165.426 265.164 164.886 265.275 164.353C265.373 163.889 265.517 163.434 265.706 162.993C266.255 161.726 267.137 160.589 268.049 159.508L321.621 142.48C321.621 142.48 343.706 142.48 349.322 146.126C354.937 149.771 355.742 155.845 355.742 155.845C356.386 158.857 356.272 161.524 354.978 164.389Z" fill="#363636"/>
<path d="M259.856 214.608L267.862 216.424C265.198 215.939 262.552 215.343 259.923 214.638C259.799 214.605 259.677 214.572 259.553 214.538L259.855 214.608H259.856ZM269.512 216.711C269.503 216.738 269.494 216.765 269.485 216.793L267.862 216.424C268.413 216.525 268.962 216.62 269.512 216.711ZM280.214 217.936C276.624 217.704 273.051 217.295 269.512 216.711C271.822 209.738 274.132 202.767 276.441 195.795C278.553 189.419 279.815 178.024 286.162 173.263C286.13 173.425 286.123 173.594 286.105 173.748C285.997 174.703 285.932 175.663 285.836 176.619C285.627 178.716 285.386 180.81 285.14 182.904C284.664 186.949 284.023 190.971 283.385 194.997C282.762 198.918 282.103 202.837 281.741 206.785C281.429 210.209 281.569 213.958 280.47 217.287C280.399 217.507 280.313 217.724 280.214 217.936ZM354.978 164.389C354.004 166.546 352.681 168.958 350.6 170.449C348.85 171.702 346.494 172.12 344.333 172.431C340.238 173.02 336.044 173.118 331.903 173.091C322.839 173.028 313.858 172.44 304.791 172.907C302.648 173.018 300.5 173.176 298.352 173.026C296.33 172.882 294.338 172.519 292.321 172.331C290.892 172.197 289.375 172.076 287.936 172.246C288.723 171.962 289.594 171.843 290.442 171.731C298.863 170.621 307.255 170.699 315.301 168.122C321.704 166.072 320.311 162.444 315.928 159.206C310.765 155.393 303.405 154.352 296.962 156.521C292.68 157.963 288.867 159 284.143 158.657C280.4 160.339 277.5 163.411 273.402 164.217C270.746 164.741 267.92 164.853 265.275 164.353C265.373 163.889 265.517 163.434 265.706 162.993C266.254 161.726 267.137 160.589 268.048 159.508L321.621 142.48C321.621 142.48 343.706 142.48 349.322 146.126C354.937 149.771 355.742 155.845 355.742 155.845C356.385 158.857 356.272 161.524 354.978 164.389Z" fill="#262626"/>
<path d="M357.028 159.751C356.931 160.568 346.014 158.733 345.041 158.237C346.071 154.666 346.392 150.497 346.703 146.785C346.731 146.453 346.758 146.124 346.787 145.8C344.75 148.146 342.92 150.664 341.018 153.104C340.524 153.736 339.99 154.399 339.19 154.694C338.511 154.944 337.743 154.89 337.013 154.813C334.435 154.543 331.892 154.059 329.417 153.366C324.128 151.89 319.222 149.501 314.982 146.337C314.6 146.053 314.224 145.76 313.855 145.462C314.619 145.041 315.356 144.584 316.064 144.092C316.064 144.092 316.063 144.091 316.066 144.091C317.979 142.75 319.201 141.396 319.941 139.97V139.968C321.918 136.157 320.453 131.83 319.555 125.867C318.628 119.699 318.88 113.206 320.909 107.16C321.94 104.047 323.452 101.075 325.402 98.3291C327.449 95.4772 330.309 92.9133 332.664 90.225L343.956 88.0699L345.529 89.4477C346.517 90.6448 347.142 92.108 347.776 93.4662C348.575 95.1782 349.293 96.9209 349.964 98.6757C350.808 100.883 351.569 103.121 352.216 105.382C352.608 106.75 352.957 108.127 353.264 109.512C354.998 117.399 355.346 125.442 355.905 133.444C356.503 142.022 358.026 151.201 357.028 159.751Z" fill="#D9D9D9"/>
<path d="M261.745 133.823C261.827 134.687 262.229 135.205 262.655 135.513C262.97 135.744 263.349 135.898 263.752 135.96C263.757 135.96 263.761 135.961 263.765 135.961C263.829 136.258 264.003 136.527 264.261 136.726C264.541 136.93 264.887 137.05 265.249 137.069H265.265C267.541 138.424 269.22 138.004 269.267 137.398C269.315 136.794 266.994 136.041 266.994 136.041C266.997 136.041 266.999 136.04 267.001 136.039C267.194 135.971 271.198 134.606 273.61 136.449C276.084 138.34 280.177 137.818 280.177 137.818L286.055 138.438C286.069 138.422 286.084 138.407 286.097 138.392C291.027 139.574 298.005 141.117 304.459 142.072C309.47 142.814 306.664 142.477 314.85 142.959C317.194 143.098 319.691 143.227 321.981 142.661C323.342 142.325 324.532 141.685 325.631 140.91C327.841 139.353 329.997 137.568 331.604 135.5L321.665 127.209C320.63 127.884 319.54 128.49 318.404 129.022C318.385 129.031 318.367 129.04 318.348 129.048C312.653 131.762 307.031 131.261 304.201 131.126C299.41 130.898 293.139 130.939 284.531 131.594C283.479 131.673 282.391 131.763 281.268 131.861C281.062 131.892 280.855 131.922 280.65 131.952C280.65 131.952 280.629 131.942 280.59 131.922C280.032 131.643 275.702 129.469 273.071 128.17C272.473 127.877 271.807 127.71 271.125 127.682C270.443 127.654 269.763 127.766 269.138 128.009L267.033 128.823C267.033 128.823 264.243 129.741 263.093 130.129C262.755 130.244 262.467 130.451 262.27 130.72C261.767 131.372 261.617 132.447 261.745 133.823Z" fill="#FDB4A2"/>
<path d="M280.59 131.922C280.629 131.942 280.65 131.952 280.65 131.952C280.855 131.922 281.063 131.892 281.268 131.861C281.045 131.882 280.819 131.902 280.59 131.922Z" fill="#FDB4A2"/>
<path d="M344.12 74.4269C344.113 74.5868 344.104 74.7466 344.093 74.9065C344.082 75.0895 344.067 75.2726 344.05 75.4556C343.94 76.6747 343.634 77.7999 343.34 78.9652C343.324 79.0299 343.31 79.0933 343.296 79.158C343.098 80.1318 343.224 81.124 343.224 82.1197C343.224 82.1648 343.223 82.21 343.223 82.2552C343.22 82.564 343.218 82.8714 343.215 83.1802C343.208 83.8941 343.404 84.9935 343.169 85.7428C342.976 85.4854 342.784 85.2279 342.592 84.9704C341.874 84.0088 341.011 83.0753 339.804 82.5774C338.591 82.077 337.568 82.4053 336.306 82.1917C335.095 81.9428 334.166 81.2582 333.297 80.515C332.952 80.2221 332.617 79.9195 332.277 79.6315C333.003 78.8505 333.998 77.9804 334.569 77.0066C334.816 76.6083 334.967 76.1692 335.014 75.7167C335.049 75.3271 334.981 74.9355 334.814 74.5737C334.646 74.2118 334.386 73.8898 334.052 73.6337C333.373 73.1371 332.365 72.9955 331.574 73.3371C331.035 73.5902 330.608 73.9963 330.361 74.4904C330.032 75.1017 330.169 75.8009 329.822 76.3794C329.702 76.5783 329.425 76.8834 329.199 77.2031C328.973 77.524 328.799 77.8609 328.89 78.1183C328.616 77.3446 328.063 76.682 327.855 75.9047C327.664 75.1896 327.85 74.5355 327.241 73.9326C326.939 73.635 326.455 73.452 326.024 73.5713C326.283 73.4996 326.819 72.7063 327.076 72.5119C327.558 72.1553 328.094 71.8605 328.669 71.6362C329.788 71.1893 330.889 70.9892 332.104 71.1078C334.308 71.3366 336.417 72.0347 338.25 73.1422C339.901 74.121 342.157 74.4286 344.12 74.4269ZM325.864 71.5384C325.009 72.2914 324.127 73.0614 323.049 73.5202C322.96 73.3774 322.874 73.2383 322.793 73.1029C322.73 72.9991 322.669 72.8991 322.611 72.8015C322.586 72.7599 322.561 72.7185 322.538 72.6782C322.025 72.3393 321.542 71.9664 321.092 71.5628C320.862 71.3541 320.643 71.1406 320.437 70.921C319.765 70.2128 319.207 69.425 318.781 68.5804C318.571 68.1625 318.398 67.7314 318.261 67.2905C318.246 67.1953 318.236 67.1014 318.231 67.0087V67.0074C318.203 66.5401 318.312 66.097 318.668 65.7469C319.084 65.3368 319.747 65.1855 320.37 65.2025C320.641 65.2099 320.91 65.2464 321.171 65.3112C321.734 65.4512 322.252 65.709 322.68 66.0627C323.107 66.4165 323.433 66.8559 323.63 67.3442C323.802 67.7982 323.854 68.2802 323.978 68.7463C324.266 69.8269 324.925 70.8022 325.864 71.5384Z" fill="#27231C"/>
<path d="M344.825 87.9589C344.057 87.6959 343.267 87.4893 342.461 87.3414C341.171 87.1218 339.991 87.1693 338.854 87.649C338.273 87.8999 337.74 88.2292 337.273 88.6252C336.131 89.5697 332.113 91.2354 332.367 92.9878C332.281 92.3923 332.182 91.7785 332.059 91.1622C332.054 91.1317 332.047 91.1012 332.041 91.0707C331.796 89.8577 331.456 88.6386 330.93 87.5452C330.856 87.3902 330.788 87.256 330.725 87.1413C330.215 86.2138 329.977 86.5091 328.698 87.0705C327.468 87.6099 325.12 88.4653 323.624 88.0065H323.623C322.972 87.8076 322.483 87.3609 322.319 86.5299C322.3 86.4286 320.73 81.2936 320.64 81.213C320.048 80.6944 318.38 81.163 318.19 80.105C318.178 79.9518 318.208 79.7985 318.275 79.6571C318.832 78.172 319.062 76.826 319.85 75.4531C320.343 74.5953 319.449 72.9247 319.371 72.0253C319.324 71.475 319.601 70.9649 319.765 70.4487C319.958 69.8385 319.932 69.2589 319.897 68.6304C319.874 68.2131 319.89 67.803 319.907 67.3857C320.741 67.6908 320.432 67.2527 321.294 67.1966C322.276 67.1319 322.621 67.8994 322.981 68.5914C323.052 68.728 323.122 68.8623 323.191 68.9928C323.573 69.7092 323.952 70.3352 324.513 70.9027C324.75 71.1415 325.01 71.3616 325.29 71.5604C325.714 71.8606 326.119 72.1388 326.476 72.4427C327.004 72.8648 327.392 73.4066 327.598 74.0096C327.796 74.6111 327.693 75.2909 327.855 75.9047C328.064 76.682 328.616 77.3446 328.891 78.1183C328.8 77.8609 328.973 77.524 329.199 77.2031C329.425 76.8834 329.702 76.5783 329.822 76.3794C330.17 75.8009 330.032 75.1017 330.361 74.4904C330.608 73.9963 331.035 73.5902 331.574 73.3371C332.365 72.9955 333.373 73.1371 334.052 73.6337C334.386 73.8898 334.647 74.2118 334.814 74.5737C334.981 74.9355 335.05 75.3271 335.014 75.7167C334.967 76.1692 334.816 76.6082 334.569 77.0066C333.998 77.9804 333.003 78.8505 332.277 79.6315C332.617 79.9195 332.952 80.2221 333.297 80.515C334.167 81.2582 335.096 81.9428 336.306 82.1917C337.568 82.4053 338.591 82.077 339.804 82.5774C341.011 83.0752 341.874 84.0088 342.592 84.9703C342.983 85.4939 343.375 86.0182 343.768 86.5434C344.119 87.0156 344.472 87.4874 344.825 87.9589Z" fill="#FDB4A2"/>
<path d="M261.745 133.823C261.827 134.687 262.229 135.205 262.655 135.513C262.97 135.744 263.349 135.898 263.752 135.96C263.757 135.961 263.761 135.961 263.765 135.961C263.829 136.258 264.003 136.527 264.261 136.726C264.541 136.93 264.887 137.05 265.249 137.069H265.265C267.541 138.424 269.22 138.004 269.267 137.399C269.315 136.795 266.994 136.041 266.994 136.041C266.997 136.041 266.999 136.04 267.001 136.039C267.194 135.971 271.198 134.606 273.61 136.449C276.084 138.34 280.177 137.818 280.177 137.818C282.511 138.064 284.793 138.4 287.126 138.622C288.388 138.743 289.746 139.246 290.997 139.523C292.437 139.842 293.881 140.149 295.328 140.444C298.354 141.059 301.396 141.619 304.459 142.072C309.47 142.814 306.664 142.477 314.85 142.959C317.194 143.098 319.691 143.227 321.981 142.661C323.342 142.325 324.532 141.685 325.631 140.91C327.841 139.353 329.997 137.568 331.604 135.5L321.665 127.209C320.63 127.884 319.54 128.49 318.404 129.022C318.385 129.031 318.367 129.04 318.348 129.048C318.924 129.86 319.454 130.696 319.936 131.554C320.736 132.904 322.221 135.374 321.522 137.071C321.323 137.553 320.944 137.96 320.448 138.225C318.629 139.242 314.064 138.197 311.922 138.221C307.678 138.267 303.435 138.093 299.214 137.7C297.179 137.511 295.135 137.42 293.102 137.228C292.116 137.135 291.131 137.019 290.157 136.854C288.977 136.653 287.854 136.457 286.652 136.56C285.304 136.674 283.951 136.593 282.607 136.484C282.061 136.44 281.506 136.394 280.954 136.322C280.013 136.201 279.087 136.003 278.257 135.609C277.338 135.186 276.392 134.809 275.425 134.48C273.638 133.847 271.095 132.89 269.146 133.536C267.326 134.139 265.8 133.237 265.29 132.875C265.225 132.831 265.163 132.784 265.104 132.735C264.342 133.007 263.948 132.417 263.771 132.003C263.721 131.886 263.681 131.766 263.652 131.643C262.601 131.56 262.317 131.103 262.27 130.72C261.767 131.372 261.617 132.447 261.745 133.823ZM344.825 87.959C341.874 86.9877 339.551 86.7411 337.273 88.6253C336.131 89.5698 332.113 91.2355 332.366 92.9879C332.281 92.3924 332.182 91.7786 332.059 91.1623C333.881 89.8846 336.059 88.956 336.621 86.9278C336.89 85.9614 336.636 84.9265 336.144 84.0308C335.493 82.8869 334.635 81.8445 333.606 80.9446C333.473 80.8275 333.326 80.7043 333.298 80.5419C333.296 80.5331 333.296 80.5241 333.297 80.5151C334.166 81.2583 335.095 81.9429 336.306 82.1918C337.568 82.4054 338.591 82.0771 339.804 82.5775C341.011 83.0753 341.874 84.0089 342.592 84.9704C343.336 85.9662 344.08 86.9624 344.825 87.959Z" fill="#F69883"/>
<path d="M347.095 90.8156C346.636 89.139 345.98 87.3401 344.768 86.3773C343.602 85.4512 341.903 86.3877 340.503 86.6096C339.059 86.8384 337.622 87.0618 336.335 87.7235C334.116 88.8645 332.09 90.2742 330.064 91.662C328.341 92.8425 326.872 94.2485 325.125 95.3908C324.899 95.5388 324.654 95.6985 324.571 95.9366C324.535 96.0753 324.525 96.2184 324.542 96.3599C324.594 97.5928 324.229 99.3093 323.914 100.526C324.182 99.4925 326.367 97.926 327.148 97.0395C328.982 94.9556 331.21 93.3579 333.789 92.0321C336.588 90.6553 339.344 89.5086 342.686 90.229C344.551 90.6312 346.74 91.4981 347.672 93.085C347.499 92.4339 347.321 91.6395 347.095 90.8156ZM344.7 135.223C343.259 139.244 339.342 142.017 336.161 144.952C334.531 146.456 333.26 148.048 331.871 149.709C331.621 150.007 330.321 151.869 329.417 153.366C324.129 151.891 319.223 149.502 314.983 146.337C315.098 145.963 315.244 145.597 315.42 145.241C315.611 144.848 315.826 144.464 316.065 144.092C316.065 144.092 316.063 144.091 316.066 144.091C317.056 142.534 318.415 141.172 319.942 139.97V139.969C320.61 139.441 321.31 138.945 322.026 138.476C324.77 136.679 328.111 135.651 330.058 133.131C331.796 130.88 332.765 128.282 333.72 125.714C335.405 121.178 338.124 117.159 339.145 112.386C339.801 109.316 339.246 106.122 339.862 103.046C339.687 103.921 342.343 107.17 342.802 108.144C343.759 110.18 344.512 112.287 345.054 114.44C346.604 120.613 346.88 129.137 344.7 135.223Z" fill="#B7B5B4"/>
<path d="M341.222 118.007C339.989 124.962 337.996 131.827 334.979 138.349C334.433 139.528 334.123 140.526 333.529 141.272C333.05 141.876 332.386 142.314 331.264 142.551C329.895 142.84 328.396 142.862 326.997 142.935C324.14 143.086 321.272 143.135 318.399 143.117C312.526 143.079 306.64 142.758 300.807 142.449C293.272 142.052 284.388 140.709 277.36 140.709C279.478 140.709 280.356 138.375 280.727 136.893C280.928 136.086 281.169 135.275 281.413 134.46C281.814 133.126 282.225 131.783 282.492 130.431C294.082 130.41 305.514 128.604 316.988 127.251C317.312 127.213 319.582 122.92 319.885 122.209C320.949 119.713 321.087 116.631 321.696 114.014C322.708 109.668 324.276 104.494 328.124 101.397C330.969 99.1077 334.263 100.855 337.169 102.005C343.258 104.414 342.046 113.361 341.222 118.007Z" fill="#D9D9D9"/>
<path d="M318.399 143.117C312.526 143.079 306.64 142.758 300.807 142.45C293.272 142.052 284.388 140.709 277.36 140.709C279.478 140.709 280.356 138.375 280.727 136.894C280.928 136.086 281.169 135.275 281.413 134.46C287.802 136.598 294.431 138.083 301.251 138.43C307.395 138.742 312.346 142.334 318.399 143.117Z" fill="#B7B5B4"/>
<path d="M325.919 71.0815C325.009 70.6553 323.998 70.4244 322.969 70.4073C322.18 70.4 321.398 70.5445 320.678 70.831C320.401 70.9413 319.77 71.1087 319.963 71.4996C320.134 71.845 320.675 71.6913 320.969 71.6008C321.456 71.4507 321.959 71.2954 322.46 71.1749C323.586 70.8868 324.776 70.8547 325.919 71.0815ZM321.372 74.0703C321.348 74.5835 321.675 75.0375 322.102 75.0846C322.528 75.1316 322.893 74.7537 322.917 74.2406C322.94 73.7275 322.614 73.2734 322.187 73.2264C321.761 73.1794 321.396 73.5572 321.372 74.0703Z" fill="#383838"/>
<path d="M324.096 73.3453C323.978 73.2737 323.855 73.2086 323.728 73.1505C323.603 73.092 323.476 73.0387 323.347 72.9906C323.092 72.8956 322.825 72.829 322.552 72.7924C322.415 72.7726 322.277 72.7606 322.139 72.7562C321.998 72.7537 321.858 72.7756 321.727 72.8208C321.589 72.8692 321.461 72.9378 321.349 73.0238C321.228 73.1188 321.13 73.2336 321.058 73.3619L321.079 73.3919C321.21 73.3455 321.33 73.3016 321.45 73.2675C321.568 73.2356 321.689 73.2093 321.81 73.1888L322.172 73.1287C322.296 73.1053 322.421 73.0935 322.547 73.0934C322.675 73.0934 322.803 73.1012 322.93 73.1165C323.06 73.1298 323.188 73.1489 323.316 73.1739C323.578 73.2228 323.835 73.2917 324.084 73.3799L324.096 73.3453Z" fill="#383838"/>
<g style="mix-blend-mode:multiply" opacity="0.32">
<path d="M263.713 136.722C263.661 136.696 263.654 136.7 263.712 136.745L263.713 136.722Z" fill="#FFAE9A"/>
</g>
<path d="M287.938 136.375C287.986 136.388 288.036 136.402 288.085 136.414C288.195 136.348 288.315 136.296 288.441 136.259C288.275 136.303 288.107 136.341 287.938 136.375Z" fill="#F69883"/>
<g style="mix-blend-mode:multiply" opacity="0.32">
<path d="M262.655 135.513C262.971 135.744 263.349 135.898 263.753 135.96C263.741 135.716 263.596 132.678 263.772 132.003C263.777 131.956 263.799 131.912 263.833 131.876C264.1 131.704 266.997 130.357 267.178 130.273C267.021 130.323 264.724 131.074 263.652 131.643C263.329 131.815 263.117 131.969 263.108 132.084C263.073 132.528 263.718 135.505 262.655 135.513Z" fill="#FFAE9A"/>
</g>
<g style="mix-blend-mode:multiply" opacity="0.32">
<path d="M264.261 136.726C264.541 136.93 264.887 137.05 265.249 137.069C265.208 136.943 264.961 136.107 265.045 134.213C265.045 134.213 264.896 133.239 265.29 132.875C265.304 132.862 265.319 132.849 265.335 132.838C265.771 132.521 267.748 131.485 267.888 131.412C267.745 131.469 265.869 132.228 265.104 132.735C264.917 132.858 264.797 132.966 264.783 133.046C264.724 133.382 264.706 136.012 264.261 136.726Z" fill="#FFAE9A"/>
</g>
<path d="M325.661 83.2462C325.665 83.6248 325.539 83.9955 325.302 84.3102C324.789 84.9765 323.7 85.3756 322.861 84.9448C322.631 84.8255 322.433 84.6636 322.281 84.4701C322.103 84.2476 321.978 83.9957 321.913 83.7294C321.9 83.6993 321.901 83.6662 321.915 83.6366C321.918 83.6308 321.922 83.6258 321.928 83.622C321.948 83.6037 321.974 83.5903 322.002 83.583C322.504 83.406 325.322 81.7708 325.036 81.2058C325.342 81.8099 325.671 82.5457 325.661 83.2462Z" fill="#383838"/>
<path d="M357.028 159.751C356.932 160.569 346.014 158.733 345.041 158.237C346.071 154.666 346.392 150.497 346.704 146.785C347.558 145.547 348.413 144.308 349.267 143.071C349.256 145.965 348.017 150.387 349.246 153.098C351.118 157.224 353.325 152.524 353.904 150.46C355.744 143.895 353.664 136.803 353.198 130.077C352.625 121.816 352.241 113.653 352.217 105.383C352.608 106.75 352.957 108.127 353.264 109.512C354.998 117.399 355.347 125.442 355.905 133.444C356.503 142.022 358.026 151.201 357.028 159.751Z" fill="#B7B5B4"/>
<path d="M325.661 83.2461C325.664 83.6247 325.539 83.9954 325.301 84.3102C324.789 84.9765 323.7 85.3755 322.861 84.9448C322.631 84.8255 322.433 84.6636 322.28 84.4701C322.64 84.2167 323.04 84.0119 323.467 83.8624C324.175 83.5963 324.91 83.39 325.661 83.2461Z" fill="#F36C3F"/>
<path d="M346.946 70.1595C346.794 70.8402 346.569 71.5063 346.272 72.1487C345.85 73.0614 345.391 73.9584 344.895 74.8394C344.859 74.9264 344.789 74.9988 344.697 75.0432C344.61 75.0642 344.518 75.0599 344.435 75.031C342.075 74.4513 339.747 73.5276 337.752 72.2597C336.937 71.7435 336.812 71.4042 336.62 70.5793C336.367 69.4981 335.844 68.4426 335.258 67.4724C335.209 67.3882 335.158 67.3052 335.105 67.2222C334.572 66.3778 333.917 65.5565 332.987 65.0501C332.223 64.634 331.326 64.4583 330.443 64.3265C328.522 64.043 326.572 63.9412 324.626 64.0226C323.666 64.0629 322.653 64.1653 321.881 64.6743C321.611 64.8551 321.372 65.0697 321.171 65.3112C320.91 65.2464 320.641 65.2099 320.37 65.2026C319.747 65.1856 319.084 65.3369 318.668 65.7469C318.312 66.0971 318.204 66.5401 318.231 67.0074C318.195 66.9379 318.161 66.8671 318.128 66.7963C317.575 65.6127 317.327 64.2923 317.583 63.061C317.909 61.5002 319.206 60.2421 320.598 59.2426C321.899 58.3067 323.434 57.4867 325.112 57.4793C325.275 57.4677 325.439 57.4969 325.584 57.5635C325.711 57.6424 325.808 57.7528 325.863 57.8807C325.912 57.9699 325.954 58.0638 326.005 58.1492C326.4 58.8131 327.357 59.0047 328.199 59.1011C330.702 59.3891 333.25 59.4745 335.756 59.7332C337.505 59.9126 339.233 60.1762 340.912 60.6497C342.785 61.1768 344.639 62.0164 345.77 63.4393C346.458 64.3057 346.837 65.3417 347.03 66.3876C347.257 67.6392 347.229 68.9168 346.946 70.1595Z" fill="#3B311D"/>
<path d="M332.149 74.5136C331.95 74.7674 331.88 75.0798 331.766 75.3714C331.572 75.8542 331.253 76.2902 330.835 76.6447C330.417 76.9991 329.911 77.2622 329.358 77.413C329.303 77.3459 329.25 77.2751 329.199 77.2031C329.425 76.8834 329.703 76.5783 329.822 76.3794C330.17 75.801 330.032 75.1017 330.361 74.4904C330.608 73.9964 331.035 73.5902 331.574 73.3372C332.365 72.9955 333.373 73.1371 334.052 73.6337C334.386 73.8899 334.647 74.2119 334.814 74.5737C334.981 74.9355 335.05 75.3271 335.014 75.7168C334.967 76.1692 334.816 76.6083 334.569 77.0067C334.49 76.062 334.072 75.1645 333.376 74.4452C333.287 74.3438 333.175 74.2609 333.046 74.2024C332.726 74.0791 332.346 74.2597 332.149 74.5136ZM323.389 87.7307L323.493 87.8528C323.391 87.8271 323.353 87.7844 323.389 87.7307ZM332.874 83.5768C332.58 84.597 331.718 85.8917 330.725 87.1413C330.215 86.2139 329.977 86.5092 328.698 87.0705C327.468 87.6099 325.12 88.4654 323.624 88.0065H323.623L323.493 87.8528C324.402 88.0993 330.346 87.1755 332.874 83.5768Z" fill="#F69883"/>
<path d="M331.604 181.016H327.639V231.324H331.604V181.016Z" fill="#B7B5B4"/>
<path d="M334.777 204.004H324.466V221.208H334.777V204.004Z" fill="#D9D9D9"/>
<path d="M294.91 233.012C299.527 230.295 312.343 223.529 330.358 223.716C347.497 223.894 359.667 230.265 364.333 233.012V230.161C359.426 227.398 347.279 221.379 330.358 221.208C312.57 221.029 299.785 227.417 294.91 230.161V233.012Z" fill="#D9D9D9"/>
<path d="M359.894 233.012C359.894 232.234 360.154 231.474 360.642 230.828C361.13 230.182 361.823 229.678 362.634 229.38C363.445 229.083 364.338 229.005 365.199 229.157C366.06 229.308 366.851 229.683 367.472 230.232C368.093 230.782 368.515 231.482 368.687 232.245C368.858 233.007 368.77 233.798 368.434 234.516C368.098 235.234 367.529 235.848 366.799 236.28C366.069 236.711 365.211 236.942 364.333 236.942C363.75 236.942 363.173 236.84 362.634 236.643C362.095 236.445 361.606 236.156 361.194 235.791C360.782 235.426 360.455 234.993 360.231 234.516C360.008 234.039 359.894 233.528 359.894 233.012ZM290.471 233.012C290.471 232.234 290.731 231.474 291.219 230.828C291.707 230.182 292.4 229.678 293.211 229.38C294.022 229.083 294.915 229.005 295.776 229.157C296.637 229.308 297.428 229.683 298.049 230.232C298.67 230.782 299.093 231.482 299.264 232.245C299.435 233.007 299.347 233.798 299.011 234.516C298.675 235.234 298.106 235.848 297.376 236.28C296.646 236.711 295.788 236.942 294.91 236.942C294.327 236.942 293.75 236.84 293.211 236.643C292.673 236.445 292.183 236.156 291.771 235.791C291.359 235.426 291.032 234.993 290.809 234.516C290.586 234.039 290.471 233.528 290.471 233.012ZM325.429 233.012C325.429 232.277 325.675 231.56 326.136 230.949C326.596 230.339 327.251 229.863 328.017 229.582C328.783 229.302 329.626 229.228 330.439 229.371C331.253 229.514 331.999 229.868 332.586 230.387C333.172 230.906 333.571 231.568 333.733 232.288C333.895 233.008 333.812 233.754 333.494 234.432C333.177 235.11 332.64 235.69 331.95 236.098C331.261 236.506 330.451 236.723 329.621 236.723C329.071 236.723 328.526 236.627 328.017 236.441C327.509 236.254 327.046 235.981 326.657 235.636C326.268 235.292 325.959 234.882 325.748 234.432C325.538 233.982 325.429 233.499 325.429 233.012Z" fill="#B7B5B4"/>
<path d="M351.905 175.531V177.88C351.906 178.292 351.814 178.7 351.636 179.08C351.458 179.461 351.198 179.807 350.869 180.098C350.54 180.389 350.15 180.62 349.72 180.778C349.29 180.935 348.83 181.016 348.365 181.016H304.464C303.525 181.016 302.624 180.686 301.96 180.098C301.295 179.51 300.922 178.712 300.922 177.88V175.531C300.922 174.699 301.295 173.901 301.96 173.313C302.624 172.725 303.525 172.395 304.464 172.395H348.365C348.83 172.395 349.291 172.476 349.72 172.633C350.15 172.791 350.54 173.022 350.869 173.313C351.198 173.604 351.459 173.95 351.637 174.331C351.814 174.711 351.906 175.119 351.905 175.531ZM364.225 123.199C364.2 123.791 364.178 124.382 364.16 124.971C364.089 127.151 364.06 129.329 364.054 131.505C364.039 136.019 364.122 140.533 364.122 145.082C364.122 147.006 362.667 148.567 360.872 148.567H359.332C357.536 148.567 356.082 147.006 356.082 145.082C355.872 130.325 355.663 115.569 355.455 100.813C355.558 100.435 355.711 100.069 355.911 99.7226C356.144 99.3294 356.473 98.9585 356.923 98.7835C356.924 98.7835 356.926 98.7822 356.927 98.7822C361.651 96.9667 363.245 106.597 363.596 108.705C364.393 113.498 364.434 118.366 364.225 123.199Z" fill="#49ABC1"/>
<path d="M309.302 181.419H348.443C350.646 181.419 352.827 181.035 354.863 180.288C356.898 179.542 358.747 178.448 360.305 177.069C361.863 175.69 363.098 174.052 363.941 172.25C364.784 170.448 365.218 168.517 365.218 166.567V120.245C365.218 120.037 365.125 119.838 364.959 119.691C364.793 119.544 364.568 119.462 364.333 119.462C364.098 119.462 363.873 119.544 363.707 119.691C363.541 119.838 363.448 120.037 363.448 120.245V166.567C363.448 170.09 361.867 173.469 359.053 175.961C356.239 178.452 352.423 179.852 348.443 179.852H309.302C309.067 179.852 308.842 179.934 308.676 180.081C308.51 180.228 308.417 180.427 308.417 180.635C308.417 180.843 308.51 181.043 308.676 181.189C308.842 181.336 309.067 181.419 309.302 181.419Z" fill="#03718A"/>
<path d="M351.687 174.445C336.883 175.79 322.193 177.985 307.71 181.016H304.464C303.525 181.016 302.624 180.686 301.96 180.098C301.295 179.51 300.922 178.712 300.922 177.88V175.531C300.922 174.699 301.295 173.901 301.96 173.313C302.624 172.725 303.525 172.395 304.464 172.395H348.365C349.089 172.394 349.796 172.591 350.39 172.957C350.984 173.324 351.437 173.843 351.687 174.445ZM364.122 145.082C364.122 147.006 362.667 148.567 360.872 148.567H359.332C357.536 148.567 356.082 147.006 356.082 145.082C355.872 130.325 355.663 115.569 355.455 100.813C355.558 100.435 355.711 100.069 355.911 99.7225C355.909 100.34 355.944 100.957 356.015 101.571C356.681 107.749 357.654 113.892 358.936 120.002C359.842 124.32 361.745 127.965 364.054 131.505C364.039 136.019 364.122 140.533 364.122 145.082Z" fill="#2D7C8D"/>
<path d="M196.335 142.852H190.383V236.696H196.335V142.852Z" fill="#A96142"/>
<path d="M300.617 143.302H294.666V237.146H300.617V143.302Z" fill="#A96142"/>
<path d="M299.329 142.852H191.573V156.529H299.329V142.852Z" fill="#2D7C8D"/>
<g style="mix-blend-mode:multiply">
<path d="M300.618 152.11L190.363 153.472V148.932L300.618 148.981V152.11Z" fill="#BDBAB9"/>
</g>
<path d="M307.768 140.832H183.419V149.301H307.768V140.832Z" fill="#A96142"/>
<path d="M227.579 138.096H243.843L237.819 102.049H221.555L227.579 138.096Z" fill="#1F1E32"/>
<path d="M220.201 102.049L226.223 138.096H242.487L236.464 102.049H220.201Z" fill="#587379"/>
<path opacity="0.2" d="M222.2 102.049L232.304 138.096H241.701L242.336 137.667C242.336 137.667 233.763 114.415 229.246 102.049H222.2Z" fill="white"/>
<path d="M230.012 140.832H277.358V137.018H230.012V140.832Z" fill="#272C2D"/>
<path d="M226.453 140.832H253.685V137.018H226.453V140.832Z" fill="#272C2D"/>
<path d="M227.765 120.76C227.389 118.768 227.891 116.845 228.886 116.466C229.882 116.086 230.993 117.393 231.369 119.385C231.745 121.377 231.243 123.3 230.248 123.679C229.253 124.059 228.141 122.752 227.765 120.76Z" fill="white"/>
<path d="M74.733 138.996C72.8966 135.22 71.4347 131.31 70.3637 127.31C71.6461 126.523 73.4734 127.052 74.912 127.587C76.1967 128.065 76.7189 129.4 77.0992 130.587C77.7271 132.547 78.355 134.506 78.9829 136.466C79.3461 137.599 79.4641 139.191 78.2083 139.58C76.8346 140.006 75.3088 140.179 74.733 138.996ZM135.737 48.5387C135.281 50.3415 133.809 52.1522 134.668 54.0608C135.393 55.6705 137.334 55.4395 138.937 56.0445C138.834 55.1809 139.267 50.6287 138.598 50.2326C138.598 50.2326 135.738 48.5382 135.737 48.5387Z" fill="#F69883"/>
<path d="M138.047 50.8428L128.991 45.0352C128.808 44.9178 128.662 44.761 128.567 44.5796C128.472 44.3982 128.43 44.1983 128.447 43.9988C128.463 43.7993 128.537 43.6068 128.661 43.4397C128.786 43.2725 128.956 43.1363 129.156 43.0439C129.388 42.937 129.65 42.8931 129.91 42.9177C130.17 42.9423 130.415 43.0344 130.616 43.1822L139.087 49.4175" fill="#CC491D"/>
<path d="M117.062 39.3101C116.8 41.0894 116.108 42.7709 115.391 44.4379C114.946 45.4751 114.413 46.7271 113.299 47.352C112.407 47.8523 111.492 47.8938 110.542 48.1769C110.414 48.2147 110.73 53.0789 110.748 53.5963C110.786 54.6433 111.76 57.6794 110.417 58.3579C109.975 58.5812 108.058 58.3677 107.407 58.4251C106.446 58.5093 105.607 58.5605 104.635 58.4458C103.4 58.3006 93.2713 56.7642 94.8371 54.4969C95.3264 53.7879 95.6571 52.847 95.8763 51.817C96.6136 48.3563 96.0927 43.8948 96.0927 43.8948C98.9746 42.8148 101.928 41.7422 104.929 40.9478C106.449 40.5451 108.337 40.9966 109.363 39.6933C110.34 38.4486 109.78 36.6157 110.226 35.2135C110.507 34.3288 111.185 33.6369 111.502 32.7644C111.892 31.6893 112.286 30.7265 113.103 29.8295C113.267 29.6253 113.484 29.4584 113.735 29.3426C114.057 29.217 114.431 29.2499 114.77 29.3353C116.79 29.8441 117.107 31.5478 117.129 33.128C117.131 33.2208 117.131 33.3135 117.131 33.4063C117.121 35.3453 117.344 37.3942 117.062 39.3101Z" fill="#FDB4A2"/>
<path d="M117.129 33.128C116.569 33.4809 116.161 33.9916 115.971 34.5765C115.699 35.4308 115.922 36.3423 115.86 37.227C115.799 38.113 115.267 39.1149 114.276 39.243C113.843 39.2992 113.378 39.1771 112.976 39.3284C112.516 39.5029 112.3 39.9862 112.29 40.4291C112.282 40.8721 112.431 41.3053 112.479 41.7471C112.604 42.9149 112.024 44.0425 111.456 45.1042C111.152 45.6728 110.841 46.2622 110.578 46.8467C110.341 47.3751 110.496 47.7852 110.356 48.2208C110.141 48.8981 110.179 48.7895 109.153 48.8127C107.939 48.8408 106.668 48.8798 105.494 49.1764C104.947 49.3142 104.022 49.479 104.098 50.0537C104.18 50.6809 105.659 51.0617 106.206 51.0629C106.683 51.0641 105.78 51.8244 105.367 52.0343C103.345 53.0531 100.964 53.3586 98.6989 52.8897C97.6961 52.6764 96.7416 52.3137 95.8762 51.817C96.6135 48.3563 96.0926 43.8948 96.0926 43.8948C98.9745 42.8148 101.928 41.7422 104.929 40.9478C106.449 40.5451 108.337 40.9966 109.363 39.6933C110.34 38.4486 109.78 36.6157 110.225 35.2135C110.507 34.3288 111.185 33.6369 111.502 32.7644C111.892 31.6893 112.286 30.7265 113.103 29.8295C113.267 29.6253 113.484 29.4584 113.735 29.3426C114.057 29.217 114.431 29.2499 114.77 29.3353C116.79 29.8441 117.107 31.5478 117.129 33.128Z" fill="#F69883"/>
<path d="M92.702 51.9624V57.5906L112.468 59.4666L114.103 53.088C114.103 53.088 107.598 50.0863 102.64 51.0244C97.6814 51.9624 92.702 51.9624 92.702 51.9624Z" fill="#1B477F"/>
<path d="M146.416 64.0946H137.693C137.464 62.621 137.58 60.9815 137.256 59.5668C136.797 57.5632 134.522 56.2406 134.716 54.0152C134.9 51.8935 139.343 49.6806 136.705 47.7412C136.192 47.3666 137.623 47.6472 138.577 47.7412C139.53 47.8351 144.615 50.4612 145.252 51.9622C145.887 53.4632 144.721 56.8874 144.192 58.3408C143.878 59.2048 144.721 61.0706 145.458 62.4447C145.961 63.3856 146.416 64.0946 146.416 64.0946Z" fill="#FDB4A2"/>
<path d="M105.137 239.17C104.631 240.489 84.5688 243.349 84.5688 243.349L83.9886 240.745L81.8743 244.001C78.2591 245.379 69.3899 244.631 69.3899 244.631L69.7165 234.075L69.8089 231.095C71.7536 230.618 73.6598 229.882 75.6348 229.457C76.2793 229.315 76.9349 229.216 77.5961 229.161C80.4409 228.935 83.7818 230.649 86.6762 230.973C89.3501 231.272 92.0404 231.411 94.6454 232.071C96.4551 232.53 98.2638 232.989 100.072 233.447C101.251 233.746 102.432 234.045 103.612 234.344C104.018 235.06 104.376 235.797 104.685 236.551C105.073 237.52 105.367 238.571 105.137 239.17ZM147.016 239.579C146.51 240.898 126.446 243.76 126.446 243.76L125.866 241.155L123.753 244.41C120.138 245.788 111.269 245.041 111.269 245.041L111.686 231.505C114.268 230.871 116.78 229.783 119.475 229.57C120.227 229.523 120.983 229.573 121.719 229.719C123.985 230.124 126.395 231.14 128.555 231.382C131.228 231.681 133.919 231.821 136.524 232.48C139.512 233.238 142.501 233.995 145.491 234.752C145.85 235.386 146.171 236.035 146.455 236.698C146.894 237.732 147.267 238.925 147.016 239.579Z" fill="#3C3C3C"/>
<path d="M126.473 185.645L126.24 178.006C126.257 177.979 126.275 177.952 126.289 177.924C127.577 175.439 127.171 158.157 127.419 142.22C127.666 126.282 124.052 121.087 114.765 121.113C104.65 121.142 102.649 134.158 102.653 139.332C102.656 144.323 108.799 175.259 110.393 178.745L110.637 186.728C109.935 189.682 109.963 193.76 109.982 198.96C110.001 204.236 116.65 231.743 116.65 231.743L123.357 231.74C123.357 231.74 127.854 211.388 128.231 196.53C128.362 191.407 127.619 187.961 126.473 185.645ZM90.2664 121.227C81.0344 120.419 76.7605 125.281 74.9229 141.151C73.0854 157.021 73.7603 174.457 74.7168 177.036C74.733 177.079 74.7523 177.122 74.7745 177.163C74.7348 177.309 74.7006 177.458 74.676 177.609L73.6088 184.176C73.5832 184.334 73.5682 184.491 73.5601 184.646C72.102 186.852 70.8974 190.229 70.3524 195.376C68.7852 210.184 73.9354 231.085 73.9354 231.085L80.6048 231.652C80.6048 231.652 87.4741 204.575 88.183 199.329C88.9112 193.941 89.4906 189.766 89.0876 186.736C89.2045 186.439 89.2892 186.134 89.3404 185.823L90.4077 179.254C90.4125 179.224 90.4151 179.194 90.4193 179.165C92.2621 175.682 99.2754 145.315 99.9294 140.364C100.609 135.219 100.322 122.107 90.2664 121.227Z" fill="#FFAA95"/>
<path d="M147.016 239.579C146.51 240.898 126.446 243.759 126.446 243.759L125.866 241.155L123.753 244.41C120.138 245.788 111.269 245.041 111.269 245.041L111.686 231.505C114.268 230.871 116.781 229.783 119.475 229.57C120.227 229.523 120.983 229.573 121.719 229.719C120.301 231.634 118.757 233.597 119.435 235.233C120.444 237.665 125.568 237.94 127.946 238.129C134.141 238.621 140.319 237.435 146.455 236.698C146.894 237.732 147.267 238.925 147.016 239.579Z" fill="#262626"/>
<path d="M128.907 230.44C126.209 231.547 123.443 232.521 120.623 233.357C120.394 233.425 120.166 233.492 119.937 233.558C117.213 234.342 114.279 234.998 111.503 234.528C111.16 234.471 110.821 234.395 110.487 234.302C110.737 229.978 110.695 225.645 110.497 221.308C110.276 216.415 109.856 211.515 109.429 206.612C108.78 199.176 108.116 191.734 108.104 184.294C108.103 184.221 108.103 184.15 108.103 184.084C108.103 184.002 108.103 183.918 108.1 183.83C107.972 176.363 102.653 140.988 102.653 140.988L102.639 118.479L124.839 117.916C124.839 117.916 128.184 131.043 128.705 138.183C129.226 145.323 128.249 176.536 128.237 179.973C128.223 183.408 128.518 193.964 128.252 204.313C128.034 212.758 126.718 222.18 128.907 230.44Z" fill="#225864"/>
<path d="M105.137 239.17C104.631 240.489 84.5688 243.35 84.5688 243.35L83.9886 240.745L81.8743 244.001C78.2591 245.379 69.3899 244.631 69.3899 244.631L69.7165 234.075L69.8089 231.095C71.7536 230.618 73.6598 229.882 75.6348 229.458L77.7725 230.081C84.8169 235.958 95.256 238.424 104.685 236.551C105.073 237.52 105.367 238.571 105.137 239.17Z" fill="#262626"/>
<path d="M102.718 142.119C102.718 142.119 92.9089 178.168 92.0047 185.008C91.135 191.586 90.2685 198.165 89.4053 204.744C88.8622 208.871 88.2544 212.416 88.4129 216.565C88.5949 221.312 88.377 226.065 87.761 230.784C84.6971 230.933 82.2038 231.824 79.0778 231.85C78.7333 231.853 76.772 232.109 74.6012 232.341C72.4277 232.573 70.0433 232.78 68.869 232.683C68.359 232.641 68.0765 232.541 68.1385 232.362C68.7615 230.546 68.5134 228.553 68.7311 226.676C68.7367 226.63 68.7422 226.581 68.7463 226.534C69.0123 224.133 68.7077 221.575 68.7077 219.162C68.7077 218.957 68.7091 218.749 68.7104 218.542C68.7118 218.383 68.7118 218.225 68.7132 218.065C68.7352 213.541 68.7987 208.998 69.2176 204.487C69.2287 204.359 69.2397 204.234 69.2521 204.108C69.2755 203.876 69.2976 203.65 69.321 203.428C70.4085 193.114 72.0831 182.641 72.52 179.223C72.9569 175.805 72.7267 144.399 74.1781 137.342C74.2001 137.233 74.2235 137.121 74.2483 137.008C74.2732 136.895 74.298 136.78 74.3242 136.665C74.3269 136.654 74.3283 136.643 74.331 136.632C74.3559 136.527 74.3807 136.421 74.4055 136.315C74.4565 136.093 74.5116 135.866 74.5695 135.635C74.6026 135.5 74.6384 135.362 74.6742 135.223C74.7059 135.101 74.7377 134.979 74.7694 134.854C74.8052 134.719 74.8424 134.582 74.8796 134.444C74.9127 134.322 74.9458 134.2 74.9802 134.078C75.0078 133.978 75.0354 133.879 75.0629 133.778C75.0877 133.686 75.1139 133.595 75.1415 133.503C75.1677 133.411 75.1939 133.319 75.2201 133.226C75.3661 132.717 75.5196 132.201 75.6804 131.677C75.7218 131.541 75.7631 131.404 75.8058 131.266C76.0594 130.446 76.3254 129.615 76.5984 128.79C76.6424 128.655 76.6865 128.52 76.732 128.385C77.1882 127.011 77.6569 125.66 78.1048 124.402C78.1475 124.281 78.1902 124.161 78.233 124.042C78.5252 123.226 78.8063 122.453 79.0682 121.743C79.1054 121.643 79.1412 121.543 79.1784 121.445C79.2171 121.342 79.2556 121.238 79.2928 121.137C79.3425 121.002 79.3921 120.872 79.4389 120.744C79.4637 120.677 79.4885 120.612 79.5134 120.547C79.5657 120.404 79.6181 120.267 79.6691 120.132C79.727 119.979 79.7821 119.83 79.8373 119.687C79.8772 119.581 79.9158 119.479 79.9531 119.381C80.0881 119.024 80.2094 118.711 80.31 118.448C80.3417 118.367 80.3707 118.291 80.3982 118.22C80.4216 118.159 80.4437 118.103 80.4644 118.049C80.4685 118.036 80.474 118.024 80.4796 118.01C80.4961 117.967 80.5126 117.927 80.5264 117.889C80.5705 117.777 80.605 117.688 80.6298 117.625C80.6408 117.597 80.6505 117.572 80.6573 117.555C80.662 117.541 80.6675 117.527 80.6739 117.514H80.6808C80.6835 117.514 80.6863 117.515 80.6904 117.515L89.459 117.899H89.4632L102.639 118.479C102.641 118.587 102.641 118.696 102.641 118.803L102.718 142.119Z" fill="#225864"/>
<path d="M77.2405 138.598C76.4356 140.111 82.9217 142.526 82.573 144.274C81.6372 148.95 80.5456 180.386 80.3857 182.17C80.2479 183.721 75.7685 222.292 74.6011 232.341C72.4275 232.573 70.0431 232.78 68.8688 232.683C68.833 231.307 68.782 229.137 68.7461 226.534C68.7172 224.316 68.6979 221.784 68.7076 219.162C68.7076 218.957 68.7089 218.749 68.7103 218.542C68.7117 218.383 68.7117 218.225 68.7131 218.065C68.7448 213.292 68.8771 208.325 69.2175 204.487C69.2286 204.359 69.2396 204.234 69.252 204.108C69.2754 203.876 69.2975 203.65 69.3209 203.428C70.4084 193.114 72.083 182.641 72.5199 179.223C72.9568 175.805 72.7266 144.399 74.178 137.342C74.2 137.233 74.2234 137.121 74.2482 137.008C74.2731 136.895 74.2978 136.78 74.3241 136.665C74.3268 136.654 74.3282 136.643 74.3309 136.632C74.3558 136.527 74.3806 136.421 74.4054 136.315C74.4564 136.093 74.5115 135.866 74.5694 135.635C74.6024 135.5 74.6383 135.362 74.6741 135.223C74.7058 135.101 74.7376 134.979 74.7693 134.854C74.8051 134.719 74.8423 134.582 74.8795 134.444C74.9126 134.322 74.9456 134.2 74.9801 134.078C75.0077 133.978 75.0353 133.879 75.0628 133.778C75.0876 133.686 75.1138 133.595 75.1414 133.503C75.1676 133.411 75.1937 133.319 75.2199 133.226C75.366 132.717 75.5195 132.201 75.6803 131.677C75.7216 131.541 75.763 131.404 75.8057 131.266C76.0593 130.446 76.3253 129.615 76.5982 128.79C76.612 128.745 76.6272 128.699 76.6423 128.654C76.6712 128.565 76.7016 128.474 76.7319 128.385C77.1881 127.011 77.6567 125.66 78.1047 124.402C78.1474 124.281 78.1901 124.161 78.2329 124.042C78.5251 123.226 78.8062 122.453 79.0681 121.743C79.1053 121.643 79.1411 121.543 79.1783 121.445C79.2169 121.342 79.2555 121.238 79.2927 121.137C79.3424 121.002 79.392 120.872 79.4388 120.744C79.4636 120.677 79.4884 120.612 79.5133 120.547C79.5656 120.405 79.618 120.267 79.669 120.132C79.7269 119.979 79.782 119.83 79.8372 119.687C79.8757 119.581 79.9157 119.48 79.9529 119.381C80.088 119.024 80.2093 118.711 80.3099 118.448C80.3416 118.367 80.3706 118.291 80.3981 118.22C80.4215 118.159 80.4436 118.103 80.4643 118.049C80.4684 118.036 80.4739 118.024 80.4794 118.01C80.496 117.968 80.5125 117.927 80.5263 117.889C80.5704 117.777 80.6049 117.688 80.6297 117.625C80.6407 117.597 80.6503 117.572 80.6572 117.555C80.6618 117.541 80.6674 117.527 80.6738 117.514V117.512C80.6761 117.512 80.6784 117.513 80.6807 117.514C80.6834 117.514 80.6862 117.515 80.6903 117.515C82.4953 117.808 84.3234 117.975 86.1579 118.015C87.2599 118.042 88.3628 118.003 89.4589 117.899H89.463L102.639 118.479C102.641 118.587 102.641 118.696 102.641 118.803C102.61 143.905 78.0013 137.168 77.2405 138.598Z" fill="#2D7C8D"/>
<path d="M89.4631 117.899C88.3656 118.003 87.2614 118.042 86.158 118.015C84.3178 117.976 82.484 117.808 80.6738 117.512L89.4631 117.899ZM120.623 233.356C120.394 233.425 120.166 233.492 119.937 233.558C117.213 234.342 114.279 234.998 111.503 234.528C111.422 233.489 111.01 228.164 110.497 221.308C110.162 216.809 109.783 211.651 109.429 206.612C108.72 196.569 108.104 187.003 108.103 184.084C108.103 184.002 108.103 183.918 108.1 183.83C108.008 176.578 104.233 150.573 104.233 150.573C104.233 150.573 105.669 145.335 109.64 145.622C113.459 145.899 117.211 144.165 117.146 145.362C116.818 151.366 117.064 180.165 117.33 180.923C117.572 181.607 120.131 224.989 120.623 233.356Z" fill="#2D7C8D"/>
<path d="M146.416 64.0946H137.693L136.85 58.6801C139.225 60.6749 142.226 61.9873 145.458 62.4448C145.961 63.3856 146.416 64.0946 146.416 64.0946Z" fill="#F69883"/>
<path d="M124.886 114.009V119.82C123.512 119.82 122.136 119.838 120.76 119.854C120.161 119.863 119.563 119.869 118.965 119.872C117.698 119.883 116.43 119.883 115.167 119.858C112.264 119.799 109.525 120.456 106.609 120.613C105.397 120.679 104.179 120.695 102.955 120.679C102.358 120.673 101.759 120.658 101.161 120.638C97.5687 120.518 93.9645 120.208 90.4623 120.17C89.9813 120.165 89.503 120.166 89.0275 120.171C88.9655 120.173 88.8428 120.168 88.6678 120.159C86.8154 120.069 79.2294 119.511 79.2294 119.82V114.009H124.886Z" fill="#3C3C3C"/>
<path d="M102.955 112.94V120.679C102.358 120.673 101.759 120.658 101.161 120.638V112.94H102.955ZM120.76 114.009V119.854C120.161 119.863 119.563 119.869 118.965 119.872V114.009H120.76ZM90.4623 114.009V120.17C89.9813 120.165 89.503 120.166 89.0275 120.171C88.9655 120.173 88.8428 120.168 88.6678 120.159V114.009H90.4623Z" fill="#225864"/>
<path d="M155.21 91.2342C155.21 91.2342 153.374 93.6114 149.151 94.4864C144.979 95.3515 127.527 82.9105 127.107 82.6103C127.495 82.9081 127.604 84.658 127.701 85.0472C128.204 87.0901 128.224 89.1304 128.124 91.1817V91.183C128.041 92.8694 127.876 94.5645 127.827 96.2753C127.735 99.5433 128.569 102.493 127.929 105.706C127.425 108.238 128.468 110.333 128.246 112.747C127.98 115.623 120.065 118.037 115.748 116.623C114.589 116.271 113.399 116.004 112.191 115.825C106.574 114.913 97.7823 114.634 94.185 116.623C92.877 117.345 91.1942 117.725 89.4631 117.899C89.2618 117.919 89.0606 117.937 88.858 117.952C87.9599 118.015 87.0586 118.036 86.1579 118.015C84.3178 117.976 82.484 117.808 80.6738 117.512C80.6738 117.512 78.5347 122.927 76.6423 128.654C72.615 129.819 67.5375 133.584 68.7049 130.786C69.179 129.647 68.4402 126.687 67.2756 123.149C64.7561 115.504 60.2464 105.17 61.695 104.742C63.8147 104.117 65.2261 97.7385 66.2157 89.9236C67.2039 82.11 70.877 61.7174 78.0812 59.217C81.9473 57.8746 85.8878 56.6946 89.8269 55.5341C92.2692 54.8141 95.1361 54.3614 98.0345 54.1869C100.988 54.0099 103.972 54.121 106.567 54.5334C110.083 55.0924 112.79 56.8191 116.061 57.7221C120.469 58.9375 125.444 59.9785 128.526 63.2745C130.104 64.961 130.23 66.0043 132.516 66.9745C133.998 67.6042 135.499 68.1765 136.95 68.8538C137.2 68.9685 137.448 69.0881 137.693 69.2101L136.563 62.845C136.698 62.6038 136.928 62.4144 137.209 62.3117C139.635 61.272 147.3 62.845 147.3 62.845C153.099 69.0088 154.708 84.1955 155.098 89.4282C155.182 90.5667 155.21 91.2342 155.21 91.2342Z" fill="#2F64A7"/>
<path d="M89.6574 112.997C89.5349 114.664 89.2676 116.321 88.858 117.952C87.9599 118.015 87.0586 118.036 86.1579 118.015C84.3178 117.976 82.484 117.808 80.6738 117.512C80.6738 117.512 78.5347 122.927 76.6423 128.654C72.615 129.819 67.5374 133.584 68.7049 130.786C69.179 129.647 68.4402 126.687 67.2756 123.149C68.5477 122.736 69.7703 122.073 70.9156 121.426C72.4551 120.556 74.9994 119.228 75.4722 117.643C77.2116 111.809 78.8453 105.95 80.3733 100.068C83.3518 99.8008 86.7727 102.928 88.1992 105.258C89.6271 107.588 89.8476 110.352 89.6574 112.997Z" fill="#1B477F"/>
<path d="M155.21 91.2343C155.21 91.2343 153.374 93.6114 149.151 94.4864C144.979 95.3515 127.527 82.9105 127.107 82.6103C127.495 82.9081 127.604 84.658 127.701 85.0473C128.202 87.0779 128.022 89.139 128.124 91.183C128.041 92.8695 127.876 94.5645 127.827 96.2754C127.735 99.5433 128.569 102.493 127.929 105.706C127.425 108.238 128.468 110.333 128.246 112.747C127.98 115.623 120.065 118.037 115.748 116.623C114.589 116.271 113.399 116.004 112.191 115.825C106.574 114.913 97.7824 114.634 94.1851 116.623C92.4498 117.582 90.0572 117.936 87.7665 118.008C85.9087 118.552 83.9426 118.744 81.9956 118.572C81.5298 118.528 81.0156 118.439 80.7372 118.104C80.3265 117.606 80.6739 116.913 81.0267 116.382C76.6672 104.68 85.4027 92.4668 82.0259 80.5114C85.9733 84.6104 86.4337 90.4081 87.0429 95.7665C87.3979 98.8895 87.9309 102.097 89.3525 104.998C92.1158 110.635 99.5014 110.11 105.109 111.579C108.165 112.381 111.065 113.709 114.221 114.092C117.379 114.474 121.059 113.605 122.521 111.098C123.265 109.823 123.325 108.325 123.216 106.893C122.937 103.262 120.615 100.196 120.185 96.7219C119.817 93.7627 120.215 90.2165 120.401 87.2402C120.558 84.7239 120.087 82.1612 119.784 79.6669C119.647 78.5577 120.105 72.7136 119.493 72.1608C125.46 77.5595 130.9 83.3718 138.614 86.8668C143.665 89.156 149.589 90.3495 155.098 89.4282C155.182 90.5667 155.21 91.2343 155.21 91.2343Z" fill="#1B477F"/>
<path d="M81.8033 80.8138C82.5702 83.8537 82.7567 87.0029 82.6623 90.1191C82.5685 93.2407 82.2036 96.343 81.7999 99.4246C81.3962 102.507 80.9616 105.576 80.7057 108.655C80.4566 111.734 80.4037 114.825 80.7241 117.923C79.9482 114.884 79.7553 111.735 79.8462 108.618C79.9298 105.496 80.3026 102.394 80.7049 99.3123C81.1071 96.2294 81.5533 93.1613 81.8062 90.0817C82.0593 87.0029 82.1174 83.9122 81.8033 80.8138Z" fill="#A53B17"/>
<path d="M96.6851 27.3432C94.0088 29.8216 91.5452 34.3062 92.2542 37.8513C92.4066 38.6132 92.9091 39.0757 93.3455 39.6921C93.8387 40.3887 94.1177 41.1702 94.3985 41.9687C95.0368 43.7838 95.4866 45.6468 95.7424 47.5343C95.7437 47.6391 95.784 47.7406 95.8569 47.8231C95.9476 47.8875 96.0596 47.9236 96.1758 47.9258C97.7606 48.0883 99.3555 48.1621 100.951 48.1468C102.65 48.144 104.503 48.3837 106.137 47.9123C107.557 47.5027 108.301 46.7822 108.928 45.6641C109.638 44.3993 110.827 43.4949 112.029 42.5578C110.954 41.1337 110.534 39.3995 110.857 37.7107C110.889 37.4698 110.982 37.2383 111.129 37.0335C111.529 36.5417 112.135 36.626 112.621 36.8754C112.772 36.9533 113.894 38.2198 113.886 38.2525C114.082 37.4574 114.278 36.6623 114.474 35.8672C114.693 34.9739 114.672 34.189 114.673 33.274C114.674 32.674 114.676 32.0675 114.833 31.484C114.958 31.0234 115.609 30.494 115.672 30.1207C115.773 29.5205 115.725 29.7927 115.18 29.3337C114.216 28.5223 112.847 27.8134 111.606 27.3944C108.997 26.513 106.278 26.8761 103.688 26.0436C100.871 25.1382 98.9266 25.2676 96.6851 27.3432Z" fill="#3C3C3C"/>
<path d="M149.67 79.8622C145.197 76.4102 140.95 72.7347 136.95 68.8538C137.2 68.9685 137.448 69.0881 137.693 69.2101L136.563 62.845C136.698 62.6038 136.928 62.4144 137.209 62.3117C140.359 63.7297 143.022 66.0019 144.972 68.6292C147.465 71.9899 148.871 75.9047 149.67 79.8622Z" fill="#1B477F"/>
<path d="M139.224 47.8283C139.435 48.0211 139.606 48.2455 139.729 48.4911C139.978 48.9756 140.086 49.5073 140.045 50.0383C140.027 50.3065 139.955 50.5697 139.832 50.8156C139.743 50.5684 139.669 50.317 139.612 50.0624C139.554 49.8173 139.502 49.576 139.453 49.3339C139.404 49.0919 139.358 48.8496 139.315 48.602C139.269 48.3458 139.238 48.0875 139.224 47.8283ZM141.426 48.8009C141.596 48.9576 141.727 49.1435 141.812 49.3472C141.897 49.5448 141.95 49.7524 141.969 49.9634C141.989 50.1744 141.974 50.3868 141.925 50.594C141.878 50.8071 141.782 51.0092 141.642 51.1875C141.573 50.9887 141.523 50.7852 141.492 50.5792C141.46 50.3842 141.437 50.1936 141.42 50.0023C141.403 49.8111 141.392 49.6195 141.388 49.4225C141.382 49.2147 141.395 49.0069 141.426 48.8009ZM143.533 50.3044C143.689 50.4124 143.806 50.5578 143.871 50.7232C143.936 50.883 143.964 51.0529 143.953 51.2225C143.942 51.3921 143.892 51.558 143.806 51.7101C143.72 51.868 143.584 52.0003 143.415 52.0911C143.394 51.9324 143.385 51.7726 143.387 51.6128C143.388 51.468 143.393 51.331 143.403 51.1941C143.412 51.0571 143.425 50.9204 143.443 50.7765C143.462 50.6176 143.492 50.46 143.533 50.3044Z" fill="#F69883"/>
<path d="M118.076 31.0193C117.963 31.8102 117.696 32.5778 117.286 33.2879C116.55 32.059 115.391 30.6642 113.819 31.6087C112.276 32.5337 111.597 34.125 110.741 35.5601C109.773 37.1843 108.525 38.3741 106.711 39.2771C102.981 41.132 98.2413 41.4505 94.3187 39.8751C90.4734 38.3301 89.7773 34.6643 90.4871 31.2865C91.1997 27.8989 93.6379 25.5291 97.0712 23.9818C97.4171 23.8256 97.7727 23.6815 98.1324 23.5437C98.9318 23.2386 99.7547 22.9665 100.557 22.6834C100.595 22.67 100.742 22.6126 100.95 22.5284C101.89 22.1428 104.124 21.1775 103.785 20.9615C103.643 20.8749 103.481 20.8163 103.312 20.7896C103.142 20.7628 102.968 20.7686 102.801 20.8065C102.618 20.8452 102.448 20.9232 102.307 21.0335C104.161 17.6472 110.387 19.0334 113.036 20.8541C114.309 21.7303 115.321 22.8774 116.148 24.1038C117.543 26.171 118.419 28.6861 118.076 31.0193Z" fill="#9C3411"/>
<g opacity="0.5">
<path d="M106.063 22.3209C105.297 22.4649 104.531 22.6085 103.765 22.7517C103.177 22.8615 102.575 22.9714 101.979 22.903C101.604 22.863 101.248 22.7335 100.95 22.5284C101.89 22.1428 104.124 21.1775 103.785 20.9615C103.643 20.875 103.481 20.8163 103.312 20.7896C103.142 20.7628 102.968 20.7686 102.801 20.8066L102.967 20.7138C103.131 20.6039 103.318 20.5241 103.518 20.479C103.717 20.434 103.924 20.4246 104.128 20.4514C104.645 20.5159 105.121 20.7376 105.474 21.0787C105.827 21.4198 106.036 21.8589 106.063 22.3209Z" fill="#3C3C3C"/>
</g>
<g opacity="0.5">
<path d="M118.076 31.0193C117.963 31.8102 117.696 32.5778 117.286 33.2879C116.55 32.059 115.391 30.6642 113.819 31.6087C112.276 32.5337 111.597 34.125 110.741 35.5601C109.773 37.1843 108.525 38.3741 106.711 39.2771C102.981 41.132 98.2413 41.4505 94.3187 39.8751C90.4734 38.3302 89.7773 34.6643 90.4871 31.2866C91.1997 27.899 93.6379 25.5291 97.0712 23.9818C97.4171 23.8256 97.7727 23.6815 98.1324 23.5437C98.0015 23.8219 97.537 24.0745 97.606 24.5956C96.5116 26.0173 95.8652 27.7891 96.2552 29.4744C97.6005 35.2898 107.205 34.6898 110.606 31.0754C111.507 30.1175 112.574 29.1729 113.95 28.9106C115.652 28.586 117.492 29.594 118.076 31.0193Z" fill="#3C3C3C"/>
</g>
</g>
<defs>
<clipPath id="clip0_2_5929">
<rect width="390.6" height="256" fill="white"/>
</clipPath>
</defs>
</svg>
