<?xml version="1.0" encoding="UTF-8" standalone="no"?>
<!DOCTYPE svg PUBLIC "-//W3C//DTD SVG 1.1//EN" "http://www.w3.org/Graphics/SVG/1.1/DTD/svg11.dtd">
<svg width="100%" height="100%" viewBox="0 0 35 35" version="1.1" xmlns="http://www.w3.org/2000/svg" xmlns:xlink="http://www.w3.org/1999/xlink" xml:space="preserve" xmlns:serif="http://www.serif.com/" style="fill-rule:evenodd;clip-rule:evenodd;stroke-linejoin:round;stroke-miterlimit:2;">
    <g transform="matrix(1,0,0,1,-7,-6.50001)">
        <g transform="matrix(0.729166,0,0,0.729166,7.00002,6.50001)">
            <path d="M48,24C48,37.246 37.246,48 24,48C10.754,48 -0,37.246 -0,24C-0,10.754 10.754,0 24,0C37.246,0 48,10.754 48,24Z" style="fill:white;"/>
            <path d="M3.443,3.443C-0,6.886 -0,12.427 -0,23.51L-0,24.49C-0,35.573 -0,41.114 3.443,44.557C6.886,48 12.427,48 23.51,48L24.49,48C35.573,48 41.114,48 44.557,44.557C48,41.114 48,35.573 48,24.49L48,23.51C48,12.427 48,6.886 44.557,3.443C41.114,0 35.573,0 24.49,0L23.51,0C12.427,0 6.886,0 3.443,3.443ZM38.386,12.014C35.275,11.879 32.202,12.751 29.614,14.503C27.027,16.255 25.06,18.796 24,21.755C22.94,18.796 20.973,16.255 18.385,14.503C15.798,12.751 12.725,11.879 9.613,12.014C9.509,14.528 10.04,17.029 11.157,19.278C12.274,21.528 13.939,23.453 15.997,24.872C17.052,25.605 17.915,26.586 18.51,27.732C19.104,28.878 19.414,30.153 19.41,31.447L19.41,36L28.59,36L28.59,31.447C28.587,30.153 28.896,28.878 29.49,27.732C30.085,26.586 30.947,25.605 32.003,24.872C34.061,23.454 35.727,21.529 36.844,19.279C37.961,17.029 38.492,14.528 38.386,12.014ZM16.519,31.447C16.523,30.629 16.329,29.822 15.954,29.097C15.58,28.371 15.035,27.75 14.368,27.285C13.462,26.661 12.616,25.951 11.84,25.167C11.001,24.318 10.251,23.385 9.6,22.382L9.6,36L16.519,36L16.519,31.447ZM32.045,29.097C31.67,29.822 31.477,30.629 31.481,31.447L31.481,36L38.4,36L38.4,22.382C37.749,23.385 36.998,24.318 36.159,25.167C35.384,25.951 34.537,26.661 33.631,27.285C32.964,27.75 32.42,28.371 32.045,29.097Z" style="fill:rgb(224,9,95);"/>
        </g>
    </g>
</svg>
