<svg width="70" height="24" viewBox="0 0 70 24" fill="none" xmlns="http://www.w3.org/2000/svg" color="var(--color-content-primary)" aria-label="Trela"><path d="M22.3486 6.89774C22.6403 6.81353 22.9332 7.09302 22.9332 7.54827V10.0503C22.9332 10.4396 22.9979 10.6679 23.3225 10.6679C23.6801 10.6679 23.7778 10.4079 24.2648 9.01044C24.7517 7.67764 25.4999 6.89774 26.9621 6.89774C28.8795 6.89774 29.7888 8.19758 29.7888 10.5373C29.7888 13.7863 28.2936 15.0544 26.7998 15.0544C25.6952 15.0544 25.2399 14.4368 24.947 13.2993C24.6871 12.2594 24.4918 12.0641 24.1024 12.0641C23.6472 12.0641 23.4849 12.3571 23.4849 12.9087V21.3668C23.4849 22.0173 23.7119 22.342 24.5577 22.569C25.207 22.7313 25.4023 22.9913 25.4023 23.3489C25.4023 23.7065 25.1753 23.9994 24.6553 23.9994H16.7916C16.2387 23.9994 15.9788 23.7724 15.9788 23.3489C15.9788 22.9913 16.174 22.7313 16.7587 22.569C17.5386 22.342 17.7656 22.1138 17.7656 21.3668V10.5763C17.7656 9.95877 17.6033 9.73175 16.9857 9.73175C16.2387 9.73175 15.9788 9.50474 15.9788 9.01654C15.9788 8.61865 16.1301 8.42337 16.3974 8.30865C16.5011 8.26471 22.2168 6.89774 22.3474 6.89774H22.3486Z" fill="currentColor"></path><path d="M37.848 6.66602C42.3321 6.66602 44.1189 9.68799 44.1189 12.6123C44.1189 14.2698 43.8589 14.6921 42.852 14.6921H37.4903C36.841 14.6921 36.5811 14.8873 36.5811 15.3743C36.5811 19.6632 37.9139 20.8983 39.7324 20.8983C41.0652 20.8983 41.6816 20.1184 42.2344 18.9492C42.4944 18.3963 42.885 18.1363 43.372 18.3316C43.7943 18.4939 43.9248 18.8845 43.7942 19.4362C43.1449 22.0029 40.9993 23.9532 37.6856 23.9532C32.9086 23.9532 30.2772 20.5737 30.2772 15.5696C30.2772 10.1103 33.2991 6.66602 37.848 6.66602ZM37.101 13.2628C38.5961 13.2628 39.5054 12.19 39.5054 9.98091C39.5054 8.71403 39.0831 8.12818 38.3679 8.12818C37.2633 8.12818 36.5481 10.0773 36.5481 12.677C36.5481 13.0346 36.7104 13.2616 37.101 13.2616V13.2628Z" fill="currentColor"></path><path d="M45.0858 24C44.5329 24 44.2729 23.773 44.2729 23.3495C44.2729 22.9919 44.4682 22.7319 45.0529 22.5696C45.8328 22.3426 45.8926 22.1143 45.8926 21.3674V3.70667C45.8926 2.99146 45.8974 2.86208 45.1505 2.73149C44.5329 2.63385 44.2729 2.47152 44.2729 1.95159C44.2729 1.66721 44.3877 1.47193 44.5915 1.34134C44.7148 1.26322 50.7343 0.0488226 50.7929 0.032956C50.8746 0.0109869 50.9503 0 51.026 0C51.3506 0 51.6106 0.195283 51.6106 0.650531V21.3674C51.6106 22.1143 51.6704 22.3426 52.4503 22.5696C53.035 22.7319 53.2302 22.9919 53.2302 23.3495C53.2302 23.7718 52.9703 24 52.4174 24H45.0834H45.0858Z" fill="currentColor"></path><path d="M65.1944 23.9532C63.8946 23.9532 63.1147 23.271 62.4654 22.1982C62.2701 21.9052 62.1078 21.7429 61.9125 21.7429C61.7172 21.7429 61.5231 21.8406 61.2302 22.1335C60.5797 22.751 59.0199 23.9532 57.2013 23.9532C55.2522 23.9532 53.7241 22.5887 53.7241 20.3137C53.7241 17.7787 55.3816 15.9589 57.8507 14.8226L61.0996 13.3275C61.4572 13.1652 61.5219 12.9699 61.5549 12.5806L61.8795 9.26569C61.9442 8.45405 61.7172 8.12818 61.1973 8.12818C60.742 8.12818 60.3856 8.32346 60.288 9.26569C60.1586 10.4349 59.9633 11.4431 59.541 12.19C59.0211 13.1652 58.1436 13.7169 56.812 13.7169C54.9922 13.7169 54.3429 12.5794 54.3429 11.5724C54.3429 9.10336 57.5272 6.66602 61.5244 6.66602C65.5215 6.66602 67.2754 7.67293 67.2754 11.0525V19.2091C67.2754 19.9244 67.373 20.2161 67.7306 20.2161C68.0553 20.2161 68.2506 20.0537 68.5435 19.7291C68.6729 19.5667 68.8364 19.3715 69.1611 19.3715C69.5516 19.3715 69.681 19.6644 69.681 20.022C69.681 21.2571 68.0882 23.9532 65.1969 23.9532H65.1944ZM61.5549 19.1762V15.1144C61.5549 14.952 61.4902 14.8544 61.3596 14.8544C60.5797 14.8544 59.3775 17.5187 59.3775 19.1762C59.3775 20.4113 59.7351 20.736 60.2868 20.736C61.0984 20.736 61.5537 20.3137 61.5537 19.1762H61.5549Z" fill="currentColor"></path><path d="M16.489 0.2323H0.682265C0.129377 0.2323 0 0.556956 0 1.0122V4.90195C0 5.45484 0.322212 5.6489 0.646866 5.6489C1.19365 5.6489 1.3389 5.40114 1.71359 4.57608C2.42149 3.01749 2.63874 2.65256 2.78886 2.43775C3.25631 1.7677 3.80554 1.81285 4.22417 1.81285H4.77706C5.26404 1.81285 5.39463 1.97518 5.39463 2.33279V20.749C5.39463 21.9182 5.06998 22.2441 4.51709 22.3735C3.93247 22.5041 3.57486 22.6981 3.57486 23.2181C3.57486 23.738 3.89951 23.998 4.51709 23.998H12.6554C13.273 23.998 13.5976 23.738 13.5976 23.2181C13.5976 22.6981 13.24 22.5028 12.6554 22.3735C12.1025 22.2441 11.7779 21.9182 11.7779 20.749V2.33279C11.7779 1.97518 11.9072 1.81285 12.3954 1.81285H12.9483C13.367 1.81285 13.9162 1.7677 14.3836 2.43775C14.5326 2.65134 14.751 3.01749 15.4589 4.57608C15.8336 5.39992 15.9788 5.6489 16.5256 5.6489C16.8503 5.6489 17.1725 5.45362 17.1725 4.90195V1.0122C17.1725 0.556956 17.0431 0.2323 16.4902 0.2323H16.489Z" fill="currentColor"></path><path d="M68.2812 7.26317H68.0713V7.1582H68.6767V7.26317H68.4667C68.446 7.26317 68.435 7.27537 68.435 7.2949V7.91003H68.3129V7.2949C68.3129 7.27415 68.3007 7.26317 68.2812 7.26317Z" fill="currentColor"></path><path d="M68.8597 7.15808H69.0135L69.2479 7.70731C69.2576 7.73172 69.2784 7.7305 69.2881 7.70731L69.5274 7.15808H69.6787V7.91113H69.5591L69.564 7.42659C69.564 7.39852 69.542 7.39364 69.5298 7.41927L69.3162 7.91236H69.2222L69.0111 7.42049C68.9989 7.39608 68.9769 7.39974 68.9769 7.42659L68.9793 7.91113H68.8597V7.15808Z" fill="currentColor"></path></svg>