<svg width="183" height="48" viewBox="0 0 183 48" fill="none" class="styles_logo_svg__NBSph c-pointer"><g clip-path="url(#clip0_1833_190)"><path d="M44.6477 5.69189H63.4266C68.0302 5.69189 71.2724 6.84234 73.4174 8.93501C74.8816 10.4515 75.7715 12.3873 75.7715 14.8983V15.0029C75.7715 19.2396 73.3651 21.7506 70.122 23.1634C74.5678 24.6276 77.3926 27.1386 77.3926 32.1084V32.213C77.3926 38.49 72.266 42.3083 63.5312 42.3083H44.6477V5.69189ZM65.7807 16.99C65.7807 14.9496 64.1596 13.8515 61.177 13.8515H54.5339V20.2854H60.9156C64.0018 20.2854 65.7807 19.2396 65.7807 17.0946V16.99ZM62.2761 27.4001H54.5339V34.1478H62.3807C65.5192 34.1478 67.2449 32.9451 67.2449 30.8001V30.6955C67.2449 28.7074 65.6761 27.4001 62.2761 27.4001Z" fill="#53575A"></path><path d="M78.9073 5.69189H96.222C101.819 5.69189 105.69 7.1561 108.149 9.61481C110.293 11.7598 111.392 14.5322 111.392 18.1414V18.246C111.392 23.8955 108.41 27.6093 103.86 29.5451L112.595 42.3083H100.93L93.5531 31.2184H89.055V42.3083H78.9073V5.69189ZM95.8027 23.2671C99.2026 23.2671 101.243 21.5927 101.243 18.9258V18.8212C101.243 15.8919 99.0981 14.4277 95.7504 14.4277H89.055V23.268H95.8027V23.2671Z" fill="#53575A"></path><path d="M113.899 5.69189H124.046V20.5478L136.705 5.69189H148.684L134.823 21.3845L149.155 42.3083H137.019L127.76 28.7084L124.046 32.7872V42.3074H113.899V5.69189Z" fill="#53575A"></path><path d="M150.2 34.9322L168.56 14.2175H150.827V5.69189H182.526V13.0148L164.166 33.7295H182.526V42.3083H150.2V34.9322Z" fill="#53575A"></path><path d="M36.5803 40.5657H29.6073V47.5387H36.5803V40.5657Z" fill="#0095A9"></path><path d="M27.8636 21.3894V30.1062H19.1468V38.822H10.431V47.5387H19.1468H27.8636V38.822H36.5803V30.1062V21.3894H27.8636Z" fill="#0095A9"></path><path d="M15.666 10.9224H8.69299V17.8954H15.666V10.9224Z" fill="#0095A9"></path><path d="M36.5803 0.460938H17.4098V9.17769H36.5803V0.460938Z" fill="#0095A9"></path><path d="M17.4098 10.9224V19.6382H8.69301V28.3549H-0.0227966V37.0707H8.69301H17.4098V28.3549H26.1256V19.6382V10.9224H17.4098Z" fill="#0095A9"></path><path d="M15.684 0.460938H-0.0228424V26.6026H1.71994V2.20467H15.684V0.460938Z" fill="#FF9E18"></path><path d="M34.8365 10.922V19.6968H36.5802V10.922H34.8365Z" fill="#FF9E18"></path><path d="M1.71998 45.7951V38.8154H-0.0227966V47.5388H8.69301V45.7951H1.71998Z" fill="#FF9E18"></path></g><defs><clipPath id="clip0_1833_190"><rect width="182.55" height="47.0779" fill="white" transform="translate(0 0.460938)"></rect></clipPath></defs></svg>