<svg width="201" height="41" viewBox="0 0 201 41" fill="none" xmlns="http://www.w3.org/2000/svg"><mask id="a" maskUnits="userSpaceOnUse" x="0" y="0" width="43" height="41" style="mask-type: alpha;"><path d="M42.034 21.383c0 6.073-4.912 9.247-9.045 13.079-3.751 3.476-6.45 6.107-11.972 6.107-6.277 0-8.72-3.28-12.57-7.635C5.177 29.236 0 26.704 0 21.383c0-5.947 3.6-10.191 7.582-14.009 3.777-3.62 7.785-6.97 13.435-6.97 6.335 0 10.247 3.541 14.1 7.966 3.208 3.683 6.917 7.75 6.917 13.013z" fill="#000"></path></mask><g mask="url(#a)"><mask id="b" maskUnits="userSpaceOnUse" x="0" y="0" width="43" height="41" style="mask-type: alpha;"><path d="M42.034 21.403c0 6.074-4.912 9.248-9.045 13.079-3.751 3.477-6.45 6.108-11.972 6.108-6.277 0-8.72-3.28-12.57-7.635C5.177 29.257 0 26.724 0 21.403c0-5.946 3.6-10.19 7.582-14.008C11.36 3.774 15.367.424 21.017.424c6.335 0 10.247 3.542 14.1 7.967 3.208 3.683 6.917 7.749 6.917 13.012z" fill="#000"></path></mask><g mask="url(#b)"><path d="M-18.137-32.614C-9.795-19.233-1.517-5.65 8.17 6.818c2.509 3.228 5.141 6.378 8.086 9.22 2.2 2.122 4.67 4.15 7.657 5.015 2.63.761 5.411.555 8.093.24 2.887-.34 5.757-.809 8.643-1.154 8.008-.96 16.184-1.17 24.165.15 3.972.659 8.223 1.622 11.674 3.793 2.81 1.767 4.747 4.521 6.737 7.11 3.332 4.339 6.486 8.81 9.585 13.315 9.651 14.031 19.158 28.105 29.845 41.385M-22.054-29.083C-13.081-14.709-4.244.093 6.579 13.18a131.732 131.732 0 007.237 8.021c2.383 2.442 4.882 4.821 8.223 5.834 5.021 1.524 10.742.352 15.839-.134 7.742-.74 15.566-1.142 23.318-.295 4.69.512 9.518 1.438 13.528 4.062 2.988 1.955 4.99 4.854 7.084 7.68 3.003 4.05 5.879 8.195 8.726 12.358 9.077 13.268 18.164 26.484 28.255 39.011M47.927-149.752c26.413 25.474 47.718 55.628 72.04 82.987 6.623 7.45 13.487 14.698 20.682 21.598 8.009 7.682 16.371 14.986 24.377 22.673 9.902 9.508 19.06 19.722 28.762 29.425M-26.118-26.084C-16.685-11.031-7.263 4.127 4.061 17.854c2.45 2.972 4.966 5.896 7.631 8.679 2.382 2.488 4.812 4.886 8.152 5.997 4.787 1.595 10.21.952 15.145.657 7.74-.463 15.52-.916 23.261-.249 5.006.432 10.199 1.403 14.461 4.216 2.97 1.96 4.932 4.804 6.988 7.638 2.803 3.866 5.511 7.799 8.207 11.74 8.624 12.604 17.355 25.102 26.956 36.99M44.136-145.936c25.995 25.956 47.258 56.056 71.811 83.293 5.577 6.188 11.316 12.258 17.364 17.988 8.846 8.38 18.172 16.234 26.995 24.642C170.647-10.161 180.01.597 190.011 10.78M-30.325-23.603C-20.583-8.157-10.65 7.133.73 21.44c2.808 3.53 5.698 7.009 8.813 10.275 2.3 2.411 4.626 4.691 7.8 5.885 4.614 1.735 9.845 1.538 14.691 1.453 7.763-.137 15.568-.598 23.319.054 5.242.441 10.7 1.464 15.143 4.446 2.949 1.98 4.893 4.788 6.925 7.632 2.63 3.681 5.19 7.41 7.752 11.137 8.202 11.939 16.58 23.731 25.705 34.99M40.413-141.85c12.276 12.648 23.719 25.985 34.897 39.605 12.074 14.712 23.844 29.703 36.702 43.748 4.663 5.094 9.429 10.125 14.487 14.83 9.59 8.924 19.766 17.19 29.282 26.197 10.758 10.181 20.281 21.489 30.555 32.134m-221.004-36.28C-24.627-5.839-14.286 9.77-2.864 24.593c3.055 3.965 6.204 7.878 9.642 11.52 2.423 2.567 4.874 5.013 8.198 6.361 4.262 1.728 9.041 1.963 13.583 2.107 8.07.256 16.188-.195 24.236.578 5.324.512 10.835 1.635 15.314 4.717 3.036 2.087 5.03 5.022 7.125 7.984 2.397 3.392 4.752 6.812 7.117 10.224 7.804 11.27 15.828 22.366 24.487 32.999M36.78-137.397c7.027 7.455 14.164 14.848 20.774 22.68 16.93 20.062 32.712 41.157 50.612 60.384 3.348 3.598 6.737 7.181 10.334 10.532 10.555 9.83 21.994 18.664 32.521 28.532 11.309 10.601 21.071 22.613 31.726 33.842m-221.883-38.66C-29.737-5.489-20.071 8.97-9.872 23.023c3.717 5.12 7.527 10.197 11.71 14.949 2.23 2.532 4.59 5.267 7.336 7.257 4.872 3.53 11.196 4.274 17.027 4.726 7.147.552 14.33.3 21.476.878 4.91.398 9.926 1.172 14.422 3.281 4.89 2.296 7.804 6.094 10.836 10.396 1.709 2.425 3.404 4.859 5.104 7.29 7.883 11.279 15.98 22.39 24.706 33.038m-69.49-237.355c8.075 8.814 16.531 17.335 24.223 26.491 15.756 18.753 30.379 38.47 47.283 56.24 12.797 13.45 28.111 24.162 41.69 36.784 11.828 10.992 21.777 23.719 32.775 35.505m-222.944-41.47c9.53 14.583 19.152 29.148 29.203 43.379 4.04 5.72 8.18 11.402 12.763 16.707 2.667 3.087 5.514 6.276 8.792 8.734 5.111 3.831 11.78 4.92 17.981 5.478 11.222 1.013 23.681-.284 34.124 4.735 7.38 3.547 11.355 11.004 15.912 17.438 7.516 10.612 15.267 21.044 23.549 31.074m-68.76-235.752a663.882 663.882 0 0014.13 15.368c4.538 4.786 9.16 9.509 13.42 14.55 14.682 17.37 28.155 35.683 44.057 52.007 5.054 5.19 10.807 9.713 16.429 14.262 8.184 6.621 16.44 13.171 24.183 20.313 4.202 3.876 8.244 7.928 12.036 12.207 2.801 3.162 5.407 6.484 8.154 9.69a596.27 596.27 0 0013.506 15.227M-48.398-18.198c9.98 14.99 19.712 30.163 29.995 44.951C-14.26 32.71-10.012 38.618-5.3 44.14c3.284 3.849 6.83 7.625 10.885 10.678 5.034 3.791 11.497 4.99 17.62 5.679 10.89 1.224 22.841.442 32.911 5.45 7.321 3.642 11.305 10.843 15.918 17.25 7.155 9.94 14.55 19.696 22.39 29.108M26.555-121.358a395.933 395.933 0 0015.866 17.34c5.005 5.143 10.213 10.113 14.89 15.563 3.657 4.26 7.075 8.737 10.603 13.106 8.886 11.004 17.854 22.1 27.861 32.121 5.067 5.074 10.884 9.466 16.505 13.896 8.822 6.953 17.738 13.817 25.998 21.442C142.028-4.43 145.634-.81 149 3.025c2.945 3.358 5.664 6.907 8.527 10.334a574.726 574.726 0 0014.81 17.051M-53.136-17.617C-43.067-2.519-33.354 12.822-23.107 27.8-15.29 39.225-7.047 51.107 4.08 59.59c5.061 3.857 11.539 5.157 17.711 5.988 10.294 1.384 21.393 1.24 30.882 6.001 7.456 3.744 11.544 10.8 16.317 17.306 6.794 9.26 13.82 18.343 21.213 27.136M23.382-115.087c5.598 6.69 11.422 13.183 17.62 19.324 5.287 5.236 10.937 10.14 15.89 15.704 2.93 3.289 5.59 6.827 8.361 10.248 5.193 6.414 10.453 12.778 15.938 18.945 2.72 3.057 5.436 6.184 8.379 9.032 5.512 5.333 11.714 9.969 17.789 14.631 9.289 7.13 18.686 14.172 27.281 22.143 3.417 3.17 6.698 6.488 9.738 10.021 2.951 3.432 5.671 7.068 8.529 10.578a557.334 557.334 0 0016.034 18.84M-57.906-17.023c10.155 15.188 19.89 30.655 30.13 45.785 8.42 12.437 17.326 25.198 29.219 34.6 6.044 4.776 13.282 6.378 20.758 7.493 9.226 1.374 18.981 2.041 27.378 6.485 2.915 1.543 5.572 3.543 7.822 5.958 3.092 3.316 5.566 7.3 8.282 10.927 6.509 8.696 13.234 17.225 20.27 25.501m-65.64-228.133c5.937 7.341 12.163 14.46 19.011 20.972 5.626 5.348 11.87 10.08 17.18 15.756 2.669 2.852 5.022 6 7.493 9.023 4.09 5.004 8.245 9.957 12.546 14.78 3.025 3.395 6.06 6.782 9.476 9.791 14.99 13.21 32.334 23.502 46.728 37.443 5.827 5.642 10.599 12.068 15.628 18.398a540.426 540.426 0 0017.186 20.596M-62.675-16.361C-52.139-.716-42.13 15.278-31.56 30.899-22.81 43.832-13.45 57.05-1.237 66.986c2.326 1.892 4.733 3.627 7.473 4.87 4.82 2.19 10.097 3.197 15.275 4.132 8.367 1.511 17.045 2.742 24.613 6.868a33.045 33.045 0 018.529 6.644c2.946 3.207 5.35 6.968 7.997 10.424 6.13 8.004 12.454 15.857 19.03 23.5M17.33-101.389c6.374 8.174 13.109 16.14 20.834 23.082 5.793 5.204 12.48 9.418 17.981 14.939 2.763 2.77 5.115 5.943 7.62 8.943 5.8 6.947 11.629 13.994 18.618 19.783C96.857-22.654 113.099-12.91 126.876-.055c6.609 6.166 11.804 13.33 17.325 20.433 5.805 7.471 11.787 14.802 17.985 21.95M-67.41-15.574C-56.46.498-46.162 17-35.23 33.08c8.986 13.218 18.642 26.724 30.928 37.115 3.306 2.796 6.78 5.316 10.807 6.968 11.877 4.873 25.277 4.814 36.564 11.37a37.328 37.328 0 019.177 7.513c2.573 2.902 4.738 6.181 7.132 9.235 5.823 7.427 11.815 14.72 18.014 21.837M14.412-94.134c6.783 9.05 14 18.01 22.7 25.306 5.522 4.63 12.014 7.92 17.494 12.571 2.921 2.481 5.243 5.505 7.717 8.41 4.077 4.787 8.158 9.59 12.969 13.662C89.78-21.92 106.41-12.43 120.618.21c3.282 2.919 6.434 6.004 9.259 9.37 3.604 4.296 6.783 8.977 10.177 13.44 6.035 7.932 12.268 15.712 18.751 23.283M-72.086-14.606C-60.131 2.651-49.074 20.51-37.094 37.747-28.34 50.34-18.979 63.151-7.38 73.305-3.368 76.82.93 80.015 5.89 82.058c10.97 4.518 23.095 5.555 33.444 11.69a42.823 42.823 0 0110.3 8.566c2.332 2.648 4.306 5.589 6.514 8.339A565.63 565.63 0 0073.1 130.81M11.526-86.764C18.769-76.69 26.552-66.36 36.518-58.79c2.68 2.035 5.542 3.794 8.52 5.358 3.269 1.717 6.656 3.253 9.59 5.531 3.382 2.627 5.968 6.159 8.812 9.33 2.618 2.918 5.51 5.502 8.576 7.945 13.709 10.921 28.938 19.8 42.323 31.154 3.791 3.216 7.45 6.631 10.651 10.444 3.913 4.66 7.291 9.82 10.929 14.699 6.257 8.389 12.729 16.615 19.491 24.602M-76.68-13.412C-63.518 5.18-51.542 24.581-38.302 43.115c8.365 11.71 17.115 23.544 27.84 33.231 4.465 4.035 9.352 7.797 14.878 10.251 10.412 4.625 21.84 6.45 31.627 12.547 4.154 2.588 7.869 5.807 11.092 9.487 1.976 2.256 3.644 4.74 5.544 7.051a588.097 588.097 0 0016.134 18.82M8.636-79.437c4.387 6.378 8.957 12.662 14.041 18.509 3.956 4.549 8.265 8.922 13.294 12.289 2.677 1.794 5.554 3.21 8.572 4.329 3.462 1.285 7.05 2.275 10.101 4.439 2.34 1.66 4.056 3.903 6.084 5.898 2.724 2.678 5.745 5.053 8.798 7.342C81.984-17.286 95.386-9.25 107.538.513c4.377 3.516 8.636 7.258 12.292 11.532 4.451 5.204 8.168 11.127 12.214 16.647 6.389 8.715 13.007 17.26 19.948 25.543M-81.175-11.95c13.42 18.45 25.599 37.762 38.812 56.36 8.713 12.262 17.765 24.66 28.829 34.938 4.92 4.572 10.396 8.878 16.472 11.8 9.886 4.752 20.65 7.295 29.912 13.376 4.45 2.921 8.423 6.489 11.925 10.492 1.818 2.078 3.389 4.332 5.13 6.467 4.672 5.734 9.664 11.246 14.637 16.718M5.705-72.3c4.402 6.611 8.9 13.172 13.956 19.305 3.434 4.166 7.127 8.205 11.391 11.538 3.348 2.617 7.073 4.68 11.21 5.721 3.846.968 8.026.986 11.547 2.993 2.554 1.456 4.735 3.46 7.02 5.285 2.814 2.245 5.738 4.351 8.689 6.414C80.034-13.692 90.95-6.902 101.128.928c4.935 3.797 9.786 7.844 13.849 12.585 1.962 2.29 3.634 4.824 5.377 7.28 2.671 3.764 5.337 7.532 8.04 11.272 6.442 8.918 13.122 17.659 20.149 26.123M-85.562-10.188c13.685 18.204 26.014 37.38 39.18 55.956C-37.413 58.424-28.157 71.214-16.934 82-11.564 87.16-5.52 92.03 1.08 95.53c9.352 4.96 19.51 8.097 28.32 14.11 4.767 3.254 9.035 7.158 12.86 11.472 2.109 2.378 3.961 4.949 6.007 7.374 3.87 4.587 7.965 9.01 12.035 13.419M2.717-65.402c4.995 7.642 9.961 15.327 15.731 22.416 3.678 4.518 7.7 8.972 12.535 12.283 2.9 1.986 6.135 3.458 9.644 3.896 2.777.347 5.545-.103 8.32.1 1.996.146 4.018.919 5.833 1.713 5.693 2.496 10.64 6.55 15.782 9.979C78.64-9.63 86.826-4.388 94.637 1.385c5.384 3.98 10.729 8.214 15.153 13.271 2.145 2.452 3.94 5.212 5.813 7.874 3.027 4.299 6.032 8.614 9.084 12.896 6.502 9.119 13.25 18.057 20.369 26.704M-89.834-8.09c14.248 18.22 26.901 37.63 40.302 56.467C-40.553 61-31.335 73.72-20.3 84.654-14.355 90.542-7.619 96.01-.346 100.18c8.749 5.018 18.163 8.676 26.423 14.56 5.092 3.627 9.665 7.898 13.838 12.546 2.42 2.694 4.594 5.591 6.977 8.313 2.987 3.413 6.108 6.718 9.21 10.025M-.369-58.856c5.6 8.7 11.07 17.572 17.548 25.656 3.797 4.736 8.03 9.544 13.293 12.696 2.41 1.444 5.088 2.459 7.913 2.593 2.624.124 5.027-.737 7.6-.984 2.843-.277 5.723.149 8.465.898 6.227 1.701 11.529 5.153 16.877 8.641 5.626 3.67 11.256 7.338 16.726 11.238 5.59 3.985 11.163 8.196 15.85 13.242 2.326 2.505 4.225 5.351 6.188 8.14 2.726 3.87 5.412 7.768 8.121 11.652 7.425 10.64 15.099 21.095 23.314 31.143M-93.991-5.637c14.979 18.288 28.007 38.084 41.757 57.286 8.86 12.372 17.92 24.803 28.61 35.682 4.826 4.91 10.042 9.142 15.598 13.18 1.962 1.427 3.856 2.893 5.917 4.184 8.14 5.102 16.865 9.138 24.626 14.857 11.366 8.376 19.779 19.668 29.44 29.806M-3.567-52.717C2.768-42.763 8.91-32.468 16.278-23.23c3.906 4.898 8.456 10.192 14.285 12.843 2.29 1.042 4.79 1.52 7.292 1.152 1.996-.293 3.884-1.091 5.869-1.464 2.682-.503 5.43-.576 8.144-.322C62.874-9.99 71.94-4.06 80.818 2.035 87.174 6.4 93.604 10.987 98.876 16.66c2.293 2.467 4.178 5.292 6.12 8.035 3.018 4.266 5.967 8.581 8.937 12.88 7.645 11.069 15.528 21.957 24.016 32.398M-98.038-2.807c16.037 18.541 29.594 39.097 43.944 58.93 8.391 11.597 16.96 23.198 26.856 33.575 5.518 5.79 11.519 10.722 17.918 15.48 1.974 1.467 3.859 3.017 5.904 4.394 7.458 5.02 15.368 9.298 22.524 14.774C30 132.679 38.402 143.33 47.883 153.114M-6.89-47.037c4.429 7.022 8.884 14.031 13.491 20.94 2.767 4.147 5.52 8.34 8.617 12.25 3.892 4.914 8.698 10.676 14.9 12.675 3.39 1.093 6.215.036 9.5-.83 2.448-.646 4.939-1.106 7.464-1.305 10.04-.795 20.703 1.997 29.163 7.428 6.329 4.063 12.716 8.823 17.785 14.412 2.4 2.647 4.417 5.685 6.484 8.593 3.719 5.232 7.311 10.553 10.949 15.84 7.267 10.563 14.79 20.935 22.857 30.905M-101.987.411c18.032 19.558 32.642 42.079 48.4 63.433 7.186 9.738 14.551 19.404 22.795 28.28 4 4.309 8.228 8.409 12.757 12.162 2.424 2.008 4.988 3.801 7.486 5.709 1.99 1.518 3.874 3.155 5.91 4.623 6.663 4.8 13.655 9.111 20.107 14.208 10.522 8.314 19.178 18.436 28.434 28.063M-10.35-41.851C-3.033-30.17 4.284-18.435 12.445-7.316c2.664 3.628 5.52 7.155 8.946 10.101 1.976 1.699 4.198 3.256 6.709 4.042 2.627.823 5.479.047 8.072-.563 3.273-.772 6.546-1.49 9.897-1.838 11.006-1.138 23.273.835 32.658 6.937 10.028 6.521 16.564 17.109 23.193 26.778 9.231 13.465 18.455 26.893 28.713 39.611M-105.852 4.025c8.371 8.422 15.792 17.76 22.986 27.189 16.025 21.001 30.508 43.402 48.249 63.041 4.496 4.979 9.255 9.721 14.372 14.062 2.766 2.347 5.702 4.442 8.548 6.682 2.137 1.68 4.152 3.507 6.318 5.159 5.774 4.401 11.744 8.534 17.367 13.133 10.164 8.314 18.854 18.065 28.021 27.417m-53.963-197.89C-6.176-24.72 1.579-12.157 10.39-.39c2.64 3.526 5.345 7.06 8.625 10.023 1.923 1.735 4.058 3.349 6.565 4.114 3.034.928 6.21.369 9.254-.199 3.084-.575 6.159-1.175 9.276-1.544 7.663-.912 15.53-.668 23.059 1.093 4.046.946 8.118 2.322 11.63 4.588 3.185 2.057 5.47 5.127 7.768 8.081 3.462 4.453 6.73 9.054 9.932 13.697 9.849 14.276 19.503 28.627 30.39 42.152" stroke="#2E3031" stroke-width="3.12097" stroke-miterlimit="1.5" stroke-linecap="round" stroke-linejoin="round"></path></g></g><path d="M54.083 30.425V7.977h8.915c4.906 0 7.12 2.245 7.12 5.548 0 2.437-1.155 3.88-3.304 4.586 3.271.834 4.81 2.886 4.81 5.772 0 3.656-2.501 6.542-8.305 6.542h-9.236zm4.201-13.276h4.522c1.828 0 3.046-.898 3.046-2.886 0-1.924-1.219-2.726-3.046-2.726h-4.522v5.612zm0 9.716h4.842c2.983 0 4.137-1.507 4.137-3.431 0-1.956-1.154-3.495-4.137-3.495h-4.842v6.926zm15.967 3.56V7.977h4.105v22.448H74.25zM93.214 13.75h4.105v16.675h-4.105v-3.431h-.16c-.32 1.443-1.924 3.752-5.452 3.752-3.239 0-5.804-1.989-5.804-6.51V13.75h4.105v9.524c0 2.726 1.186 4.072 3.43 4.072 2.214 0 3.881-1.346 3.881-4.072V13.75zm22.73 8.305c0 .513-.032.77-.096 1.09h-12.025c.256 3.24 1.892 4.586 4.618 4.586 2.02 0 3.078-.834 3.623-2.47h3.656c-.898 3.785-3.784 5.58-7.536 5.58-4.329 0-8.241-2.469-8.241-8.69 0-6.22 3.816-8.722 8.177-8.722 4.329 0 7.824 2.437 7.824 8.626zm-12.121-1.186h8.241c-.096-2.534-1.315-4.297-4.008-4.297-2.47 0-3.977 1.475-4.233 4.297zm14.74 9.556V7.977h4.201v18.76h10.646v3.688h-14.847zm24.441-16.996c4.874 0 6.894 1.764 6.894 5.484v11.512h-3.912v-2.95h-.16c-.225.897-1.796 3.27-5.548 3.27-2.79 0-5.355-1.314-5.355-4.585 0-3.4 2.757-4.33 5.708-4.714l3.271-.45c1.539-.191 1.892-.576 1.892-1.538v-.353c0-2.085-1.187-2.63-2.951-2.63-1.731 0-3.078.545-3.078 2.373v.193l-3.88.064v-.642c0-3.238 2.212-5.034 7.119-5.034zm2.79 11.256V22.6c-.193.353-.802.481-1.796.642l-2.373.32c-1.732.289-2.662.866-2.662 2.085 0 1.154.77 2.084 2.758 2.084 2.822 0 4.073-1.892 4.073-3.046zm7.136 12.09v-3.496c3.078.417 4.008-.738 4.489-1.924.353-.866.353-1.38 0-2.245l-6.157-15.36h4.201l4.265 11.544 4.297-11.544h4.233l-6.927 17.124c-1.956 4.81-4.04 6.381-8.401 5.9zm31.722-14.72c0 .513-.032.77-.096 1.09H172.53c.257 3.24 1.892 4.586 4.618 4.586 2.02 0 3.079-.834 3.624-2.47h3.655c-.897 3.785-3.784 5.58-7.535 5.58-4.33 0-8.242-2.469-8.242-8.69 0-6.22 3.816-8.722 8.177-8.722 4.33 0 7.825 2.437 7.825 8.626zM172.53 20.87h8.242c-.096-2.534-1.315-4.297-4.009-4.297-2.469 0-3.976 1.475-4.233 4.297zm23.88-7.248c.385 0 .834.032 1.283.16v3.464a9.311 9.311 0 00-1.283-.096c-2.758 0-5.035 1.603-5.035 5.515v7.76h-4.104V13.75h4.104v3.976h.097c.545-2.245 2.116-4.105 4.938-4.105z" fill="#2E3031"></path></svg>